<svg xmlns="http://www.w3.org/2000/svg" viewBox="0 0 480 480"><linearGradient id="a" gradientUnits="userSpaceOnUse" x1="-26.877" y1="617.504" x2="-26.877" y2="553.625" gradientTransform="matrix(8 0 0 -8 455 4941)"><stop offset="0" stop-color="#fff33b"/><stop offset=".04" stop-color="#fee72e"/><stop offset=".117" stop-color="#fed51b"/><stop offset=".196" stop-color="#fdca10"/><stop offset=".281" stop-color="#fdc70c"/><stop offset=".669" stop-color="#f3903f"/><stop offset=".888" stop-color="#ed683c"/><stop offset="1" stop-color="#e93e3a"/></linearGradient><path d="M264 384h-32a8 8 0 01-8-8v-16h-16v16a8 8 0 01-8 8h-32a8 8 0 01-8-8v-16h-16a8 8 0 01-8-8v-32a8 8 0 018-8h16V168h-16a8 8 0 01-8-8v-32a8 8 0 018-8h16v-16a8 8 0 018-8h32a8 8 0 018 8v16h16v-16a8 8 0 018-8h32a8 8 0 018 8v20.08c37.509 13.282 57.149 54.456 43.867 91.965a71.961 71.961 0 01-5.131 11.291c33.504 21.418 43.302 65.94 21.884 99.444A72 72 0 01272 360v16a8 8 0 01-8 8zm-24-16h16v-16a8 8 0 018-8h8c30.928-.017 55.986-25.104 55.968-56.032a55.998 55.998 0 00-32.024-50.576 8 8 0 01-3-12c18.459-24.815 13.306-59.896-11.509-78.355A56.01 56.01 0 00262 137.744a8.001 8.001 0 01-6-7.744v-18h-16v16a8 8 0 01-8 8h-32a8 8 0 01-8-8v-16h-16v16a8 8 0 01-8 8h-16v16h16a8 8 0 018 8v160a8 8 0 01-8 8h-16v16h16a8 8 0 018 8v16h16v-16a8 8 0 018-8h32a8 8 0 018 8v16zm32-40h-72a8 8 0 01-8-8v-64a8 8 0 018-8h72c22.091 0 40 17.909 40 40s-17.909 40-40 40zm-64-16h64c13.255 0 24-10.745 24-24s-10.745-24-24-24h-64v48zm40-80h-48a8 8 0 01-8-8v-64a8 8 0 018-8h48c22.091 0 40 17.909 40 40s-17.909 40-40 40zm-40-16h40c13.255 0 24-10.745 24-24s-10.745-24-24-24h-40v48z" fill="url(#a)"/><linearGradient id="b" gradientUnits="userSpaceOnUse" x1="-26.875" y1="617.504" x2="-26.875" y2="553.625" gradientTransform="matrix(8 0 0 -8 455 4941)"><stop offset="0" stop-color="#fff33b"/><stop offset=".04" stop-color="#fee72e"/><stop offset=".117" stop-color="#fed51b"/><stop offset=".196" stop-color="#fdca10"/><stop offset=".281" stop-color="#fdc70c"/><stop offset=".669" stop-color="#f3903f"/><stop offset=".888" stop-color="#ed683c"/><stop offset="1" stop-color="#e93e3a"/></linearGradient><path d="M240 480C107.452 480 0 372.548 0 240S107.452 0 240 0s240 107.452 240 240c-.15 132.486-107.514 239.85-240 240zm0-464C116.288 16 16 116.288 16 240s100.288 224 224 224 224-100.288 224-224c-.141-123.653-100.347-223.859-224-224z" fill="url(#b)"/><linearGradient id="c" gradientUnits="userSpaceOnUse" x1="-26.875" y1="617.504" x2="-26.875" y2="553.625" gradientTransform="matrix(8 0 0 -8 455 4941)"><stop offset="0" stop-color="#fff33b"/><stop offset=".04" stop-color="#fee72e"/><stop offset=".117" stop-color="#fed51b"/><stop offset=".196" stop-color="#fdca10"/><stop offset=".281" stop-color="#fdc70c"/><stop offset=".669" stop-color="#f3903f"/><stop offset=".888" stop-color="#ed683c"/><stop offset="1" stop-color="#e93e3a"/></linearGradient><path d="M240 448c-114.875 0-208-93.125-208-208S125.125 32 240 32s208 93.125 208 208c-.132 114.82-93.18 207.868-208 208zm0-400C133.961 48 48 133.961 48 240s85.961 192 192 192 192-85.961 192-192c-.123-105.988-86.013-191.877-192-192z" fill="url(#c)"/></svg>