<svg xmlns="http://www.w3.org/2000/svg" viewBox="0 0 504.4 504.4"><path d="M168.8 168.6s-5.6 0-5.6-6c0-4.4 6.4-13.2 6.4-17.2h-16.8c-15.2 8-37.2 11.6-61.6 11.6s-46.4-4-61.6-12l-20.8-4v220c0 8-.8 24-.8 24 0 16 36.8 35.6 82.4 35.6 45.6 0 78.4-19.6 78.4-35.6V168.6zm164.8 72s-4.8-4.4-4.4-8.4c.8-6 7.2-13.2 7.2-18l-18 2.4c-15.2 8-37.2 12-61.6 12s-46.4-4-61.6-12l-25.6-10c0 8 .8 178 .8 178 0 16 41.2 35.6 86.8 35.6s78.8-19.6 78.8-35.6c-.8 0-2.4-136-2.4-144zM496.8 285l-14.8 3.6c-15.2 8-36.4 12-60.8 12s-46-4-60.8-12l-23.2-7.2v103.2c0 16 36.8 35.6 82.4 35.6s77.6-20.4 77.6-36.4c-.4 0-.4-90.8-.4-98.8z" fill="#e9b526"/><path d="M256.4 157.8c-45.6 0-82.8 16-82.8 35.6 0 9.2 8 16 21.2 23.6 15.2 8 37.2 12 61.6 12s46.4-4 61.6-12c13.2-8 21.2-14.8 21.2-24 0-19.2-37.2-35.2-82.8-35.2zM91.2 86.6c-45.6 0-82.8 16-82.8 35.6 0 9.2 8 16 21.2 24 15.2 8 37.2 12 61.6 12s46.4-4 61.6-12c13.2-8 16.8-14 16.8-23.2 0-19.6-32.8-36.4-78.4-36.4zm330.4 142c-45.6 0-82.8 16-82.8 35.6 0 9.2 8 16 21.2 24 15.2 8 37.2 12 61.6 12s46.4-4 61.6-12c13.2-8 18-14 18-23.2 0-19.6-33.6-36.4-79.6-36.4z" fill="#f0c960"/><path d="M86.8 232.6C38 232.6 0 215.4 0 193c0-2.4 1.6-4 4-4s4 1.6 4 4c0 15.2 31.6 31.6 78.8 31.6s78.8-16.4 78.8-31.6c0-2.4 1.6-4 4-4s4 1.6 4 4c0 22.4-38 39.6-86.8 39.6z"/><path d="M86.8 256.2C38 256.2 0 239 0 216.6c0-2.4 1.6-4 4-4s4 1.6 4 4c0 15.2 31.6 31.6 78.8 31.6s78.8-16.4 78.8-31.6c0-2.4 1.6-4 4-4s4 1.6 4 4c0 22.4-38 39.6-86.8 39.6z"/><path d="M86.8 279.8C38 279.8 0 262.6 0 240.2c0-2.4 1.6-4 4-4s4 1.6 4 4c0 15.2 31.6 31.6 78.8 31.6s78.8-16.4 78.8-31.6c0-2.4 1.6-4 4-4s4 1.6 4 4c0 22.4-38 39.6-86.8 39.6zm0-94.4C38 185.4 0 168.2 0 145.8c0-2.4 1.6-4 4-4s4 1.6 4 4c0 15.2 31.6 31.6 78.8 31.6s78.8-16.4 78.8-31.6c0-2.4 1.6-4 4-4s4 1.6 4 4c0 22-38 39.6-86.8 39.6z"/><path d="M86.8 209C38 209 0 191.8 0 169.4c0-2.4 1.6-4 4-4s4 1.6 4 4C8 184.6 39.6 201 86.8 201s78.8-16.4 78.8-31.6c0-2.4 1.6-4 4-4s4 1.6 4 4c0 22-38 39.6-86.8 39.6zm0 94.4C38 303.4 0 286.2 0 263.8c0-2.4 1.6-4 4-4s4 1.6 4 4c0 15.2 31.6 31.6 78.8 31.6s78.8-16.4 78.8-31.6c0-2.4 1.6-4 4-4s4 1.6 4 4c0 22.4-38 39.6-86.8 39.6z"/><path d="M86.8 327C38 327 0 309.8 0 287.4c0-2.4 1.6-4 4-4s4 1.6 4 4C8 302.6 39.6 319 86.8 319s78.8-16.4 78.8-31.6c0-2.4 1.6-4 4-4s4 1.6 4 4c0 22.4-38 39.6-86.8 39.6z"/><path d="M86.8 351C38 351 0 333.8 0 311.4c0-2.4 1.6-4 4-4s4 1.6 4 4C8 326.6 39.6 343 86.8 343s78.8-16.4 78.8-31.6c0-2.4 1.6-4 4-4s4 1.6 4 4c0 22-38 39.6-86.8 39.6z"/><path d="M86.8 374.6C38 374.6 0 357.4 0 335c0-2.4 1.6-4 4-4s4 1.6 4 4c0 15.2 31.6 31.6 78.8 31.6s78.8-16.4 78.8-31.6c0-2.4 1.6-4 4-4s4 1.6 4 4c0 22-38 39.6-86.8 39.6z"/><path d="M86.8 398.2C38 398.2 0 381 0 358.6c0-2.4 1.6-4 4-4s4 1.6 4 4c0 15.2 31.6 31.6 78.8 31.6s78.8-16.4 78.8-31.6c0-2.4 1.6-4 4-4s4 1.6 4 4c0 22-38 39.6-86.8 39.6z"/><path d="M86.8 421.8C38 421.8 0 404.6 0 382.2c0-2.4 1.6-4 4-4s4 1.6 4 4c0 15.2 31.6 31.6 78.8 31.6s78.8-16.4 78.8-31.6c0-2.4 1.6-4 4-4s4 1.6 4 4c0 22-38 39.6-86.8 39.6zm165.6-165.6c-48.8 0-86.8-17.2-86.8-39.6 0-2.4 1.6-4 4-4s4 1.6 4 4c0 15.2 31.6 31.6 78.8 31.6s78.8-16.4 78.8-31.6c0-2.4 1.6-4 4-4s4 1.6 4 4c0 22.4-38.4 39.6-86.8 39.6z"/><path d="M252.4 279.8c-48.8 0-86.8-17.2-86.8-39.6 0-2.4 1.6-4 4-4s4 1.6 4 4c0 15.2 31.6 31.6 78.8 31.6s78.8-16.4 78.8-31.6c0-2.4 1.6-4 4-4s4 1.6 4 4c0 22.4-38.4 39.6-86.8 39.6z"/><path d="M252.4 303.4c-48.8 0-86.8-17.2-86.8-39.6 0-2.4 1.6-4 4-4s4 1.6 4 4c0 15.2 31.6 31.6 78.8 31.6s78.8-16.4 78.8-31.6c0-2.4 1.6-4 4-4s4 1.6 4 4c0 22.4-38.4 39.6-86.8 39.6z"/><path d="M252.4 327c-48.8 0-86.8-17.2-86.8-39.6 0-2.4 1.6-4 4-4s4 1.6 4 4c0 15.2 31.6 31.6 78.8 31.6s78.8-16.4 78.8-31.6c0-2.4 1.6-4 4-4s4 1.6 4 4c0 22.4-38.4 39.6-86.8 39.6z"/><path d="M252.4 351c-48.8 0-86.8-17.2-86.8-39.6 0-2.4 1.6-4 4-4s4 1.6 4 4c0 15.2 31.6 31.6 78.8 31.6s78.8-16.4 78.8-31.6c0-2.4 1.6-4 4-4s4 1.6 4 4c0 22-38.4 39.6-86.8 39.6z"/><path d="M252.4 374.6c-48.8 0-86.8-17.2-86.8-39.6 0-2.4 1.6-4 4-4s4 1.6 4 4c0 15.2 31.6 31.6 78.8 31.6s78.8-16.4 78.8-31.6c0-2.4 1.6-4 4-4s4 1.6 4 4c0 22-38.4 39.6-86.8 39.6z"/><path d="M252.4 398.2c-48.8 0-86.8-17.2-86.8-39.6 0-2.4 1.6-4 4-4s4 1.6 4 4c0 15.2 31.6 31.6 78.8 31.6s78.8-16.4 78.8-31.6c0-2.4 1.6-4 4-4s4 1.6 4 4c0 22-38.4 39.6-86.8 39.6z"/><path d="M252.4 421.8c-48.8 0-86.8-17.2-86.8-39.6 0-2.4 1.6-4 4-4s4 1.6 4 4c0 15.2 31.6 31.6 78.8 31.6s78.8-16.4 78.8-31.6c0-2.4 1.6-4 4-4s4 1.6 4 4c0 22-38.4 39.6-86.8 39.6zM417.6 327c-48.8 0-86.8-17.2-86.8-39.6 0-2.4 1.6-4 4-4s4 1.6 4 4c0 15.2 31.6 31.6 78.8 31.6s78.8-16.4 78.8-31.6c0-2.4 1.6-4 4-4s4 1.6 4 4c0 22.4-38 39.6-86.8 39.6z"/><path d="M417.6 351c-48.8 0-86.8-17.2-86.8-39.6 0-2.4 1.6-4 4-4s4 1.6 4 4c0 15.2 31.6 31.6 78.8 31.6s78.8-16.4 78.8-31.6c0-2.4 1.6-4 4-4s4 1.6 4 4c0 22-38 39.6-86.8 39.6z"/><path d="M417.6 374.6c-48.8 0-86.8-17.2-86.8-39.6 0-2.4 1.6-4 4-4s4 1.6 4 4c0 15.2 31.6 31.6 78.8 31.6s78.8-16.4 78.8-31.6c0-2.4 1.6-4 4-4s4 1.6 4 4c0 22-38 39.6-86.8 39.6z"/><path d="M417.6 398.2c-48.8 0-86.8-17.2-86.8-39.6 0-2.4 1.6-4 4-4s4 1.6 4 4c0 15.2 31.6 31.6 78.8 31.6s78.8-16.4 78.8-31.6c0-2.4 1.6-4 4-4s4 1.6 4 4c0 22-38 39.6-86.8 39.6z"/><path d="M417.6 421.8c-48.8 0-86.8-17.2-86.8-39.6 0-2.4 1.6-4 4-4s4 1.6 4 4c0 15.2 31.6 31.6 78.8 31.6s78.8-16.4 78.8-31.6c0-2.4 1.6-4 4-4s4 1.6 4 4c0 22-38 39.6-86.8 39.6zM252.4 232.6c-48.8 0-86.8-17.2-86.8-39.6 0-22 38-39.6 86.8-39.6s86.8 17.2 86.8 39.6c0 22.4-38.4 39.6-86.8 39.6zm0-71.2c-47.2 0-78.8 16.4-78.8 31.6s31.6 31.6 78.8 31.6 78.8-16.4 78.8-31.6-32-31.6-78.8-31.6zm-165.6.4C38 161.8 0 144.6 0 122.2s38-39.6 86.8-39.6 86.8 17.2 86.8 39.6-38 39.6-86.8 39.6zm0-71.2C39.6 90.6 8 107 8 122.2s31.6 31.6 78.8 31.6 78.8-16.4 78.8-31.6S134 90.6 86.8 90.6zm330.8 212.8c-48.8 0-86.8-17.2-86.8-39.6 0-22 38-39.6 86.8-39.6s86.8 17.2 86.8 39.6c0 22.4-38 39.6-86.8 39.6zm0-70.8c-47.2 0-78.8 16.4-78.8 31.6s31.6 31.6 78.8 31.6 78.8-16.4 78.8-31.6-31.6-31.6-78.8-31.6z"/></svg>