<svg xmlns="http://www.w3.org/2000/svg" viewBox="0 0 512 512"><path d="M512 256c0 3.001-.088 5.914-.265 8.828a227.714 227.714 0 01-7.857 52.966 227.998 227.998 0 01-5.473 17.655 234.373 234.373 0 01-26.571 52.966c-4.061 6.091-8.474 12.006-13.065 17.655a237.894 237.894 0 01-185.114 88.276c-5.914 0-11.829-.177-17.655-.706V18.361c5.826-.53 11.741-.706 17.655-.706a237.888 237.888 0 01185.114 88.276 217.428 217.428 0 0113.065 17.655 234.353 234.353 0 0126.571 52.966 227.998 227.998 0 015.473 17.655 227.714 227.714 0 017.857 52.966c.177 2.913.265 5.826.265 8.827z" fill="#f18d46"/><g fill="#e57e25"><path d="M471.834 123.586h-83.421a8.828 8.828 0 010-17.656h70.356a217.147 217.147 0 0113.065 17.656zm0 264.828c-4.061 6.091-8.474 12.006-13.065 17.655h-70.356a8.828 8.828 0 010-17.656h83.421zm32.045-194.207H384.53a8.828 8.828 0 010-17.656h113.876a228.157 228.157 0 015.473 17.656zM512 256c0 3.001-.088 5.914-.265 8.828h-70.797a8.828 8.828 0 010-17.656h70.797c.177 2.914.265 5.827.265 8.828zm-8.121 61.793a227.998 227.998 0 01-5.473 17.655H384.53a8.828 8.828 0 010-17.656h119.349z"/><circle cx="238.345" cy="256" r="238.345"/></g><path d="M394.24 317.793a162.726 162.726 0 01-19.244 35.31h-74.858v-95.25l-61.793 75.476-61.793-75.476v95.25h-74.858a162.726 162.726 0 01-19.244-35.31h58.792V158.897l97.103 118.643 97.103-118.643v158.897h58.792z" fill="#e6e7e8"/><path d="M374.996 353.103c-31.411 44.298-82.347 70.621-136.651 70.621s-105.24-26.323-136.651-70.621h74.858v-95.25l61.793 75.476 61.793-75.476v95.25h74.858z" fill="#59474e"/><path d="M406.069 256a165.567 165.567 0 01-11.829 61.793h-58.792V158.897L238.345 277.54l-97.103-118.643v158.897H82.45C60.954 263.7 69.111 202.322 103.989 155.72c43.227-57.872 118.652-81.565 187.207-58.806S406.033 183.766 406.069 256z" fill="#f18d46"/><path d="M238.345 61.793a9.295 9.295 0 01-6.268-2.56 9.107 9.107 0 01-2.56-6.268 8.816 8.816 0 01.703-3.358 10.188 10.188 0 011.857-2.909 8.829 8.829 0 0115.096 6.267c-.02.591-.079 1.18-.177 1.763a5.775 5.775 0 01-.53 1.591 6.735 6.735 0 01-.797 1.591c-.349.44-.703.879-1.056 1.323a9.298 9.298 0 01-6.268 2.56zm0 406.069a9.295 9.295 0 01-6.268-2.56 9.107 9.107 0 01-2.56-6.268 8.816 8.816 0 01.703-3.358 10.156 10.156 0 011.858-2.909 8.827 8.827 0 0115.094 6.267c-.02.591-.079 1.18-.177 1.763a5.775 5.775 0 01-.53 1.591 6.735 6.735 0 01-.797 1.591c-.349.44-.703.879-1.056 1.323a9.294 9.294 0 01-6.267 2.56zM185.819 68.677a9.532 9.532 0 01-3.444-.616 9.04 9.04 0 01-2.823-1.944 8.845 8.845 0 010-12.448 7.755 7.755 0 012.823-1.94 8.983 8.983 0 019.625 1.94 8.643 8.643 0 010 12.448 8.541 8.541 0 01-6.181 2.56zm105.047 392.297a9.18 9.18 0 01-6.268-2.647 8.845 8.845 0 010-12.448 9.24 9.24 0 0112.534 0c.427.377.786.824 1.06 1.323.325.481.62.982.884 1.5.189.548.336 1.11.44 1.681.146.576.206 1.17.177 1.763a8.54 8.54 0 01-2.56 6.181c-.8.873-1.8 1.539-2.914 1.94a8.71 8.71 0 01-3.353.707zM136.828 88.979a8.674 8.674 0 01-3.358-.616 11.15 11.15 0 01-2.909-1.94 13.41 13.41 0 01-1.06-1.328 6.682 6.682 0 01-.797-1.586 5.616 5.616 0 01-.526-1.591 11.652 11.652 0 01-.177-1.767 8.806 8.806 0 01.703-3.353 7.982 7.982 0 014.767-4.767 8.468 8.468 0 015.121-.53 5.775 5.775 0 011.591.53 6.709 6.709 0 011.59.797c.44.353.879.703 1.323 1.056.778.86 1.405 1.845 1.854 2.914a7.398 7.398 0 01.707 3.353 12.173 12.173 0 01-.177 1.767 5.775 5.775 0 01-.53 1.591 6.682 6.682 0 01-.797 1.586c-.349.444-.703.884-1.056 1.328-.421.377-.862.73-1.323 1.056-.51.329-1.042.624-1.591.884-.518.188-1.05.336-1.591.444-.578.142-1.172.2-1.764.172zm203.034 351.694a8.743 8.743 0 01-8.124-12.18 8.206 8.206 0 011.857-2.914 8.809 8.809 0 019.621-1.854 10.09 10.09 0 012.914 1.854 8.95 8.95 0 010 12.534 10.203 10.203 0 01-2.914 1.854 8.837 8.837 0 01-3.354.706zM94.806 121.289a8.82 8.82 0 01-6.268-2.647 5.778 5.778 0 01-1.147-1.323c-.267-.444-.53-.974-.793-1.504a9.334 9.334 0 01-.444-1.677 5.448 5.448 0 01-.177-1.677 9.423 9.423 0 01.621-3.444 8.758 8.758 0 0114.388-2.823 7.681 7.681 0 011.94 2.823 9.575 9.575 0 01.707 3.444 10.497 10.497 0 01-.177 1.677 35.968 35.968 0 01-.53 1.677c-.263.53-.53 1.06-.793 1.504a5.754 5.754 0 01-1.147 1.323 7.7 7.7 0 01-2.828 1.94 8.723 8.723 0 01-3.352.707zm287.073 287.073a8.743 8.743 0 01-3.353-.616 8.94 8.94 0 01-2.823-1.944 8.649 8.649 0 01-2.651-6.268 8.807 8.807 0 01.707-3.353 9.451 9.451 0 014.767-4.767 9.003 9.003 0 019.621 1.944 8.53 8.53 0 012.56 6.177 8.739 8.739 0 01-2.56 6.268 8.592 8.592 0 01-6.268 2.559zM62.495 163.31a8.807 8.807 0 01-3.353-.707 10.275 10.275 0 01-2.914-1.854c-.353-.444-.703-.884-1.056-1.323a6.697 6.697 0 01-.797-1.591 5.753 5.753 0 01-.53-1.591 12.418 12.418 0 01-.177-1.763 9.295 9.295 0 012.56-6.268 10.216 10.216 0 012.914-1.858 8.102 8.102 0 016.711 0 8.282 8.282 0 012.914 1.858 9.286 9.286 0 012.556 6.268 9.127 9.127 0 01-2.556 6.268 8.333 8.333 0 01-2.914 1.854 8.794 8.794 0 01-3.358.707zm351.694 203.035a8.743 8.743 0 116.267-2.559 9.294 9.294 0 01-6.267 2.559zM42.194 212.302a8.628 8.628 0 01-6.181-2.647 8.54 8.54 0 01-2.556-6.181 9.532 9.532 0 01.616-3.444 7.746 7.746 0 011.94-2.823 3.966 3.966 0 011.328-1.06 8.404 8.404 0 011.5-.884 9.24 9.24 0 011.677-.44 8.744 8.744 0 0110.504 8.651 5.421 5.421 0 01-.177 1.677 9.08 9.08 0 01-.44 1.677c-.267.53-.53 1.06-.797 1.5-.31.5-.697.948-1.147 1.328a8.824 8.824 0 01-6.267 2.646zm392.297 105.047a8.743 8.743 0 01-8.827-8.827 8.53 8.53 0 012.56-6.177 8.95 8.95 0 0112.448 0 8.616 8.616 0 012.647 6.177 8.82 8.82 0 01-2.647 6.268 8.54 8.54 0 01-6.181 2.559zM35.31 264.828a8.832 8.832 0 01-3.358-.707 10.273 10.273 0 01-2.91-1.853 9.143 9.143 0 01-1.858-2.914 8.362 8.362 0 010-6.711 10.16 10.16 0 011.858-2.91 10.191 10.191 0 012.909-1.858 8.87 8.87 0 016.711 0 10.194 10.194 0 012.914 1.858 10.25 10.25 0 011.854 2.909 8.314 8.314 0 010 6.711 9.217 9.217 0 01-1.854 2.914 10.275 10.275 0 01-2.914 1.854 8.798 8.798 0 01-3.352.707zm406.069 0a8.743 8.743 0 116.267-2.559 9.294 9.294 0 01-6.267 2.559zM42.194 317.349a8.735 8.735 0 01-8.737-8.827 8.89 8.89 0 012.556-6.268 8.688 8.688 0 011.328-1.06 8.118 8.118 0 011.5-.793 9.553 9.553 0 011.677-.53 9.057 9.057 0 017.944 2.383c.43.431.814.905 1.147 1.414.267.44.53.97.797 1.5a9.24 9.24 0 01.44 1.677c.146.546.205 1.112.177 1.677a8.743 8.743 0 01-8.829 8.827zm392.297-105.047a8.82 8.82 0 01-6.268-2.647 8.54 8.54 0 01-2.56-6.181 8.739 8.739 0 012.56-6.268 9.13 9.13 0 0112.448 0 8.823 8.823 0 012.647 6.268 9.045 9.045 0 01-8.827 8.828zM62.495 366.345a8.807 8.807 0 01-3.353-.707 10.275 10.275 0 01-2.914-1.854 8.95 8.95 0 010-12.534 10.216 10.216 0 012.914-1.858 8.87 8.87 0 016.711 0 8.268 8.268 0 012.914 1.858 8.961 8.961 0 010 12.534 8.333 8.333 0 01-2.914 1.854 8.832 8.832 0 01-3.358.707zM414.189 163.31a8.743 8.743 0 116.267-2.559 9.284 9.284 0 01-6.267 2.559zM94.806 408.362a5.985 5.985 0 01-1.763-.177 11.446 11.446 0 01-1.681-.44c-.526-.267-.97-.53-1.5-.797a7.989 7.989 0 01-1.323-1.147 8.923 8.923 0 01-1.94-2.823 9.423 9.423 0 01-.621-3.444 8.655 8.655 0 01.62-3.354 8.912 8.912 0 011.94-2.823 8.24 8.24 0 011.323-1.151c.53-.263.974-.53 1.5-.793.53-.177 1.151-.353 1.681-.53a8.421 8.421 0 015.116.53 9.406 9.406 0 014.767 4.767c.455 1.06.695 2.2.707 3.353a9.196 9.196 0 01-.707 3.444 7.65 7.65 0 01-1.94 2.823 9.006 9.006 0 01-2.828 1.944 8.675 8.675 0 01-3.351.618zm287.073-287.073a8.728 8.728 0 01-3.353-.707 9.41 9.41 0 01-4.767-4.767 8.81 8.81 0 01-.707-3.353 8.66 8.66 0 012.651-6.268 8.664 8.664 0 0112.444 0 8.735 8.735 0 012.56 6.268 8.54 8.54 0 01-2.56 6.181 8.665 8.665 0 01-6.268 2.646zM136.828 440.673a8.832 8.832 0 01-3.358-.707 9.048 9.048 0 01-2.909-1.854 8.391 8.391 0 01-1.06-1.414 4.89 4.89 0 01-.797-1.5 5.321 5.321 0 01-.526-1.677 10.485 10.485 0 01-.177-1.677 9.274 9.274 0 012.56-6.268 10.066 10.066 0 012.909-1.854 8.437 8.437 0 015.121-.53 5.477 5.477 0 011.59.531 6.683 6.683 0 011.591.793c.462.327.904.681 1.323 1.06a8.272 8.272 0 011.854 2.914 7.398 7.398 0 01.707 3.353 10.978 10.978 0 01-.177 1.677 5.47 5.47 0 01-.53 1.677 4.89 4.89 0 01-.797 1.5c-.349.53-.703.97-1.056 1.414-.444.353-.884.707-1.323 1.06a6.646 6.646 0 01-1.591.793 5.753 5.753 0 01-1.591.53c-.583.103-1.172.162-1.763.179zM339.862 88.979a7.402 7.402 0 01-3.358-.703 8.475 8.475 0 01-5.469-8.125 8.806 8.806 0 01.703-3.353 10.213 10.213 0 011.857-2.914 9.153 9.153 0 019.621-1.854 10.275 10.275 0 012.914 1.854 8.956 8.956 0 010 12.539 9.217 9.217 0 01-2.914 1.854 7.413 7.413 0 01-3.354.702zM185.819 460.974a8.82 8.82 0 01-6.268-2.647 10.774 10.774 0 01-1.944-2.828 8.705 8.705 0 01-.616-3.353 9.532 9.532 0 01.616-3.444 10.748 10.748 0 011.944-2.823 8.815 8.815 0 017.944-2.383 9.441 9.441 0 011.677.444c.53.263 1.06.526 1.5.793.499.311.947.698 1.328 1.147a7.755 7.755 0 011.94 2.823 9.58 9.58 0 01.707 3.444 8.728 8.728 0 01-.707 3.353 7.77 7.77 0 01-1.94 2.828 5.734 5.734 0 01-1.328 1.147c-.44.263-.97.53-1.5.793-.53.177-1.056.353-1.677.53a10.6 10.6 0 01-1.676.176zM290.866 68.677a8.724 8.724 0 01-3.353-.616 10.614 10.614 0 01-2.914-1.944 8.845 8.845 0 010-12.448 9.064 9.064 0 0112.534 0 8.545 8.545 0 012.56 6.181 8.739 8.739 0 01-2.56 6.268 8.447 8.447 0 01-2.914 1.944 8.742 8.742 0 01-3.353.615z" fill="#f29c1f"/></svg>