<svg xmlns="http://www.w3.org/2000/svg" viewBox="0 0 511.966 511.966"><g transform="translate(1 1)"><path d="M502.433 254.983c0 2.901-.085 5.717-.256 8.533a220.13 220.13 0 01-7.595 51.2 220.13 220.13 0 01-5.291 17.067 226.562 226.562 0 01-25.685 51.2c-3.925 5.888-8.192 11.605-12.629 17.067a229.963 229.963 0 01-178.944 85.333c-5.717 0-11.435-.171-17.067-.683V25.266c5.632-.512 11.349-.683 17.067-.683a229.963 229.963 0 01178.944 85.333 209.696 209.696 0 0112.629 17.067 226.52 226.52 0 0125.685 51.2 220.13 220.13 0 015.291 17.067 220.182 220.182 0 017.595 51.2c.171 2.816.256 5.632.256 8.533z" fill="#c52828"/><circle cx="237.9" cy="254.983" r="230.4" fill="#d84315"/><ellipse cx="225.1" cy="254.983" rx="217.6" ry="230.4" fill="#ff5722"/><path d="M237.9 417.117c-89.544 0-162.133-72.59-162.133-162.133S148.356 92.85 237.9 92.85s162.133 72.59 162.133 162.133c-.102 89.502-72.632 162.032-162.133 162.134z" fill="#cfd8dc"/><path d="M348.833 306.183c0 23.564-19.103 42.667-42.667 42.667s-42.667-19.103-42.667-42.667c.008-3.039.322-6.069.939-9.045L237.9 270.599l-26.539 26.539a45.21 45.21 0 01.939 9.045c0 23.564-19.103 42.667-42.667 42.667s-42.667-19.103-42.667-42.667 19.103-42.667 42.667-42.667a41.97 41.97 0 0121.333 5.717l29.867-29.867V217.35c-18.518-8.082-28.828-28.044-24.7-47.822s21.562-33.949 41.767-33.949 37.639 14.171 41.767 33.949-6.182 39.74-24.7 47.822v22.016l29.867 29.867a41.97 41.97 0 0121.333-5.717c23.56.009 42.657 19.107 42.666 42.667z" fill="#ff5722"/></g><path d="M409.566 255.983c-.268-80.314-56.264-149.674-134.717-166.867a173.444 173.444 0 00-34.096-3.729l-.504.025a22.15 22.15 0 00-1.383-.096c-93.882-.002-170.131 75.835-170.637 169.715-.507 93.88 74.919 170.536 168.796 171.547l.929.012c.35.029.796.058.983.058a172.595 172.595 0 0037.579-4.117c1.475-.329 2.946-.708 5.058-1.254 75.378-19.445 128.035-87.448 127.992-165.294zM272.787 405.879a156.315 156.315 0 01-33.037 3.742l-.563-.054a9.621 9.621 0 00-.7-.037l-1.258-.017c-84.313-.937-152.106-69.669-151.884-153.986s68.376-152.691 152.692-153.185c.237.025 1.029.092 1.267.096l1.242.017c84.273.634 152.189 69.254 151.954 153.529-.001 70.201-47.576 131.478-115.587 148.875-1.522.391-2.826.728-4.126 1.02zM231.046 62.958a6.48 6.48 0 00.771 1.538c.341.425.683.85 1.025 1.279a9.913 9.913 0 002.813 1.792 8.04 8.04 0 006.487 0 9.933 9.933 0 002.817-1.792c.366-.405.707-.833 1.021-1.279.324-.476.583-.993.771-1.538a5.536 5.536 0 00.512-1.538c.098-.563.155-1.133.171-1.704a8.528 8.528 0 00-.683-3.246 8.841 8.841 0 00-1.791-2.813 8.685 8.685 0 00-9.304-1.796 9.82 9.82 0 00-2.813 1.796 8.771 8.771 0 00-1.796 2.813 8.543 8.543 0 00-.679 3.246c.013.572.071 1.141.171 1.704.089.536.261 1.054.507 1.538zm13.912 383.233a9.86 9.86 0 00-2.817-1.796 7.829 7.829 0 00-6.487 0 7.746 7.746 0 00-4.608 4.608 8.526 8.526 0 00-.68 3.247 8.967 8.967 0 002.475 6.059 9.913 9.913 0 002.813 1.792 8.04 8.04 0 006.487 0 7.69 7.69 0 004.608-4.608 8.04 8.04 0 000-6.487 9.906 9.906 0 00-1.791-2.815zM182.066 72.429a8.209 8.209 0 002.817 1.879 8.44 8.44 0 003.242.596 5.243 5.243 0 001.621-.171 8.811 8.811 0 001.621-.425c.513-.258 1.025-.513 1.45-.771.483-.3.916-.674 1.283-1.108a7.445 7.445 0 001.875-2.729 8.872 8.872 0 00.683-3.329 8.344 8.344 0 00-2.558-5.975 5.525 5.525 0 00-1.283-1.108 21.778 21.778 0 00-1.45-.767c-.513-.171-1.021-.341-1.621-.513a8.633 8.633 0 00-4.862.513 7.13 7.13 0 00-2.817 1.875 8.266 8.266 0 00-2.475 5.975 8.868 8.868 0 00.596 3.329 8.688 8.688 0 001.878 2.729zm113.663 379.138a8.257 8.257 0 002.475-5.975 8.445 8.445 0 00-2.475-6.059 8.704 8.704 0 00-9.3-1.875 10.168 10.168 0 00-2.817 1.875 8.436 8.436 0 00-1.792 2.729 9.346 9.346 0 00-.683 3.329 8.62 8.62 0 002.475 5.975 8.452 8.452 0 0012.117.001zM134.708 92.058a8.664 8.664 0 0012.117 0 8.055 8.055 0 001.792-2.817 8.523 8.523 0 00.683-3.245 8.533 8.533 0 00-17.066 0 8.543 8.543 0 00.679 3.246 7.994 7.994 0 001.795 2.816zm205.567 326.059a7.946 7.946 0 00-4.862-.513 5.029 5.029 0 00-1.625.513 6.508 6.508 0 00-1.533.767 12.74 12.74 0 00-1.28 1.025 7.932 7.932 0 00-1.796 2.817 8.504 8.504 0 00-.679 3.242c.014.544.071 1.086.171 1.621.079.565.25 1.112.508 1.621a4.71 4.71 0 00.771 1.45c.341.513.683.937 1.025 1.367.425.341.85.683 1.279 1.025.475.322.991.58 1.533.767.51.258 1.059.431 1.625.513.535.098 1.077.155 1.621.171a8.967 8.967 0 006.059-2.475c.341-.429.683-.854 1.021-1.367a4.71 4.71 0 00.771-1.45 5.279 5.279 0 00.513-1.621c.098-.535.155-1.077.171-1.621a8.979 8.979 0 00-2.475-6.059 8.756 8.756 0 00-2.818-1.793zM96.816 125.079a8.872 8.872 0 003.329.683 8.448 8.448 0 003.242-.683 7.452 7.452 0 002.733-1.875 8.354 8.354 0 000-12.034 8.38 8.38 0 00-12.034 0 8.55 8.55 0 000 12.033 7.44 7.44 0 002.73 1.876zm284.163 261.804a8.704 8.704 0 00-9.3 1.879 8.308 8.308 0 00-2.562 5.971c.016.573.073 1.144.171 1.708.171.512.341 1.108.512 1.621.254.513.513.938.767 1.45a14.4 14.4 0 001.113 1.279 8.248 8.248 0 005.971 2.475 9.186 9.186 0 003.329-.596 8.63 8.63 0 002.729-1.879c.395-.403.765-.83 1.108-1.279.258-.513.513-.937.771-1.45.182-.529.324-1.071.425-1.621a5.852 5.852 0 00.171-1.708 8.248 8.248 0 00-2.475-5.971 7.43 7.43 0 00-2.73-1.879zM64.221 164.929c.435.34.925.601 1.45.771a5.279 5.279 0 001.621.513c.535.098 1.077.155 1.621.171a8.442 8.442 0 008.533-8.533 7.161 7.161 0 00-.679-3.246 9.913 9.913 0 00-1.792-2.813 8.01 8.01 0 00-2.816-1.796 8.386 8.386 0 00-9.217 1.796 8.834 8.834 0 00-2.562 6.059 8.69 8.69 0 002.562 6.059c.39.381.819.723 1.279 1.019zm350.72 183.129c-.425-.341-.85-.683-1.367-1.025a4.764 4.764 0 00-1.45-.771 5.102 5.102 0 00-1.625-.508 8.236 8.236 0 00-9.467 5.117 8.445 8.445 0 00-.683 3.246c.013.572.071 1.141.171 1.704.091.536.264 1.054.513 1.537.184.545.442 1.062.767 1.538.317.446.659.873 1.025 1.279a8.81 8.81 0 006.059 2.475 10.713 10.713 0 001.617-.171 5.222 5.222 0 001.625-.513 4.764 4.764 0 001.45-.771 16.57 16.57 0 001.367-1.021c.341-.429.683-.854 1.025-1.279a6.64 6.64 0 00.767-1.538 5.279 5.279 0 00.508-1.538c.103-.563.162-1.132.174-1.704a8.528 8.528 0 00-.683-3.246 8.793 8.793 0 00-1.793-2.811zM43.312 199.15a8.313 8.313 0 00-1.875 9.3 7.492 7.492 0 001.875 2.733 8.344 8.344 0 005.975 2.558 8.872 8.872 0 003.329-.683 7.437 7.437 0 002.729-1.875 8.748 8.748 0 001.879-2.733 8.797 8.797 0 00-1.879-9.3 8.824 8.824 0 00-12.033 0zm385.196 116.137a8.257 8.257 0 005.975-2.475 8.559 8.559 0 000-12.116c-.341-.341-.858-.683-1.283-1.025a4.667 4.667 0 00-1.45-.767 5.247 5.247 0 00-1.617-.513 10.892 10.892 0 00-3.333 0 6.06 6.06 0 00-1.617.513 4.646 4.646 0 00-1.45.767 8.173 8.173 0 00-1.283 1.025 10.139 10.139 0 00-1.875 2.817 8.78 8.78 0 001.875 9.3 8.306 8.306 0 006.058 2.474zM44.337 264.346a5.602 5.602 0 001.538-.512 4.71 4.71 0 001.45-.771c.49-.291.948-.633 1.367-1.021a8.653 8.653 0 000-12.117 8.535 8.535 0 00-14.592 6.058 8.451 8.451 0 008.533 8.533 11.739 11.739 0 001.704-.17zm384.771-14.421a8.943 8.943 0 00-2.475 6.059 8.546 8.546 0 00.683 3.242 9.862 9.862 0 001.792 2.817c.403.367.829.708 1.275 1.021.477.324.996.583 1.542.771.483.245 1 .418 1.533.513.565.094 1.136.151 1.708.171a11.922 11.922 0 001.708-.171 5.637 5.637 0 001.533-.512 6.465 6.465 0 001.533-.771c.449-.313.877-.654 1.284-1.021a9.862 9.862 0 001.792-2.817 8.546 8.546 0 00.683-3.242 8.534 8.534 0 00-14.591-6.06zM55.346 300.783a7.407 7.407 0 00-2.729-1.879 8.677 8.677 0 00-9.304 1.879 7.445 7.445 0 00-1.875 2.729 8.313 8.313 0 001.875 9.3 8.266 8.266 0 005.975 2.475 8.868 8.868 0 003.329-.596 8.66 8.66 0 005.204-7.938 8.436 8.436 0 00-.596-3.241 8.719 8.719 0 00-1.879-2.729zm367.104-89.516c.392.384.822.727 1.283 1.025.434.339.925.599 1.45.767a5.81 5.81 0 001.617.513c.564.1 1.135.157 1.708.171a10.308 10.308 0 001.625-.171 5.009 5.009 0 001.617-.513 4.646 4.646 0 001.45-.767c.425-.341.942-.683 1.283-1.025a8.45 8.45 0 000-12.116 8.826 8.826 0 00-12.033 0 8.778 8.778 0 00-1.875 9.3 10.134 10.134 0 001.875 2.816zM72.158 346.262a8.386 8.386 0 00-9.217 1.796 8.535 8.535 0 005.97 14.592 8.528 8.528 0 003.246-.683 8.058 8.058 0 002.816-1.791 8.664 8.664 0 000-12.117 7.977 7.977 0 00-2.815-1.797zm330.667-182.354a8.81 8.81 0 006.059 2.475 10.713 10.713 0 001.617-.171 5.247 5.247 0 001.625-.512 4.764 4.764 0 001.45-.771c.492-.289.95-.632 1.367-1.021a7.995 7.995 0 001.792-2.817 8.04 8.04 0 000-6.487 9.842 9.842 0 00-1.792-2.813c-.425-.341-.85-.683-1.367-1.025a4.764 4.764 0 00-1.45-.771 5.102 5.102 0 00-1.625-.508 8.235 8.235 0 00-9.467 5.117 8.04 8.04 0 000 6.487 7.964 7.964 0 001.791 2.817zM103.387 386.883a8.747 8.747 0 00-6.571 0 7.46 7.46 0 00-2.729 1.879 8.545 8.545 0 000 12.029 8.674 8.674 0 002.729 1.879 8.892 8.892 0 003.329.596 8.426 8.426 0 003.242-.596 8.692 8.692 0 002.733-1.879 8.347 8.347 0 000-12.03 7.475 7.475 0 00-2.733-1.878zM377.65 125.762a8.529 8.529 0 006.059-2.558 8.257 8.257 0 002.475-5.975 8.445 8.445 0 00-2.475-6.059 8.635 8.635 0 00-2.729-1.875 8.747 8.747 0 00-6.571 0 8.635 8.635 0 00-2.729 1.875 8.576 8.576 0 005.97 14.592zM146.825 419.909a8.933 8.933 0 00-12.117 0 7.932 7.932 0 00-1.796 2.817 8.071 8.071 0 000 6.483 9.853 9.853 0 001.796 2.817 8.653 8.653 0 0012.117 0 9.92 9.92 0 001.792-2.817 8.03 8.03 0 000-6.483 7.972 7.972 0 00-1.792-2.817zM329.179 89.242c.188.543.447 1.059.771 1.533l1.025 1.283c.405.366.832.707 1.279 1.021.492.317 1.005.602 1.533.854a9.11 9.11 0 001.625.429 5.368 5.368 0 001.621.167 8.59 8.59 0 006.059-2.471c.341-.429.683-.854 1.021-1.283.324-.475.583-.99.771-1.533a5.571 5.571 0 00.513-1.538c.098-.565.155-1.136.171-1.708a8.995 8.995 0 00-2.475-6.059 8.88 8.88 0 00-2.817-1.792 7.976 7.976 0 00-4.862-.513 5.222 5.222 0 00-1.625.513 6.522 6.522 0 00-1.533.771c-.429.341-.854.679-1.279 1.021a8.977 8.977 0 00-2.475 6.059c.013.573.07 1.144.171 1.708.089.535.26 1.053.506 1.538zM194.1 439.533a5.525 5.525 0 00-1.283-1.108 20.057 20.057 0 00-1.45-.767 9.09 9.09 0 00-1.621-.429 8.575 8.575 0 00-4.862.429 8.156 8.156 0 00-2.817 1.875 8.764 8.764 0 00-1.879 2.729 9.186 9.186 0 00-.596 3.329c-.028.546.03 1.093.171 1.621.089.553.231 1.096.425 1.621.235.512.521 1 .854 1.454.246.495.596.931 1.025 1.279a7.085 7.085 0 002.817 1.875 8.448 8.448 0 003.242.683 10.258 10.258 0 001.621-.171 35.38 35.38 0 001.621-.513 21.321 21.321 0 001.45-.767 5.525 5.525 0 001.283-1.108 5.574 5.574 0 001.108-1.279 7.98 7.98 0 00.767-1.454 8.752 8.752 0 00.513-1.621c.1-.535.157-1.077.171-1.621a9.255 9.255 0 00-.683-3.329 7.545 7.545 0 00-1.877-2.728zM281.821 69.7c.223.5.479.984.767 1.45l1.025 1.279c.828.778 1.78 1.413 2.817 1.879a8.797 8.797 0 009.3-1.879 6.579 6.579 0 001.025-1.279c.315-.465.601-.949.854-1.45.182-.529.324-1.071.425-1.621a5.557 5.557 0 00.171-1.708 5.243 5.243 0 00-.171-1.621 8.832 8.832 0 00-.425-1.621 8.152 8.152 0 00-.854-1.45 3.728 3.728 0 00-1.025-1.283 8.71 8.71 0 00-9.3-1.875 8.59 8.59 0 00-2.817 1.875 8.386 8.386 0 00-1.025 1.283 7.914 7.914 0 00-.767 1.45 9.194 9.194 0 00-.512 1.621 8.187 8.187 0 000 3.329c.132.552.303 1.093.512 1.621z"/><path d="M500.941 184.226a238.409 238.409 0 00-35.961-70.348c-.132-.15-.203-.344-.345-.484-45.036-60.61-116.092-96.339-191.602-96.344-6.489 0-12.147.23-17.333.684-4.529-.307-9.041-.521-13.496-.559a32.249 32.249 0 00-3.304-.125C107.607 17.04.914 122.99.006 254.28s104.309 238.705 235.59 240.512c1.099.098 2.201.14 3.304.125 5.711 0 11.396-.271 17.062-.667 5.119.439 10.686.667 17.071.667 75.51-.005 146.566-35.734 191.602-96.344.142-.14.213-.334.345-.484a238.409 238.409 0 0035.961-70.348c.085-.188.126-.387.197-.582a239.332 239.332 0 000-142.351c-.071-.195-.112-.394-.197-.582zm-14.277 131.491h-16.391a239.248 239.248 0 007.201-51.2h17.209a220.838 220.838 0 01-8.019 51.2zm-32.582 68.266h-13.491a238.722 238.722 0 0024.543-51.2h16.046a221.38 221.38 0 01-27.098 51.2zm27.098-204.8h-16.309a240.172 240.172 0 00-24.769-51.2h13.98a221.46 221.46 0 0127.098 51.2zm-3.723 68.267a236.25 236.25 0 00-7.357-51.2h16.564a220.838 220.838 0 018.019 51.2h-17.226zm-36.768-136.534h-12.523a240.99 240.99 0 00-58.809-54.774 223.126 223.126 0 0171.332 54.774zm-204.177 366.85C114.46 476.469 16.386 376.811 17.043 254.754 17.7 132.697 116.84 34.101 238.9 34.116h.35c.463 0 .996.009 2.033.083 121.7.996 219.756 100.079 219.483 221.783.019 101.313-68.586 189.774-166.717 214.967-2.104.542-4.212 1.087-6.325 1.558a223.776 223.776 0 01-48.825 5.342c-.574-.003-1.091.009-2.387-.083zm135.525-23.316a238.853 238.853 0 0056.713-53.4h11.939a223.158 223.158 0 01-68.652 53.4z"/><path d="M307.166 255.983a51.083 51.083 0 00-19.628 3.889L264.5 236.833v-13.39c20.069-11.587 29.853-35.208 23.855-57.592s-26.282-37.948-49.455-37.948-43.458 15.565-49.455 37.948c-5.998 22.384 3.787 46.005 23.855 57.592v13.39l-23.039 23.039c-20.836-8.653-44.88-2.651-59.206 14.779s-15.558 42.18-3.034 60.947 35.852 27.127 57.445 20.587c21.592-6.54 36.362-26.44 36.368-49.001a52.738 52.738 0 00-.387-6.063l17.454-17.454 17.454 17.454a52.514 52.514 0 00-.387 6.063c0 28.277 22.923 51.2 51.2 51.2 28.277 0 51.2-22.923 51.2-51.2-.002-28.278-22.925-51.201-51.202-51.201zm0 85.333c-18.842-.022-34.112-15.291-34.133-34.133a36.61 36.61 0 01.763-7.329c.016-.278.017-.556.003-.833a8.238 8.238 0 00.006-1.734 8.051 8.051 0 00-.91-3.039 8.369 8.369 0 00-.964-1.451 7.776 7.776 0 00-.46-.693l-26.538-26.538a8.529 8.529 0 00-12.066 0l-26.537 26.537a8.011 8.011 0 00-.461.693 8.29 8.29 0 00-.963 1.449 8.046 8.046 0 00-.91 3.039 8.257 8.257 0 00.006 1.736c-.014.277-.012.555.003.833.5 2.411.756 4.867.763 7.33 0 18.851-15.282 34.133-34.133 34.133S136.5 326.035 136.5 307.183c0-18.851 15.282-34.133 34.133-34.133a33.508 33.508 0 0117.004 4.538c.188.11.4.11.592.205a8.146 8.146 0 001.643.567 8.297 8.297 0 001.538.299c.188.012.367.108.556.108a8.782 8.782 0 001.065-.207 6.29 6.29 0 002.997-.983 8.237 8.237 0 001.456-.967c.16-.138.363-.19.515-.342l29.867-29.867c1.6-1.6 2.5-3.77 2.5-6.033V218.35a8.093 8.093 0 00-.213-1.056 8.51 8.51 0 00-.43-2.13 49.7 49.7 0 00-1.782-2.737 8.523 8.523 0 00-1.774-1.257 8.006 8.006 0 00-.876-.62c-14.832-6.448-23.103-22.419-19.81-38.253 3.293-15.834 17.246-27.184 33.418-27.184s30.126 11.35 33.418 27.184c3.293 15.834-4.978 31.805-19.81 38.253a8.006 8.006 0 00-.876.62 8.486 8.486 0 00-1.774 1.257 49.7 49.7 0 00-1.782 2.737 8.518 8.518 0 00-.43 2.13 7.899 7.899 0 00-.213 1.056v22.017a8.537 8.537 0 002.5 6.033l29.867 29.867c.154.154.359.207.521.346.446.37.93.691 1.443.958.905.58 1.942.921 3.014.99.347.09.699.158 1.055.205.187 0 .363-.095.549-.107a8.255 8.255 0 001.564-.305 8.205 8.205 0 001.621-.561c.193-.095.407-.095.595-.206a33.51 33.51 0 0117.004-4.536c18.851 0 34.133 15.282 34.133 34.133.002 18.851-15.28 34.132-34.132 34.132z"/></svg>