<svg xmlns="http://www.w3.org/2000/svg" viewBox="0 0 504 504"><path d="M252 4C115.2 4 4 115.2 4 252s111.2 248 248 248 248-111.2 248-248S388.8 4 252 4z" fill="#bc3f2c"/><path d="M141.6 328c-8.8 0-11.6 7.2-11.6 16s3.2 16 11.6 16H160v34c0 8.8 7.2 11.6 16 11.6s16-3.2 16-11.6v-34h95.6c8.8 0 15.6-7.2 15.6-16s-11.2-16-19.6-16H192v-28h92.4c52.4 0 95.2-41.6 95.2-93.2 0-52.4-42.8-94.8-95.2-94.8H177.2c-8.8 0-17.2 4.8-17.2 13.6V268h-18.4c-8.8 0-11.6 7.2-11.6 16s3.2 16 11.6 16H160v28h-18.4zM192 140h92.4c35.2 0 67.6 29.6 67.6 64.8 0 35.2-28 63.2-63.6 63.2H192V140z" fill="#f4efef"/><path d="M174 409.6c-11.2 0-20-8.8-20-19.6v-24h-8.4c-10.8 0-19.6-8.8-19.6-20s8.8-20 19.6-20h8.4v-20h-8.4c-10.8 0-19.6-8.8-19.6-20s8.8-20 19.6-20h8.4V121.6c0-2.8 1.2-5.2 2.8-7.2 4.8-4.8 14-4.8 21.6-4.4H288c54.8 0 99.2 44.4 99.2 98.8 0 53.6-44.4 97.2-99.2 97.2h-94v20h93.6c10.8 0 19.6 8.8 19.6 20s-8.8 20-19.6 20H194v24c0 10.8-8.8 19.6-20 19.6zM145.6 334c-6.4 0-11.6 5.6-11.6 12s5.2 12 11.6 12H158c2.4 0 4 1.6 4 4v28c0 6.4 5.6 11.6 12 11.6s12-5.2 12-11.6v-28c0-2.4 1.6-4 4-4h97.6c6.4 0 11.6-5.6 11.6-12s-5.2-12-11.6-12H190c-2.4 0-4-1.6-4-4v-28c0-2.4 1.6-4 4-4h98c50.4 0 91.2-40 91.2-89.2 0-50-40.8-90.8-91.2-90.8H178.4c-5.2 0-13.6 0-16 2.4-.4.4-.4.8-.4 1.6v148.4c0 2.4-1.6 4-4 4h-12.4c-6.4 0-11.6 5.6-11.6 12s5.2 12 11.6 12H158c2.4 0 4 1.6 4 4v28c0 2.4-1.6 4-4 4h-12.4v-.4zM288 274h-98c-2.4 0-4-1.6-4-4V142c0-2.4 1.6-4 4-4h98c37.2 0 67.6 30.8 67.6 68.8C356 244.4 326 274 288 274zm-94-8h94c33.6 0 59.6-26 59.6-59.2 0-33.6-26.8-60.8-59.6-60.8h-94v120z"/><path d="M252 504C113.2 504 0 390.8 0 252S113.2 0 252 0s252 113.2 252 252-113.2 252-252 252zm0-496C117.6 8 8 117.6 8 252s109.6 244 244 244 244-109.6 244-244S386.4 8 252 8z"/><path d="M252 472.4c-121.6 0-220.4-98.8-220.4-220.4S130.4 31.6 252 31.6c51.6 0 101.6 18 141.2 51.2 1.6 1.6 2 4 .4 5.6s-4 2-5.6.4c-38-31.6-86.4-49.2-136-49.2-117.2 0-212.4 95.2-212.4 212.4S134.8 464.4 252 464.4 464.4 369.2 464.4 252c0-49.6-17.6-98-49.2-136-1.6-1.6-1.2-4.4.4-5.6 1.6-1.6 4.4-1.2 5.6.4 32.8 39.6 51.2 89.6 51.2 141.2 0 121.6-98.8 220.4-220.4 220.4z"/></svg>