<svg xmlns="http://www.w3.org/2000/svg" viewBox="0 0 511.966 511.966"><g transform="translate(1 1)"><path d="M502.433 254.983c0 2.901-.085 5.717-.256 8.533a220.13 220.13 0 01-7.595 51.2 220.13 220.13 0 01-5.291 17.067 226.562 226.562 0 01-25.685 51.2c-3.925 5.888-8.192 11.605-12.629 17.067a229.963 229.963 0 01-178.944 85.333c-5.717 0-11.435-.171-17.067-.683V25.266c5.632-.512 11.349-.683 17.067-.683a229.963 229.963 0 01178.944 85.333 209.696 209.696 0 0112.629 17.067 226.52 226.52 0 0125.685 51.2 220.13 220.13 0 015.291 17.067 220.182 220.182 0 017.595 51.2c.171 2.816.256 5.632.256 8.533z" fill="#3f51b5"/><circle cx="237.9" cy="254.983" r="230.4" fill="#0377bc"/><ellipse cx="225.1" cy="254.983" rx="217.6" ry="230.4" fill="#02a9f4"/><path d="M237.9 417.117c-89.544 0-162.133-72.59-162.133-162.133S148.356 92.85 237.9 92.85s162.133 72.59 162.133 162.133c-.102 89.502-72.632 162.032-162.133 162.134z" fill="#cfd8dc"/><path fill="#fec108" d="M306.166 234.759L237.9 201.053v-74.07z"/><path fill="#ffeb3a" d="M237.9 126.983v74.07l-68.267 33.706z"/><path fill="#fec108" d="M306.166 275.207L237.9 382.983v-74.069z"/><path fill="#ffeb3a" d="M237.9 308.914v74.069l-68.267-107.776z"/><path fill="#f57c00" d="M306.166 234.776L237.9 268.457l-68.267-33.681 68.267-33.689z"/></g><path d="M409.566 255.983c-.268-80.314-56.264-149.674-134.717-166.867a173.444 173.444 0 00-34.096-3.729l-.504.025a22.15 22.15 0 00-1.383-.096c-93.882-.002-170.131 75.835-170.637 169.715-.507 93.88 74.919 170.536 168.796 171.547l.929.012c.35.029.796.058.983.058a172.595 172.595 0 0037.579-4.117c1.475-.329 2.946-.708 5.058-1.254 75.378-19.445 128.035-87.448 127.992-165.294zM272.787 405.879a156.315 156.315 0 01-33.037 3.742l-.563-.054a9.621 9.621 0 00-.7-.037l-1.258-.017c-84.313-.937-152.106-69.669-151.884-153.986s68.376-152.691 152.692-153.185c.237.025 1.029.092 1.267.096l1.242.017c84.273.634 152.189 69.254 151.954 153.529-.001 70.201-47.576 131.478-115.587 148.875-1.522.391-2.826.728-4.126 1.02zM238.9 68.25a8.546 8.546 0 003.242-.683 9.952 9.952 0 002.817-1.791 8.993 8.993 0 002.475-6.059 8.528 8.528 0 00-.683-3.246 8.841 8.841 0 00-1.791-2.813 9.86 9.86 0 00-2.817-1.796 8.523 8.523 0 00-9.301 1.796 8.771 8.771 0 00-1.796 2.813 8.543 8.543 0 00-.679 3.246 8.451 8.451 0 008.533 8.533zm6.058 377.941a9.86 9.86 0 00-2.817-1.796 8.684 8.684 0 00-9.301 1.796 9.841 9.841 0 00-1.796 2.813 8.543 8.543 0 00-.679 3.246 8.451 8.451 0 008.533 8.533 8.546 8.546 0 003.242-.683 9.933 9.933 0 002.817-1.792 8.986 8.986 0 002.475-6.058 8.528 8.528 0 00-.683-3.246 8.807 8.807 0 00-1.791-2.813zM182.066 72.429a8.595 8.595 0 006.059 2.475 8.257 8.257 0 005.975-2.475 8.523 8.523 0 002.558-6.059 10.258 10.258 0 00-.171-1.621 8.876 8.876 0 00-.513-1.621 7.825 7.825 0 00-.767-1.45 5.55 5.55 0 00-1.108-1.284 8.745 8.745 0 00-12.033 0 8.266 8.266 0 00-2.475 5.975 8.868 8.868 0 00.596 3.329 8.693 8.693 0 001.879 2.731zm113.663 379.138a3.78 3.78 0 001.025-1.279c.333-.455.619-.942.854-1.454a8.635 8.635 0 00.425-1.621 5.243 5.243 0 00.171-1.621 8.445 8.445 0 00-2.475-6.059 8.376 8.376 0 00-12.03 0 8.527 8.527 0 00-2.562 6.059 8.342 8.342 0 002.562 5.975 7.405 7.405 0 002.729 1.875 8.315 8.315 0 009.301-1.875zM132.912 89.242c.188.543.447 1.059.771 1.533l1.025 1.283c.382.392.812.735 1.279 1.021.492.317 1.005.602 1.533.854.501.182 1.015.325 1.538.429a5.953 5.953 0 001.708.167 8.37 8.37 0 003.242-.596 12.512 12.512 0 002.817-1.875 8.846 8.846 0 002.475-6.063 7.161 7.161 0 00-.683-3.242 7.69 7.69 0 00-4.608-4.608 8.19 8.19 0 00-4.95-.513 5.571 5.571 0 00-1.538.513 6.522 6.522 0 00-1.533.771c-.429.341-.854.679-1.279 1.021a9.86 9.86 0 00-1.796 2.817 8.523 8.523 0 00-.679 3.242c.013.573.07 1.144.171 1.708.09.535.262 1.054.507 1.538zm210.18 330.667a8.61 8.61 0 00-7.767-2.304 5.327 5.327 0 00-1.538.512 7.928 7.928 0 00-2.813 1.792 7.932 7.932 0 00-1.796 2.817 8.504 8.504 0 00-.679 3.242 8.967 8.967 0 002.475 6.059c.425.341.85.683 1.279 1.025.475.322.991.58 1.533.767a5.536 5.536 0 001.538.512c.565.094 1.136.151 1.708.171a8.451 8.451 0 008.533-8.533 7.145 7.145 0 00-.683-3.242 7.957 7.957 0 00-1.79-2.818zM96.816 125.079a8.872 8.872 0 003.329.683 8.448 8.448 0 003.242-.683 7.452 7.452 0 002.733-1.875 8.354 8.354 0 000-12.034 8.38 8.38 0 00-12.034 0 8.55 8.55 0 000 12.033 7.44 7.44 0 002.73 1.876zm274.863 263.683a8.308 8.308 0 00-2.562 5.971 8.517 8.517 0 002.562 6.059 8.248 8.248 0 005.971 2.475 8.868 8.868 0 003.329-.596 8.62 8.62 0 002.729-1.879 8.45 8.45 0 002.475-6.059 8.248 8.248 0 00-2.475-5.971 8.647 8.647 0 00-12.029 0zM61.062 161.092a4.71 4.71 0 00.771 1.45c.341.513.679.937 1.021 1.367a8.998 8.998 0 006.059 2.475 8.844 8.844 0 006.062-2.474 8.316 8.316 0 001.021-1.367c.34-.435.601-.926.771-1.45a5.571 5.571 0 00.513-1.538c.097-.563.152-1.133.167-1.704a8.53 8.53 0 00-14.592-6.058 8.981 8.981 0 00-2.475 6.059c.016.571.073 1.141.171 1.704a5.51 5.51 0 00.511 1.536zm341.763 186.966a8.964 8.964 0 00-2.475 6.059 8.807 8.807 0 002.475 6.059 8.653 8.653 0 0012.117 0 8.805 8.805 0 002.475-6.059 8.534 8.534 0 00-14.592-6.059zM55.346 199.15a8.826 8.826 0 00-12.033 0 7.478 7.478 0 00-1.875 2.729 9.346 9.346 0 00-.683 3.329 8.875 8.875 0 002.558 6.059 8.55 8.55 0 0012.033 0 10.251 10.251 0 001.88-2.817 8.44 8.44 0 00.596-3.242 9.186 9.186 0 00-.596-3.329 8.784 8.784 0 00-1.88-2.729zm373.162 116.137a8.257 8.257 0 005.975-2.475 8.313 8.313 0 001.875-9.3 7.397 7.397 0 00-1.875-2.729 8.652 8.652 0 00-12.033 0 8.248 8.248 0 00-2.475 5.971 8.587 8.587 0 002.475 6.059 8.306 8.306 0 006.058 2.474zM48.692 262.042a9.92 9.92 0 001.792-2.817 8.04 8.04 0 000-6.487 9.913 9.913 0 00-1.792-2.813 8.933 8.933 0 00-12.117 0 8.771 8.771 0 00-1.796 2.813 8.081 8.081 0 000 6.487 8.831 8.831 0 001.795 2.817 8.654 8.654 0 0012.118 0zm383.229-13.913a9.833 9.833 0 00-2.813 1.796 8.653 8.653 0 000 12.117 9.913 9.913 0 002.813 1.792c1.027.438 2.13.67 3.246.683a8.57 8.57 0 006.059-14.592 8.56 8.56 0 00-9.305-1.796zM43.312 300.783a8.508 8.508 0 0012.033 12.029 8.45 8.45 0 002.475-6.059 8.248 8.248 0 00-2.475-5.971 8.653 8.653 0 00-12.033.001zm385.196-87.041a8.743 8.743 0 008.533-8.533 8.467 8.467 0 00-.683-3.242 7.085 7.085 0 00-1.875-2.817 8.374 8.374 0 00-12.034 0 8.595 8.595 0 00-2.475 6.059 8.257 8.257 0 002.475 5.975 8.385 8.385 0 006.059 2.558zM74.974 348.058c-.406-.368-.835-.71-1.283-1.025a6.424 6.424 0 00-1.533-.77 5.39 5.39 0 00-1.538-.508 8.93 8.93 0 00-7.767 2.304 9.913 9.913 0 00-1.792 2.813 8.451 8.451 0 007.85 11.779 8.839 8.839 0 006.062-2.475 8.984 8.984 0 002.471-6.059 7.148 7.148 0 00-.679-3.246 9.888 9.888 0 00-1.791-2.813zm333.909-181.675a8.451 8.451 0 10-6.059-2.475 8.988 8.988 0 006.059 2.475zm-305.496 220.5a8.747 8.747 0 00-6.571 0 7.46 7.46 0 00-2.729 1.879 8.545 8.545 0 000 12.029 8.674 8.674 0 002.729 1.879 8.892 8.892 0 003.329.596 8.426 8.426 0 003.242-.596 8.692 8.692 0 002.733-1.879 8.347 8.347 0 000-12.03 7.475 7.475 0 00-2.733-1.878zM377.65 125.762a8.872 8.872 0 003.329-.683 7.397 7.397 0 002.729-1.875 8.257 8.257 0 002.475-5.975 8.597 8.597 0 00-2.475-6.059 8.82 8.82 0 00-12.029 0 8.507 8.507 0 00-2.562 6.059 8.749 8.749 0 008.533 8.533zM144.008 418.029a8.704 8.704 0 00-9.3 1.879 8.964 8.964 0 00-2.475 6.059 8.523 8.523 0 00.679 3.242 9.853 9.853 0 001.796 2.817 8.964 8.964 0 006.059 2.475 8.546 8.546 0 003.242-.683 7.69 7.69 0 004.608-4.608 7.132 7.132 0 00.683-3.242 8.827 8.827 0 00-2.475-6.059 12.41 12.41 0 00-2.817-1.88zm188.246-324.95a6.58 6.58 0 001.533.771 5.571 5.571 0 001.538.513c.559.134 1.134.19 1.708.167a8.59 8.59 0 006.059-2.471 8.658 8.658 0 000-12.121 8.866 8.866 0 00-7.767-2.304 5.571 5.571 0 00-1.538.513 6.522 6.522 0 00-1.533.771c-.429.341-.854.679-1.279 1.021a8.658 8.658 0 000 12.121c.405.365.832.706 1.279 1.019zM194.1 439.533a8.436 8.436 0 00-14.509 6.058 8.257 8.257 0 002.475 5.975 8.682 8.682 0 006.059 2.558 8.743 8.743 0 008.533-8.533 9.255 9.255 0 00-.683-3.329 7.498 7.498 0 00-1.875-2.729zM281.821 69.7a4.71 4.71 0 00.767 1.45 14.4 14.4 0 001.113 1.279 8.708 8.708 0 002.729 1.879 8.797 8.797 0 009.3-1.879 6.579 6.579 0 001.025-1.279c.334-.453.62-.938.854-1.45.182-.529.324-1.071.425-1.621a5.852 5.852 0 00.171-1.708 8.262 8.262 0 00-2.475-5.975 8.71 8.71 0 00-9.3-1.875 7.445 7.445 0 00-2.729 1.875 8.342 8.342 0 00-2.562 5.975c.016.573.073 1.144.171 1.708a6 6 0 00.511 1.621z"/><path d="M500.942 184.229a238.406 238.406 0 00-35.99-70.391c-.121-.137-.186-.315-.315-.443-45.036-60.61-116.093-96.34-191.604-96.345-6.489 0-12.147.23-17.333.684-4.529-.307-9.041-.521-13.496-.559a32.249 32.249 0 00-3.304-.125C107.607 17.04.914 122.99.006 254.28s104.309 238.705 235.59 240.512c1.099.098 2.201.14 3.304.125 5.711 0 11.396-.271 17.062-.667 5.119.439 10.686.667 17.071.667 75.511-.005 146.568-35.735 191.604-96.346.129-.128.194-.306.315-.443a238.382 238.382 0 0035.99-70.391c.084-.184.123-.38.194-.572a239.33 239.33 0 000-142.365c-.071-.191-.11-.387-.194-.571zm-14.278 131.488h-16.391a239.248 239.248 0 007.201-51.2h17.209a220.838 220.838 0 01-8.019 51.2zm-32.582 68.266h-13.491a238.722 238.722 0 0024.543-51.2h16.046a221.38 221.38 0 01-27.098 51.2zm27.098-204.8h-16.309a240.172 240.172 0 00-24.769-51.2h13.98a221.46 221.46 0 0127.098 51.2zm-3.723 68.267a236.25 236.25 0 00-7.357-51.2h16.564a220.838 220.838 0 018.019 51.2h-17.226zm-36.768-136.533h-12.523a240.99 240.99 0 00-58.809-54.774 223.097 223.097 0 0171.332 54.774zm-204.177 366.85C114.46 476.469 16.386 376.812 17.043 254.754 17.7 132.697 116.84 34.101 238.9 34.117h.35c.463 0 .996.009 2.033.083 121.7.996 219.756 100.079 219.483 221.783.019 101.313-68.586 189.774-166.717 214.967-2.104.542-4.212 1.087-6.325 1.558a223.776 223.776 0 01-48.825 5.342c-.583-.004-1.091.008-2.387-.083zm135.525-23.317a238.853 238.853 0 0056.713-53.4h11.939a223.158 223.158 0 01-68.652 53.4z"/><path d="M303.391 268.542l-64.491 31.82-64.492-31.821a8.534 8.534 0 00-10.983 12.221l68.267 107.788a8.533 8.533 0 0014.416 0l68.267-107.788a8.535 8.535 0 00-10.984-12.22zm-73.025 46.643v39.375l-36.275-57.273 36.275 17.898zm17.067 39.375v-39.375l36.275-17.898-36.275 57.273z"/><path d="M315.516 234.47a8.275 8.275 0 00-.121-.858 8.51 8.51 0 00-1.008-2.379l-.012-.029-68.267-107.788c-.115-.182-.333-.241-.462-.41a8.179 8.179 0 00-13.494 0c-.128.169-.346.228-.461.41l-68.267 107.788-.012.029a8.51 8.51 0 00-1.008 2.379l-.305 2.159c0 .133.048.255.055.387.086.855.26 1.699.52 2.518.116.309.25.611.402.905.251.495.551.963.894 1.399.122.157.182.345.317.495.084.094.199.141.286.23.414.408.869.773 1.358 1.089.235.179.48.345.732.499.07.037.122.097.194.133l68.267 33.687a8.546 8.546 0 007.55 0l68.267-33.687a8.458 8.458 0 002.331-1.776c.071-.073.172-.098.24-.174.135-.15.194-.339.317-.495.344-.436.643-.904.894-1.399a8.22 8.22 0 00.402-.905c.26-.819.434-1.663.52-2.518.006-.132.055-.254.055-.387a8.382 8.382 0 00-.184-1.302zm-68.083-37.689v-39.375l36.275 57.273-36.275-17.898zm-17.067-39.375v39.375l-36.275 17.898 36.275-57.273zm8.534 102.536l-48.981-24.17 48.981-24.168 48.981 24.168-48.981 24.17z"/></svg>