<svg xmlns="http://www.w3.org/2000/svg" viewBox="0 0 512 512"><path d="M512 256c0 141.385-114.615 256-256 256-47.01 0-91.063-12.675-128.919-34.785a215.373 215.373 0 01-5.381-3.239 255.38 255.38 0 01-17.972-12.173 251.22 251.22 0 01-4.995-3.793C38.64 411.167 0 338.098 0 256 0 114.615 114.615 0 256 0s256 114.615 256 256z" fill="#353535"/><path d="M231.797 180.974c-37.961-20.111-97.535 19.066-127.106 54.247-2.988 3.555-.031 8.943 4.576 8.354 23.084-2.957 72.913-4.695 106.57 27.665m146.798-1.166c32.62 27.954 17.991 97.739-3.911 138.142-2.213 4.082-8.311 3.305-9.449-1.197-5.705-22.561-22.343-69.564-64.784-89.026" fill="#5b6a72"/><g transform="rotate(-55.743 242.021 318.989) scale(.99998)"><ellipse cx="237.48" cy="309.37" rx="101.92" ry="52.6" fill="#ef8100"/><ellipse cx="237.48" cy="309.37" rx="64.794" ry="33.437" fill="#efbc00"/></g><path d="M427.472 36.109c20.283 59.322 28.436 114.178-10.382 171.179-30.705 45.089-87.882 108.142-110.439 132.526-5.503 5.949-14.429 7.194-21.357 2.987l-48.069-29.185-44.767-34.035c-6.451-4.905-8.563-13.666-5.044-20.966 14.426-29.922 52.148-106.223 82.854-151.312 38.818-57.001 92.846-69.511 155.476-72.371l1.728 1.177z" fill="#dbf2fa"/><path d="M233.691 318.806l-45.028-34.234c-8.787-6.68-11.687-18.74-6.895-28.678 14.774-30.646 52.466-106.814 83.319-152.118 41.868-61.481 101.82-72.43 160.372-75.104l2.088-.096 5.182 3.529.676 1.977c12.221 35.747 17.561 63.056 17.309 88.55-.311 31.697-9.615 60.543-28.44 88.186-30.853 45.305-87.917 108.282-111.019 133.255-7.492 8.099-19.777 9.819-29.211 4.09l-48.353-29.357zM422.631 41.36c-62.282 3.228-111.223 16.671-147.18 69.471-30.378 44.609-67.737 120.113-82.388 150.506-2.213 4.591-.871 10.165 3.19 13.252l44.506 33.838 47.789 29.016c4.361 2.648 10.039 1.855 13.5-1.886 22.911-24.767 79.481-87.189 109.86-131.797 35.957-52.802 30.536-103.264 10.723-162.4z" fill="#5b6a72"/><circle cx="341.02" cy="147.27" r="44.41" fill="#fefefe"/><path d="M312.5 189.158c-23.096-15.729-29.091-47.315-13.362-70.413 15.729-23.096 47.315-29.091 70.413-13.362s29.091 47.315 13.362 70.413c-15.73 23.096-47.316 29.091-70.413 13.362zm49.992-73.41c-17.382-11.837-41.153-7.326-52.991 10.056-11.837 17.382-7.326 41.153 10.056 52.991 17.382 11.837 41.153 7.326 52.991-10.056s7.326-41.155-10.056-52.991zM123.35 432.995l-19.623 28.808a251.22 251.22 0 01-4.995-3.793l19.435-28.547 5.183 3.532zm12.403 31.483l-8.673 12.737a215.373 215.373 0 01-5.381-3.239l8.871-13.019 5.183 3.521z" fill="#5b6a72"/></svg>