<svg xmlns="http://www.w3.org/2000/svg"><defs><font id="feather" horiz-adv-x="1024"><font-face font-family="feather" font-weight="400" units-per-em="1024" ascent="960" descent="-64" bbox="-7.53125 -90 1033 940.2" underline-thickness="0" underline-position="0" unicode-range="U+0001-FFFD"/><glyph glyph-name=".notdef" unicode="�"/><glyph glyph-name="glyph1" horiz-adv-x="0" d="M0 0z"/><glyph glyph-name="glyph1" horiz-adv-x="0" d="M0 0z"/><glyph glyph-name="uni0001" horiz-adv-x="0" d="M0 0z"/><glyph glyph-name="space" horiz-adv-x="512" d="M0 0z"/><glyph glyph-name="uniE900" unicode="" d="M939 469H768q-13 0-24-8.5T730 439l-90-260-218 644q-3 13-14 21.5t-24 8.5-24-8.5-14-21.5L226 469H85q-19 0-30.5-11.5T43 427q0-20 11.5-31.5T85 384h171q13 0 24 8.5t14 21.5l90 260L602 26q3-13 14-21.5T640-4t24 8.5T678 26l120 354h141q19 0 30.5 11.5T981 422q0 20-11.5 33.5T939 469z"/><glyph glyph-name="uniE901" unicode="" d="M853 853H171q-55 0-91.5-36.5T43 725V299q0-55 36.5-91.5T171 171h42q20 0 31.5 11.5T256 213q0 20-11.5 31.5T213 256h-42q-20 0-31.5 11.5T128 299v426q0 20 11.5 31.5T171 768h682q20 0 31.5-11.5T896 725V299q0-20-11.5-31.5T853 256h-42q-20 0-31.5-11.5T768 213q0-19 11.5-30.5T811 171h42q55 0 91.5 36.5T981 299v426q0 55-36.5 91.5T853 853zM546 324q-13 16-33.5 16T482 324L269 68q-7-9-9-21.5t5-25.5q3-9 12-15t22-6h426q13 0 22.5 6.5T764 26q6 12 4 24.5T759 73L546 324zM388 85l124 145L636 85H388z"/><glyph glyph-name="uniE902" unicode="" d="M512 896q-98 0-183-37-86-36-149.5-100T79 610q-36-86-36-183 0-98 36-183 37-86 100.5-149.5T329-6q85-37 183-37T695-6q86 37 149.5 100.5T945 244q36 85 36 183 0 97-36 183-37 85-100.5 149T695 859q-85 37-183 37zm0-853q-80 0-150 30t-122 82-82 122-30 150 30 150 82 122 122 82 150 30 150-30 122-82 82-122 30-150-30-150-82-122-122-82-150-30zm0 597q-19 0-31-11.5T469 597V427q0-20 12-31.5t31-11.5 31 11.5 12 31.5v170q0 20-12 31.5T512 640zm-30-354q-6-7-9.5-13.5T469 256t3.5-16.5T482 226q7-6 13.5-9.5T512 213t16.5 3.5T542 226q6 7 9.5 15.5T555 256t-3.5 14.5T542 286q-13 13-30 13t-30-13z"/><glyph glyph-name="uniE903" unicode="" d="M969 631L717 883q-3 7-11.5 10t-18.5 3H337q-10 0-18.5-3T307 883L55 631q-6-3-9-11.5T43 602V247q0-9 3-16t9-13L307-34q3-3 11.5-6t18.5-3h354q10 0 17 3.5t13 9.5l252 252q6 6 9.5 13t3.5 17v350q-4 9-7.5 17.5T969 631zm-73-362L670 43H354L128 269v316l226 226h320l222-226V269zM512 640q-19 0-31-11.5T469 597V427q0-20 12-31.5t31-11.5 31 11.5 12 31.5v170q0 20-12 31.5T512 640zm-30-354q-6-7-9.5-13.5T469 256t3.5-16.5T482 226q7-6 13.5-9.5T512 213t16.5 3.5T542 226q6 7 9.5 15.5T555 256t-3.5 14.5T542 286q-13 13-30 13t-30-13z"/><glyph glyph-name="uniE904" unicode="" d="M981 192L623 798q-13 22-34.5 37.5T542 858q-26 6-51 3t-47-16q-13-7-25-18.5T401 802L43 192q-26-45-12-97t59-78q12-10 27.5-13.5T149 0h726q25 0 49 9.5T964 38q19 20 29 42t10 48q-4 16-8 33.5T981 192zm-76-94q-7-6-15.5-9.5T875 85H149q-6 0-10.5.5T128 90q-16 9-19.5 26t2.5 33l363 602q3 3 6 8t6 5q16 9 33.5 4.5T546 751l363-602q3-3 3.5-9t.5-12q3-10-1-16.5T905 98zM512 597q-19 0-31-11.5T469 555V384q0-19 12-31t31-12 31 12 12 31v171q0 19-12 30.5T512 597zm-30-354q-6-6-9.5-13t-3.5-17q0-9 3.5-16t9.5-14q7-6 13.5-9t16.5-3 16.5 3 13.5 9q6 7 9.5 15.5T555 213q0 7-3.5 15.5T542 243q-13 13-30 13t-30-13z"/><glyph glyph-name="uniE905" unicode="" d="M256 555q-19 0-31-12t-12-31 12-31 31-12h512q19 0 31 12t12 31-12 31-31 12H256zm-128 85h768q19 0 31 11.5t12 31.5q0 19-12 30.5T896 725H128q-19 0-31-11.5T85 683q0-20 12-31.5t31-11.5zm768-256H128q-19 0-31-11.5T85 341q0-19 12-30.5t31-11.5h768q19 0 31 11.5t12 30.5q0 20-12 31.5T896 384zM768 213H256q-19 0-31-11.5T213 171q0-20 12-31.5t31-11.5h512q19 0 31 11.5t12 31.5q0 19-12 30.5T768 213z"/><glyph glyph-name="uniE906" unicode="" d="M896 555H128q-19 0-31-12t-12-31 12-31 31-12h768q19 0 31 12t12 31-12 31-31 12zm-768 85h768q19 0 31 11.5t12 31.5q0 19-12 30.5T896 725H128q-19 0-31-11.5T85 683q0-20 12-31.5t31-11.5zm768-256H128q-19 0-31-11.5T85 341q0-19 12-30.5t31-11.5h768q19 0 31 11.5t12 30.5q0 20-12 31.5T896 384zm0-171H128q-19 0-31-11.5T85 171q0-20 12-31.5t31-11.5h768q19 0 31 11.5t12 31.5q0 19-12 30.5T896 213z"/><glyph glyph-name="uniE907" unicode="" d="M128 469h597q20 0 31.5 12t11.5 31-11.5 31-31.5 12H128q-19 0-31-12t-12-31 12-31 31-12zm0 171h768q19 0 31 11.5t12 31.5q0 19-12 30.5T896 725H128q-19 0-31-11.5T85 683q0-20 12-31.5t31-11.5zm768-256H128q-19 0-31-11.5T85 341q0-19 12-30.5t31-11.5h768q19 0 31 11.5t12 30.5q0 20-12 31.5T896 384zM725 213H128q-19 0-31-11.5T85 171q0-20 12-31.5t31-11.5h597q20 0 31.5 11.5T768 171q0 19-11.5 30.5T725 213z"/><glyph glyph-name="uniE908" unicode="" d="M896 555H299q-20 0-31.5-12T256 512t11.5-31 31.5-12h597q19 0 31 12t12 31-12 31-31 12zm-768 85h768q19 0 31 11.5t12 31.5q0 19-12 30.5T896 725H128q-19 0-31-11.5T85 683q0-20 12-31.5t31-11.5zm768-256H128q-19 0-31-11.5T85 341q0-19 12-30.5t31-11.5h768q19 0 31 11.5t12 30.5q0 20-12 31.5T896 384zm0-171H299q-20 0-31.5-11.5T256 171q0-20 11.5-31.5T299 128h597q19 0 31 11.5t12 31.5q0 19-12 30.5T896 213z"/><glyph glyph-name="uniE909" unicode="" d="M939 469H811q-20 0-31.5-11.5T768 427q0-20 11.5-31.5T811 384h81q-8-67-37-126t-74-103.5T678 82q-58-29-123-35v512q54 13 91 59.5T683 725q0 71-50.5 121T512 896t-120.5-50T341 725q0-60 37-105t91-61V43q-67 8-126 37-58 29-103 73.5T167 256t-35 124h81q20 0 31.5 11.5T256 422q0 20-11.5 31.5T213 465H85q-19 0-30.5-11.5T43 422q0-97 36-183 37-85 100.5-148.5T329-10q85-37 183-37t183 37q86 37 149.5 100.5T945 239q36 86 36 183 0 23-11.5 35T939 469zM427 725q0 36 25 61t60 25 60-25 25-61q0-35-25-60t-60-25-60 25-25 60z"/><glyph glyph-name="uniE90A" unicode="" d="M892 154q41 57 65 126.5T981 427q0 48-9.5 95T943 610v4q-24 56-62 104-37 47-85.5 83T689 860q-58 24-122 32h-4q-13 3-25.5 3.5t-25.5.5q-58 0-111-13-54-13-102-37.5T210 786t-73-78q0-3-2.5-4t-2.5-4q-41-58-65-127.5T43 427q0-48 9.5-95.5T81 239v-4q24-55 62-102 37-47 85-83.5T333-11t119-32h5q12 0 25-2t26-2q57 0 111 13T721 3.5 810 63t73 78l6 6 3 7zM585 299H435l-72 128 72 128h150l72-128zM128 427q0 44 9.5 88t28.5 82l171-298H149q-9 28-15 60t-6 68zm555 128h187q10-29 16-61t6-67q0-45-9.5-89T853 256L683 555zm149 85H486l94 162q80-13 145-55.5T832 640zM486 811L316 512l-94 162q48 58 116 94t148 43zM192 213h346L444 51q-80 13-145 55.5T192 213zM538 43l170 298 94-162q-48-57-116-93.5T538 43z"/><glyph glyph-name="uniE90B" unicode="" d="M841 457q-13 12-30 12t-30-12L555 230v495q0 20-12 31.5T512 768t-31-11.5-12-31.5V230L243 457q-13 12-30 12t-30-12q-12-13-12-30t12-30L482 98q3-3 6.5-5.5T495 90q3-4 8.5-4.5t8.5-.5 8.5.5T529 90q3 3 6.5 4t6.5 4l299 299q12 13 12 30t-12 30z"/><glyph glyph-name="uniE90C" unicode="" d="M512 896q-98 0-183-37-86-36-149.5-100T79 610q-36-86-36-183 0-98 36-183 37-86 100.5-149.5T329-6q85-37 183-37T695-6q86 37 149.5 100.5T945 244q36 85 36 183 0 97-36 183-37 85-100.5 149T695 859q-85 37-183 37zm0-853q-80 0-150 30t-122 82-82 122-30 150 30 150 82 122 122 82 150 30 150-30 122-82 82-122 30-150-30-150-82-122-122-82-150-30zm141 414l-98-99v239q0 20-12 31.5T512 640t-31-11.5-12-31.5V358l-98 99q-13 12-30 12t-30-12q-12-13-12-30t12-30l171-171q3-3 6.5-5.5t6.5-2.5q3-4 8.5-4.5t8.5-.5 8.5.5 8.5 4.5q3 3 6.5 4t6.5 4l171 171q12 13 12 30t-12 30q-13 12-30 12t-30-12z"/><glyph glyph-name="uniE90D" unicode="" d="M725 256H401l354 354q13 13 13 30t-13 30-30 13-30-13L341 316v324q0 19-11.5 31T299 683q-20 0-31.5-12T256 640V213q0-3 .5-8.5t3.5-8.5q3-6 9-12t13-9q3-3 8-3.5t9-.5h426q20 0 31.5 11.5T768 213q0 20-11.5 31.5T725 256z"/><glyph glyph-name="uniE90E" unicode="" d="M768 640q0 19-11.5 31T725 683q-19 0-30.5-12T683 640V316L329 670q-13 13-30 13t-30-13-13-30 13-30l354-354H299q-20 0-31.5-11.5T256 213q0-19 11.5-30.5T299 171h426q4 0 9 .5t8 3.5q7 3 13 9t9 12q3 3 3.5 8.5t.5 8.5v427z"/><glyph glyph-name="uniE90F" unicode="" d="M811 469H316l226 226q13 13 13 30t-13 30-30 13-30-13L183 457q-3-4-5.5-7t-2.5-6q-3-7-3-16t3-18q3-4 4-7t4-6L482 98q7-6 15.5-9.5T512 85t14.5 3.5T542 98q13 13 13 30t-13 30L316 384h495q19 0 30.5 11.5T853 427q0 19-11.5 30.5T811 469z"/><glyph glyph-name="uniE910" unicode="" d="M512 896q-98 0-183-37-86-36-149.5-100T79 610q-36-86-36-183 0-98 36-183 37-86 100.5-149.5T329-6q85-37 183-37T695-6q86 37 149.5 100.5T945 244q36 85 36 183 0 97-36 183-37 85-100.5 149T695 859q-85 37-183 37zm0-853q-80 0-150 30t-122 82-82 122-30 150 30 150 82 122 122 82 150 30 150-30 122-82 82-122 30-150-30-150-82-122-122-82-150-30zm171 426H444l98 98q13 13 13 30t-13 30-30 13-30-13L311 457q-3-4-5.5-7t-2.5-6q-3-7-3-16t3-18q3-4 4-7t4-6l171-171q7-6 15.5-9.5T512 213t14.5 3.5T542 226q13 13 13 30t-13 30l-98 98h239q19 0 30.5 11.5T725 427q0 19-11.5 30.5T683 469z"/><glyph glyph-name="uniE911" unicode="" d="M849 410q3 6 3 15t-3 19q-3 3-4 6t-4 7L542 755q-13 13-30 13t-30-13-13-30 13-30l226-226H213q-19 0-30.5-11.5T171 427q0-20 11.5-31.5T213 384h495L482 158q-13-13-13-30t13-30q7-6 15.5-9.5T512 85t14.5 3.5T542 98l299 299q3 3 5.5 6t2.5 7z"/><glyph glyph-name="uniE912" unicode="" d="M512 896q-98 0-183-37-86-36-149.5-100T79 610q-36-86-36-183 0-98 36-183 37-86 100.5-149.5T329-6q85-37 183-37T695-6q86 37 149.5 100.5T945 244q36 85 36 183 0 97-36 183-37 85-100.5 149T695 859q-85 37-183 37zm0-853q-80 0-150 30t-122 82-82 122-30 150 30 150 82 122 122 82 150 30 150-30 122-82 82-122 30-150-30-150-82-122-122-82-150-30zm209 401q-3 3-4 6t-4 7L542 627q-13 13-30 13t-30-13-13-30 13-30l98-98H341q-19 0-30.5-11.5T299 427q0-20 11.5-31.5T341 384h239l-98-98q-13-13-13-30t13-30q7-6 15.5-9.5T512 213t14.5 3.5T542 226l171 171q3 3 5.5 6t2.5 7q3 9 3 16.5t-3 17.5z"/><glyph glyph-name="uniE913" unicode="" d="M841 457L542 755q-3 3-6.5 6t-6.5 3q-6 3-15 3t-19-3q-3-3-6.5-4.5T482 755L183 457q-12-13-12-30t12-30q13-13 30-13t30 13l226 226V128q0-19 12-31t31-12 31 12 12 31v495l226-226q6-7 14.5-10t15.5-3q6 0 14.5 3t15.5 10q12 13 12 30t-12 30z"/><glyph glyph-name="uniE914" unicode="" d="M512 896q-98 0-183-37-86-36-149.5-100T79 610q-36-86-36-183 0-98 36-183 37-86 100.5-149.5T329-6q85-37 183-37T695-6q86 37 149.5 100.5T945 244q36 85 36 183 0 97-36 183-37 85-100.5 149T695 859q-85 37-183 37zm0-853q-80 0-150 30t-122 82-82 122-30 150 30 150 82 122 122 82 150 30 150-30 122-82 82-122 30-150-30-150-82-122-122-82-150-30zm30 584q-3 3-6.5 6t-6.5 3q-6 3-15 3t-19-3q-3-3-6.5-4.5T482 627L311 457q-12-13-12-30t12-30q13-13 30-13t30 13l98 98V256q0-19 12-31t31-12 31 12 12 31v239l98-98q6-7 14.5-10t15.5-3q6 0 14.5 3t15.5 10q12 13 12 30t-12 30z"/><glyph glyph-name="uniE915" unicode="" d="M401 597h324q20 0 31.5 12t11.5 31-11.5 31-31.5 12H299q-4 0-9-.5t-8-4.5q-7-3-13-9t-9-12q-3-3-3.5-8.5t-.5-8.5V213q0-19 11.5-30.5T299 171q19 0 30.5 11.5T341 213v325l354-355q7-6 15.5-9t14.5-3q7 0 15.5 3t14.5 9q13 13 13 30t-13 30L401 597z"/><glyph glyph-name="uniE916" unicode="" d="M764 657q-3 6-9 12t-13 9q-3 4-8 4.5t-9 .5H299q-20 0-31.5-12T256 640t11.5-31 31.5-12h324L269 243q-13-13-13-30t13-30q6-6 13-9t17-3q9 0 16 3t14 9l354 355V213q0-19 11.5-30.5T725 171q20 0 31.5 11.5T768 213v427q0 3-.5 8.5T764 657z"/><glyph glyph-name="uniE917" unicode="" d="M512 896q-46 0-92-9-45-8-87.5-25.5T252 819q-39-26-73-60-33-33-59-72-25-39-42.5-81.5T51 518q-8-45-8-91 0-98 36-183 37-86 100.5-149.5T329-6q85-37 183-37 77 0 151 25t135 73q13 10 15.5 28.5T806 115q-9 13-28 15.5t-31-6.5q-52-39-111.5-60T512 43q-80 0-150 30t-122 82-82 122-30 150q0 76 28.5 147T239 700q54 54 125 82.5T512 811q80 0 150-30t122-82 82-122 30-150v-43q0-35-25-60t-60-25q-36 0-61 25t-25 60v213q0 20-11.5 31.5T683 640q-20 0-31.5-11.5T640 597q-26 20-59.5 31.5T512 640q-45 0-84-17-39-16-67.5-45T315 510q-16-39-16-83 0-45 16-84 17-39 45.5-68t67.5-45q39-17 84-17 48 0 88.5 20.5T670 286q22-32 59-52.5t82-20.5q70 0 120 50.5T981 384v43q0 97-36 183-37 85-100.5 149T695 859q-85 37-183 37zm0-597q-54 0-91 36.5T384 427q0 54 37 91t91 37 91-37 37-91q0-55-37-91.5T512 299z"/><glyph glyph-name="uniE918" unicode="" d="M853 597q0 71-27 133t-73 108.5T645 912q-63 27-133 27t-133-27q-62-27-108-73.5T198 730t-27-133q0-83 35.5-153.5T303 329L256-38q-3-13 2-25t15-18 22-6 25 6L512 34 704-81q3-3 9-3.5t12-.5q7 0 12.5 2.5T747-77q3 3 11.5 16.5T764-34l-47 363q64 44 100 114.5T853 597zm-597 0q0 53 20 100 20 46 55 81t82 55q46 20 99 20t99-20q47-20 82-55t55-81q20-47 20-100 0-52-20-99t-55-81.5-82-54.5q-46-21-99-21t-99 21q-47 20-82 54.5T276 498t-20 99zM670 38l-137 81q-9 7-21 7t-21-7L354 38l30 244q29-13 61-19.5t67-6.5 67 6.5 61 19.5l30-244z"/><glyph glyph-name="uniE919" unicode="" d="M512 555q-19 0-31-12t-12-31V85q0-19 12-30.5T512 43t31 11.5T555 85v427q0 19-12 31t-31 12zm256 256q-19 0-31-12t-12-31V85q0-19 12-30.5T768 43t31 11.5T811 85v683q0 19-12 31t-31 12zM256 299q-19 0-31-12t-12-31V85q0-19 12-30.5T256 43t31 11.5T299 85v171q0 19-12 31t-31 12z"/><glyph glyph-name="uniE91A" unicode="" d="M768 555q-19 0-31-12t-12-31V85q0-19 12-30.5T768 43t31 11.5T811 85v427q0 19-12 31t-31 12zM512 811q-19 0-31-12t-12-31V85q0-19 12-30.5T512 43t31 11.5T555 85v683q0 19-12 31t-31 12zM256 384q-19 0-31-11.5T213 341V85q0-19 12-30.5T256 43t31 11.5T299 85v256q0 20-12 31.5T256 384z"/><glyph glyph-name="uniE91B" unicode="" d="M725 725H128q-54 0-91-36.5T0 597V256q0-54 37-91t91-37h597q55 0 91.5 37t36.5 91v341q0 55-36.5 91.5T725 725zm43-469q0-19-11.5-31T725 213H128q-19 0-31 12t-12 31v341q0 20 12 31.5t31 11.5h597q20 0 31.5-11.5T768 597V256zm213 256q-19 0-30.5-11.5T939 469v-85q0-19 11.5-31t30.5-12q20 0 31.5 12t11.5 31v85q0 20-11.5 31.5T981 512z"/><glyph glyph-name="uniE91C" unicode="" d="M725 725h-85q-19 0-31-11.5T597 683q0-20 12-31.5t31-11.5h85q20 0 31.5-11.5T768 597V256q0-19-11.5-31T725 213H589q-19 0-31-11.5T546 171q0-20 12-31.5t31-11.5h136q55 0 91.5 37t36.5 91v341q0 55-36.5 91.5T725 725zM213 213h-85q-19 0-31 12t-12 31v341q0 20 12 31.5t31 11.5h137q19 0 30.5 11.5T307 683q0 19-11.5 30.5T265 725H128q-54 0-91-36.5T0 597V256q0-54 37-91t91-37h85q20 0 31.5 11.5T256 171q0 19-11.5 30.5T213 213zm768 299q-19 0-30.5-11.5T939 469v-85q0-19 11.5-31t30.5-12q20 0 31.5 12t11.5 31v85q0 20-11.5 31.5T981 512zm-388-64q-6 10-16 15.5t-22 5.5H380l128 188q9 16 6 33t-19 27q-16 9-33 6t-27-19L265 448q-7-10-7-21.5t7-21.5q3-9 12-15t22-6h175L346 196q-10-16-7-33t19-26q7-4 13.5-6.5T384 128q10 0 19 5.5t15 11.5l171 256q6 13 8 23.5t-4 23.5z"/><glyph glyph-name="uniE91D" unicode="" d="M606 81q-16 10-33 4.5T546 64q-9-16-26.5-19.5T486 47q-6 3-9.5 7T469 64q-9 16-26 19.5T410 81q-16-10-20-27t3-33q9-16 19.5-26.5T439-26q16-9 32-13t32-4q32 0 62 16t49 48q16 16 12 33t-20 27zm333 175q-36 0-61 25t-25 60v214q0 70-27 132t-73 108.5T645 869q-63 27-133 27t-133-27q-62-27-108-73.5T198 687t-27-132V341q0-35-25-60t-61-25q-19 0-30.5-11.5T43 213q0-19 11.5-30.5T85 171h854q19 0 30.5 11.5T981 213q0 20-11.5 31.5T939 256zm-704 0q9 19 15 41t6 44v214q0 52 20 99t55 81.5 82 54.5q46 21 99 21t99-21q47-20 82-54.5t55-81.5 20-99V341q0-22 6-44t15-41H235z"/><glyph glyph-name="uniE91E" unicode="" d="M388 777q47 25 97 30 50 6 97.5-7.5T670 756q41-31 68-78 13-25 21.5-58t8.5-65V384q0-19 11.5-31t31.5-12q19 0 30.5 12t11.5 31v171q0 44-11.5 86T811 721q-36 61-90 102-54 40-117 58t-131 10q-67-7-127-42-16-6-21.5-22.5T329 794q9-16 26-20t33 3zM606 81q-16 10-33 4.5T546 64q-9-16-26.5-19.5T486 47q-6 3-9.5 7T469 64q-9 16-26 19.5T410 81q-16-10-20-27t3-33q9-16 19.5-26.5T439-26q16-9 32-13t32-4q32 0 62 16t49 48q16 16 12 33t-20 27zm405-94L755 243 73 926q-13 13-30 13t-30-13-13-30 13-30l183-183q-13-32-19-64t-6-64V341q0-35-25-60t-61-25q-19 0-30.5-11.5T43 213q0-19 11.5-30.5T85 171h623L951-73q7-6 15.5-9t14.5-3q7 0 15.5 3t14.5 9q13 13 13 30t-13 30zM235 256q9 19 15 41t6 44v214q0 16 2.5 31.5T265 614l358-358H235z"/><glyph glyph-name="uniE91F" unicode="" d="M572 427l205 204q12 13 12 30t-12 30L542 926q-10 9-22 12t-25-4q-13-3-19.5-14t-6.5-24V529L307 691q-13 13-30 13t-30-13q-12-13-12-30t12-30l205-204-205-205q-12-13-12-30t12-30q13-13 30-13t30 13l162 162V-43q0-12 6.5-23.5T495-81q3-3 8.5-3.5t8.5-.5q10 0 16.5 3t13.5 9l235 235q12 13 12 30t-12 30L572 427zm-17 367l132-133-132-132v265zm0-734v264l132-132L555 60z"/><glyph glyph-name="uniE920" unicode="" d="M742 444q32 29 50.5 69t18.5 84q0 45-17 84-16 39-45 68t-68 45q-39 17-84 17H256q-19 0-31-12t-12-31V85q0-19 12-30.5T256 43h384q45 0 84 16 39 17 67.5 45.5T837 172q16 39 16 84 0 61-31.5 110T742 444zM299 725h298q55 0 91.5-36.5T725 597q0-54-36.5-91T597 469H299v256zm341-597H299v256h341q54 0 91-37t37-91-37-91-91-37z"/><glyph glyph-name="uniE921" unicode="" d="M853 896H277q-60 0-104.5-44.5T128 747V107q0-61 44.5-105.5T277-43h576q20 0 31.5 12T896 0v853q0 20-11.5 31.5T853 896zm-576-85h534V256H277q-16 0-32-3.5T213 239v508q0 25 19.5 44.5T277 811zm0-768q-25 0-44.5 19T213 107q0 25 19.5 44.5T277 171h534V43H277z"/><glyph glyph-name="uniE922" unicode="" d="M939 853H683q-52 0-97-23.5T512 768q-29 38-74 61.5T341 853H85q-19 0-30.5-11.5T43 811V171q0-20 11.5-31.5T85 128h299q35 0 60-25t25-60q0-20 12-31.5T512 0t31 11.5T555 43q0 35 25 60t60 25h299q19 0 30.5 11.5T981 171v640q0 19-11.5 30.5T939 853zM469 192q-19 10-41 15.5t-44 5.5H128v555h213q55 0 91.5-37t36.5-91V192zm427 21H640q-22 0-44-5.5T555 192v448q0 54 36.5 91t91.5 37h213V213z"/><glyph glyph-name="uniE923" unicode="" d="M725 853H299q-55 0-91.5-36.5T171 725V43q0-13 5.5-22.5T192 4q10-6 21.5-4T235 9l273 196L781 9q6-4 12.5-6.5T806 0q7 0 11 .5T828 4q9 7 15 16.5t6 22.5v682q3 55-33 91.5T725 853zm43-729L538 290q-7 3-13.5 6t-12.5 3-12.5-3-13.5-6L256 124v601q0 20 11.5 31.5T299 768h426q20 0 31.5-11.5T768 725V124z"/><glyph glyph-name="uniE924" unicode="" d="M909 742L567 913q-25 13-55.5 13T452 913L111 742q-32-16-50-45.5T43 631V226q0-35 18.5-67t53.5-48L457-60q12-6 27-9.5t28-3.5q16 0 29.5 3.5T567-60l342 171q32 16 52 46.5t20 68.5v405q0 36-18.5 65.5T909 742zm-414 99q3 3 8.5 3.5t8.5.5q6 0 10-.5t7-3.5l316-158-333-167-333 167 316 158zM149 183q-9 7-15 18t-6 21v392l341-170V26L149 183zm721 0L555 26v418l341 170V222q0-13-6.5-22.5T870 183z"/><glyph glyph-name="uniE925" unicode="" d="M853 683H725v42q0 55-36.5 91.5T597 853H427q-55 0-91.5-36.5T299 725v-42H171q-55 0-91.5-37T43 555V128q0-54 36.5-91T171 0h682q55 0 91.5 37t36.5 91v427q0 54-36.5 91T853 683zm-469 42q0 20 11.5 31.5T427 768h170q20 0 31.5-11.5T640 725v-42H384v42zm256-128V85H384v512h256zM128 128v427q0 19 11.5 30.5T171 597h128V85H171q-20 0-31.5 12T128 128zm768 0q0-19-11.5-31T853 85H725v512h128q20 0 31.5-11.5T896 555V128z"/><glyph glyph-name="uniE926" unicode="" d="M811 811h-86v42q0 20-11.5 31.5T683 896q-20 0-31.5-11.5T640 853v-42H384v42q0 20-11.5 31.5T341 896q-19 0-30.5-11.5T299 853v-42h-86q-54 0-91-37t-37-91V85q0-54 37-91t91-37h598q54 0 91 37t37 91v598q0 54-37 91t-91 37zm-598-86h86v-42q0-20 11.5-31.5T341 640q20 0 31.5 11.5T384 683v42h256v-42q0-20 11.5-31.5T683 640q19 0 30.5 11.5T725 683v42h86q19 0 30.5-11.5T853 683V555H171v128q0 19 11.5 30.5T213 725zM811 43H213q-19 0-30.5 11.5T171 85v384h682V85q0-19-11.5-30.5T811 43z"/><glyph glyph-name="uniE927" unicode="" d="M896 725H747l-73 111q-6 7-15 12t-19 5H384q-10 0-19-5t-15-12l-73-111H128q-54 0-91-36.5T0 597V128q0-54 37-91t91-37h768q54 0 91 37t37 91v469q0 55-37 91.5T896 725zm43-597q0-19-12-31t-31-12H128q-19 0-31 12t-12 31v469q0 20 12 31.5t31 11.5h171q9 0 18 5.5t16 11.5l72 111h209l73-111q10-6 19.5-11.5T725 640h171q19 0 31-11.5t12-31.5V128zM512 597q-45 0-84-16-39-17-67.5-45.5T315 468q-16-39-16-84t16-84q17-39 45.5-67.5T428 187q39-16 84-16t84 16q39 17 67.5 45.5T709 300q16 39 16 84t-16 84q-17 39-45.5 67.5T596 581q-39 16-84 16zm0-341q-54 0-91 37t-37 91 37 91 91 37 91-37 37-91-37-91-91-37z"/><glyph glyph-name="uniE928" unicode="" d="M926 73L286 713 73 926q-13 13-30 13t-30-13-13-30 13-30l141-141h-26q-54 0-91-36.5T0 597V128q0-54 37-91t91-37h751l72-73q7-6 15.5-9t14.5-3q7 0 15.5 3t14.5 9q13 13 13 30t-13 30l-85 86zM405 457q4 3 5 4l4 4 179-179q-13-10-28.5-18.5T533 256q-25-3-49.5 1T439 277q-22 16-35.5 36T384 358q-3 26 3 51t18 48zM128 85q-19 0-31 12t-12 31v469q0 20 12 31.5t31 11.5h111l115-115q-6-7-10-11t-7-11q-26-35-33-75.5t-1-81.5q6-42 30-78.5t60-58.5q25-19 56-28.5t63-9.5q10 0 19.5.5T550 175q29 6 54.5 19t48.5 32L794 85H128zm768 640H747l-73 111q-6 7-15 12t-19 5H384q-19 0-31-11.5T341 811q0-20 12-31.5t31-11.5h235l72-111q7-6 16-11.5t18-5.5h171q19 0 31-11.5t12-31.5V201q0-20 11.5-31.5T981 158q20 0 31.5 11.5T1024 201v396q0 55-37 91.5T896 725z"/><glyph glyph-name="uniE929" unicode="" d="M90 465q-16 3-30-8t-17-30q-4-16 7.5-30T81 380q59-7 111-32t92-65 66-93q26-52 34-113 0-13 11-23.5T422 43h5q16 3 27 17t11 30q-8 75-39 140-32 65-81.5 114.5T230 426q-65 31-140 39zm4-171q-16 4-32-7t-19-27q-4-16 5.5-32T77 209q51-10 86.5-45.5T209 77q3-16 15-25t28-9h8q16 3 27 17.5t7 33.5q-16 77-69.5 130.5T94 294zm759 517H171q-55 0-91.5-37T43 683v-86q0-19 11.5-30.5T85 555q20 0 31.5 11.5T128 597v86q0 19 11.5 30.5T171 725h682q20 0 31.5-11.5T896 683V171q0-20-11.5-31.5T853 128H597q-19 0-30.5-11.5T555 85q0-19 11.5-30.5T597 43h256q55 0 91.5 36.5T981 171v512q0 54-36.5 91T853 811zM55 115q-6-6-9-13t-3-17q0-9 3-16t9-14q7-6 14-9t16-3q10 0 17 3t13 9q7 7 10 14t3 16q0 10-3 17t-10 13q-13 13-30 13t-30-13z"/><glyph glyph-name="uniE92A" unicode="" d="M883 713q-13 12-30 12t-30-12L384 273 201 457q-13 12-30 12t-30-12q-13-13-13-30t13-30l213-214q7-6 13.5-9t16.5-3 16.5 3 13.5 9l469 470q13 13 13 30t-13 30z"/><glyph glyph-name="uniE92B" unicode="" d="M939 508q-20 0-31.5-12T896 465v-38q0-80-30-150t-82-122-122-82-150-30q-80 0-150 30t-122 82-82 122-30 150 30 150 82 122 122 82 150 30q42 0 80.5-9t77.5-25q16-7 32.5-1t22.5 22q7 16 1 32.5T704 853q-45 20-93 31.5T512 896q-98 0-183-37-86-36-149.5-100T79 610q-36-86-36-183 0-98 36-183 37-86 100.5-149.5T329-6q85-37 183-37T695-6q86 37 149.5 100.5T945 244q36 85 36 183v38q0 19-11.5 31T939 508zm-525-9q-13 13-30 13t-30-13-13-30 13-30l128-128q7-6 13.5-9t16.5-3 16.5 3 13.5 9l427 427q12 13 12 30t-12 30q-13 13-30 13t-30-13L512 401l-98 98z"/><glyph glyph-name="uniE92C" unicode="" d="M969 798q-13 13-30 13t-30-13L512 401l-98 98q-13 13-30 13t-30-13-13-30 13-30l128-128q7-6 15.5-9t14.5-3 14.5 3 15.5 9l427 427q12 13 12 30t-12 30zm-73-329q-19 0-31-11.5T853 427V128q0-19-11.5-31T811 85H213q-19 0-30.5 12T171 128v597q0 20 11.5 31.5T213 768h470q19 0 30.5 11.5T725 811q0 19-11.5 30.5T683 853H213q-54 0-91-36.5T85 725V128q0-54 37-91t91-37h598q54 0 91 37t37 91v299q0 19-12 30.5T896 469z"/><glyph glyph-name="uniE92D" unicode="" d="M798 585q-13 12-30 12t-30-12L512 358 286 585q-13 12-30 12t-30-12q-13-13-13-30t13-30l256-256q7-7 15.5-10t14.5-3 14.5 3 15.5 10l256 256q13 13 13 30t-13 30z"/><glyph glyph-name="uniE92E" unicode="" d="M444 427l226 226q13 13 13 30t-13 30q-13 12-30 12t-30-12L354 457q-13-13-13-30t13-30l256-256q7-7 15.5-10t14.5-3 14.5 3 15.5 10q13 13 13 30t-13 30L444 427z"/><glyph glyph-name="uniE92F" unicode="" d="M670 457L414 713q-13 12-30 12t-30-12q-13-13-13-30t13-30l226-226-226-226q-13-13-13-30t13-30q7-7 13.5-10t16.5-3 16.5 3 13.5 10l256 256q13 13 13 30t-13 30z"/><glyph glyph-name="uniE930" unicode="" d="M798 329L542 585q-13 12-30 12t-30-12L226 329q-13-13-13-30t13-30 30-13 30 13l226 226 226-226q7-7 15.5-10t14.5-3 14.5 3 15.5 10q13 13 13 30t-13 30z"/><glyph glyph-name="uniE931" unicode="" d="M695 414L512 230 329 414q-13 13-30 13t-30-13-13-30 13-30l213-213q7-7 15.5-10t14.5-3 14.5 3 15.5 10l213 213q13 13 13 30t-13 30-30 13-30-13zm-213 25q7-6 15.5-9t14.5-3 14.5 3 15.5 9l213 214q13 13 13 30t-13 30q-13 12-30 12t-30-12L512 529 329 713q-13 12-30 12t-30-12q-13-13-13-30t13-30l213-214z"/><glyph glyph-name="uniE932" unicode="" d="M316 427l183 183q13 13 13 30t-13 30-30 13-30-13L226 457q-13-13-13-30t13-30l213-214q7-6 15.5-9t14.5-3q7 0 15.5 3t14.5 9q13 13 13 30t-13 30L316 427zm298 0l184 183q13 13 13 30t-13 30-30 13-30-13L525 457q-13-13-13-30t13-30l213-214q7-6 15.5-9t14.5-3 14.5 3 15.5 9q13 13 13 30t-13 30L614 427z"/><glyph glyph-name="uniE933" unicode="" d="M798 457L585 670q-13 13-30 13t-30-13-13-30 13-30l183-183-183-184q-13-13-13-30t13-30q6-6 14.5-9t15.5-3q6 0 14.5 3t15.5 9l213 214q13 13 13 30t-13 30zm-299 0L286 670q-13 13-30 13t-30-13-13-30 13-30l184-183-184-184q-13-13-13-30t13-30q7-6 13.5-9t16.5-3 16.5 3 13.5 9l213 214q13 13 13 30t-13 30z"/><glyph glyph-name="uniE934" unicode="" d="M329 439l183 184 183-184q7-6 15.5-9t14.5-3q7 0 15.5 3t14.5 9q13 13 13 30t-13 30L542 713q-13 12-30 12t-30-12L269 499q-13-13-13-30t13-30q13-12 30-12t30 12zm213-25q-13 13-30 13t-30-13L269 201q-13-13-13-30t13-30 30-13 30 13l183 183 183-183q7-7 15.5-10t14.5-3q7 0 15.5 3t14.5 10q13 13 13 30t-13 30L542 414z"/><glyph glyph-name="uniE935" unicode="" d="M943 610v3-3q-29 64-73 117-44 52-99.5 90T650 875q-66 21-138 21-58 0-111-13-54-13-102-37.5T210 786t-73-78q0-3-2.5-4t-2.5-4q-41-58-65-127.5T43 427q0-90 31-170 32-79 87-141T291 13q75-40 161-51h5q12 0 25-2.5t26-2.5q97 0 183 37 85 37 149 100.5T940 244q37 85 37 183 3 48-6 95t-28 88zM512 811q50 0 96-13 47-12 88-34.5t76-53.5q34-32 60-70H512q-67 0-119-37t-77-91l-94 162q25 32 58 57 32 26 69.5 43.5T428 801q41 10 84 10zm128-384q0-55-37-91.5T512 299t-91 36.5-37 91.5q0 54 37 91t91 37 91-37 37-91zm-512 0q0 44 9.5 88t28.5 82l158-277 .5-2 4.5-2q28-45 76.5-74T512 213q6 0 12.5.5T538 218L439 51q-65 11-122 45t-99 84-66 113-24 134zM538 43l157 277v4q13 23 19.5 48.5T721 427q0 35-11.5 68.5T678 555h192q10-29 16-61t6-67q1-77-26-145t-75-119.5T678 79 538 43z"/><glyph glyph-name="uniE936" unicode="" d="M512 896q-98 0-183-37-86-36-149.5-100T79 610q-36-86-36-183 0-98 36-183 37-86 100.5-149.5T329-6q85-37 183-37T695-6q86 37 149.5 100.5T945 244q36 85 36 183 0 97-36 183-37 85-100.5 149T695 859q-85 37-183 37zm0-853q-80 0-150 30t-122 82-82 122-30 150 30 150 82 122 122 82 150 30 150-30 122-82 82-122 30-150-30-150-82-122-122-82-150-30z"/><glyph glyph-name="uniE937" unicode="" d="M768 811h-43q0 35-25 60t-60 25H384q-35 0-60-25t-25-60h-43q-54 0-91-37t-37-91V85q0-54 37-91t91-37h512q54 0 91 37t37 91v598q0 54-37 91t-91 37zm-384 0h256v-86H384v86zM811 85q0-19-12-30.5T768 43H256q-19 0-31 11.5T213 85v598q0 19 12 30.5t31 11.5h43q0-35 25-60t60-25h256q35 0 60 25t25 60h43q19 0 31-11.5t12-30.5V85z"/><glyph glyph-name="uniE938" unicode="" d="M512 896q-98 0-183-37-86-36-149.5-100T79 610q-36-86-36-183 0-98 36-183 37-86 100.5-149.5T329-6q85-37 183-37T695-6q86 37 149.5 100.5T945 244q36 85 36 183 0 97-36 183-37 85-100.5 149T695 859q-85 37-183 37zm0-853q-80 0-150 30t-122 82-82 122-30 150 30 150 82 122 122 82 150 30 150-30 122-82 82-122 30-150-30-150-82-122-122-82-150-30zm188 337l-145 72v231q0 19-12 30.5T512 725t-31-11.5-12-30.5V427q0-13 6.5-22.5T495 388l171-85q3-3 6.5-3.5t10.5-.5q12 0 22 6t16 19 .5 29.5T700 380z"/><glyph glyph-name="uniE939" unicode="" d="M768 555h-21q-23 64-66 116.5T580 759q-67 39-141.5 50.5T290 802q-77-22-137-68.5T51 623Q13 556 1 481t8-148q16-64 51-118 35-53 84.5-91.5T254 64t126-21h384q53 0 99 20 47 20 81.5 55t55.5 81q20 47 20 100 0 52-20 99-19 47-53 81.5T867 534q-46 21-99 21zm0-427H384q-51 0-98 17-47 16-85.5 46T134 261q-27 41-40 89-16 61-7 118.5T128 580q32 55 79 89.5T311 717q16 3 35 5.5t38 2.5q50 0 96-16 47-16 86-45.5t67-71.5 41-93q3-13 15-23.5t28-10.5h51q70 0 120.5-50T939 294q0-67-50.5-116.5T768 128z"/><glyph glyph-name="uniE93A" unicode="" d="M341 171q-19 0-30.5-12T299 128V43q0-20 11.5-31.5T341 0q20 0 31.5 11.5T384 43v85q0 19-11.5 31T341 171zm0 256q-19 0-30.5-12T299 384v-85q0-20 11.5-31.5T341 256q20 0 31.5 11.5T384 299v85q0 19-11.5 31T341 427zm342-256q-20 0-31.5-12T640 128V43q0-20 11.5-31.5T683 0q19 0 30.5 11.5T725 43v85q0 19-11.5 31T683 171zm0 256q-20 0-31.5-12T640 384v-85q0-20 11.5-31.5T683 256q19 0 30.5 11.5T725 299v85q0 19-11.5 31T683 427zM512 85q-19 0-31-11.5T469 43v-86q0-19 12-30.5T512-85t31 11.5T555-43v86q0 19-12 30.5T512 85zm0 256q-19 0-31-11.5T469 299v-86q0-19 12-30.5t31-11.5 31 11.5 12 30.5v86q0 19-12 30.5T512 341zm491 188q-32 70-95 112t-140 42h-21q-24 70-72 124-47 54-108.5 87T433 936q-71 9-143-10-78-19-139-66-61-46-98.5-109.5T3 611q-11-76 10-154 16-61 50-114t82-91q13-10 31.5-9t28.5 17q9 13 8 31.5T196 320q-38 29-63.5 71T94 478q-16 59-7 118 9 58 38.5 108t75.5 86q47 36 106 51 59 16 118 6 59-9 108.5-38t85.5-76 51-106q3-13 15-23.5t28-10.5h55q51 0 93-27t65-75q13-32 15-66.5T930 358t-35-56.5-54-36.5q-16-7-22-23.5t0-32.5q7-13 16.5-19.5T858 183q3 0 8 1t9 4q48 19 82.5 56t53.5 85q16 51 13.5 101.5T1003 529z"/><glyph glyph-name="uniE93B" unicode="" d="M1020 478q-10 45-34 82-23 38-57 65t-75 42q-41 16-86 16h-21q-24 70-72 124-47 54-108.5 87T433 936q-71 9-143-10-77-19-137-65T51 751Q13 684 1 609t8-148q19-77 68-139t119-100q16-10 33-6.5t27 19.5 4.5 33-21.5 26q-54 29-91.5 78T94 482q-16 58-7 115t41 111q29 51 77.5 87.5T311 845q60 16 118 7 59-9 108.5-38.5T623 737q37-46 51-106 3-12 15-23t28-11h51q61 0 107.5-37.5T934 461q13-71-26-129.5T802 260q-16-3-26.5-17.5T768 209q3-16 15-25t28-9h8q51 11 93 41 41 29 68 70.5t38 90.5q11 50 2 101zM640 256H465l128 188q10 16 6.5 33T580 503q-16 10-33 7t-26-19L350 235q-7-10-7-21.5t7-21.5q3-10 12-15.5t22-5.5h175L431-17q-10-16-6.5-33T444-77q6-3 12.5-5.5T469-85q10 0 19 5t15 12l171 256q7 9 7 21t-7 21q-6 10-13.5 18t-20.5 8z"/><glyph glyph-name="uniE93C" unicode="" d="M410 725q48-4 90-23 43-18 77-47.5t59-67.5q25-39 38-84 3-12 15-23t28-11h51q16 0 34-3t34-9q64-29 91.5-93.5T926 235q-7-16-1-32.5t22-23.5q3-3 8.5-3.5t8.5-.5q13 0 24 6.5t15 19.5q20 48 20 98 0 51-18.5 97T951 480q-35 37-85 58-22 6-47 11.5t-51 5.5h-21q-20 52-52 97-33 45-76 78.5T525 785t-107 26q-19 0-31.5-11.5T371 772q-3-19 10-31t29-16zM73 926q-13 13-30 13t-30-13-13-30 13-30l132-132q-48-39-82.5-89.5T9 533q-23-73-14-148t48-142q25-46 61-83t80-63 93-40q50-14 103-14h388q16 0 30 2.5t30 5.5L951-73q7-6 15.5-9t14.5-3q7 0 15.5 3t14.5 9q13 13 13 30t-13 30L73 926zm311-798q-42-2-81 8t-73.5 30-62.5 50q-28 29-48 66-28 51-34.5 109.5T94 508q13 51 43 92t72 70l542-542H384z"/><glyph glyph-name="uniE93D" unicode="" d="M683 427q-20 0-31.5-12T640 384V43q0-20 11.5-31.5T683 0q19 0 30.5 11.5T725 43v341q0 19-11.5 31T683 427zm-342 0q-19 0-30.5-12T299 384V43q0-20 11.5-31.5T341 0q20 0 31.5 11.5T384 43v341q0 19-11.5 31T341 427zm171-86q-19 0-31-11.5T469 299V-43q0-19 12-30.5T512-85t31 11.5T555-43v342q0 19-12 30.5T512 341zm491 188q-32 70-95 112t-140 42h-21q-24 70-72 124-47 54-108.5 87T433 936q-71 9-143-10-78-19-139-66-61-46-98.5-109.5T3 611q-11-76 10-154 16-61 50-114t82-91q13-10 31.5-9t28.5 17q9 13 8 31.5T196 320q-38 29-63.5 71T94 478q-16 59-7 118 9 58 38.5 108t75.5 86q47 36 106 51 59 16 118 6 59-9 108.5-38t85.5-76 51-106q3-13 15-23.5t28-10.5h55q51 0 93-27t65-75q13-32 15-66.5T930 358t-35-56.5-54-36.5q-16-7-22-23.5t0-32.5q7-13 16.5-19.5T858 183q3 0 8 1t9 4q48 19 82.5 56t53.5 85q16 51 13.5 101.5T1003 529z"/><glyph glyph-name="uniE93E" unicode="" d="M1003 486q-32 71-95 112.5T768 640h-21q-24 70-72 124-47 54-108.5 87T433 893q-71 9-143-10-78-19-139-65-61-47-98.5-110.5T3 568q-11-76 10-154 16-61 50-114t82-91q13-10 31.5-8.5T205 218q9 12 8 31t-17 28q-38 29-63.5 71T94 435q-16 59-7 118t38.5 108.5T201 747q47 36 106 51 59 16 118 7t108.5-38.5T619 690q36-46 51-105 3-13 15-24t28-11h55q51 0 93-27t65-75q13-32 15-66t-11-66-35-56.5-54-37.5q-16-7-22-23.5t0-32.5q7-12 16.5-18.5T858 141q3 0 8 .5t9 3.5q48 19 82.5 56t53.5 85q16 51 13.5 101.5T1003 486zM311 286q-6-7-9-13.5t-3-16.5 3-16.5 9-13.5q7-6 14-9.5t16-3.5q10 0 17 3.5t13 9.5q7 7 10 13.5t3 16.5-3 16.5-10 13.5q-13 13-30 13t-30-13zm0-171q-6-6-9-13t-3-17q0-9 3-16t9-14q7-6 14-9t16-3q10 0 17 3t13 9q7 7 10 14t3 16q0 10-3 17t-10 13q-13 13-30 13t-30-13zm171 86q-6-7-9.5-14t-3.5-16q0-10 3.5-17t9.5-13q7-7 13.5-10t16.5-3 16.5 3 13.5 10q6 6 9.5 14.5T555 171q0 6-3.5 14.5T542 201q-13 12-30 12t-30-12zm0-171q-6-7-9.5-13.5T469 0t3.5-16.5T482-30q7-6 13.5-9.5T512-43t16.5 3.5T542-30q6 7 9.5 15.5T555 0t-3.5 14.5T542 30q-13 13-30 13t-30-13zm171 256q-7-7-10-13.5t-3-16.5 3-16.5 10-13.5q6-6 14.5-9.5T683 213q6 0 14.5 3.5T713 226q6 7 9 15.5t3 14.5-3 14.5-9 15.5q-13 13-30 13t-30-13zm0-171q-7-6-10-13t-3-17q0-9 3-16t10-14q6-6 14.5-9t15.5-3q6 0 14.5 3t15.5 9q6 7 9 15.5t3 14.5q0 7-3 15.5t-9 14.5q-13 13-30 13t-30-13z"/><glyph glyph-name="uniE93F" unicode="" d="M969 457L713 713q-13 12-30 12t-30-12q-13-13-13-30t13-30l226-226-226-226q-13-13-13-30t13-30q6-7 14.5-10t15.5-3q6 0 14.5 3t15.5 10l256 256q12 13 12 30t-12 30zM371 713q-13 12-30 12t-30-12L55 457q-12-13-12-30t12-30l256-256q7-7 14-10t16-3q10 0 17 3t13 10q13 13 13 30t-13 30L145 427l226 226q13 13 13 30t-13 30z"/><glyph glyph-name="uniE940" unicode="" d="M981 269v320l-2 6-2 7q-3 3-4 5.5t-4 2.5L542 887h-9q-6 4-14.5 4t-15.5-4h-8L68 610q-6 0-10-2.5t-7-5.5q-3-7-4-10.5t-4-6.5V260l2-6 2-7q3-3 4-5.5t4-2.5L482-38h9l4.5-2.5L503-43q4 0 7 .5t6 4.5h9l426 277q4 3 7 5.5t6 2.5q10 10 12 14.5t5 7.5zM128 495l98-68-98-69v137zm384-166l-141 98 141 98 141-98-141-98zm43 268v180l307-201-137-98-170 119zm-86 0L299 478l-137 98 307 201V597zM299 375l170-119V81L162 282l137 93zm256-119l170 119 137-93L555 77v179zm243 171l98 68V358l-98 69z"/><glyph glyph-name="uniE941" unicode="" d="M768 341h-85v171h85q70 0 120.5 50T939 683q0 70-50.5 120T768 853t-120.5-50T597 683v-86H427v86q0 70-50.5 120T256 853t-120.5-50T85 683q0-71 50.5-121T256 512h85V341h-85q-70 0-120.5-50T85 171q0-71 50.5-121T256 0t120.5 50T427 171v85h170v-85q0-71 50.5-121T768 0t120.5 50T939 171q0 70-50.5 120T768 341zm-85 342q0 35 25 60t60 25 60-25 25-60q0-36-25-61t-60-25h-85v86zM341 171q0-36-25-61t-60-25-60 25-25 61q0 35 25 60t60 25h85v-85zm0 426h-85q-35 0-60 25t-25 61q0 35 25 60t60 25 60-25 25-60v-86zm256-256H427v171h170V341zM768 85q-35 0-60 25t-25 61v85h85q35 0 60-25t25-60q0-36-25-61t-60-25z"/><glyph glyph-name="uniE942" unicode="" d="M512 896q-98 0-183-37-86-36-149.5-100T79 610q-36-86-36-183 0-98 36-183 37-86 100.5-149.5T329-6q85-37 183-37T695-6q86 37 149.5 100.5T945 244q36 85 36 183 0 97-36 183-37 85-100.5 149T695 859q-85 37-183 37zm0-853q-80 0-150 30t-122 82-82 122-30 150 30 150 82 122 122 82 150 30 150-30 122-82 82-122 30-150-30-150-82-122-122-82-150-30zm166 606l-268-90q-10-3-18.5-11.5T380 529l-90-273q-3-13-.5-24.5T299 213q6-6 13-9t17-3q3 0 6 .5t6 3.5l273 89q10 4 16.5 10t9.5 16l90 273q3 13 0 24.5t-9 18.5q-6 9-18 12.5t-25 .5zM567 371l-170-55 55 170 171 56z"/><glyph glyph-name="uniE943" unicode="" d="M853 597H469q-54 0-91-36.5T341 469V85q0-54 37-91t91-37h384q55 0 91.5 37T981 85v384q0 55-36.5 91.5T853 597zm43-512q0-19-11.5-30.5T853 43H469q-19 0-30.5 11.5T427 85v384q0 20 11.5 31.5T469 512h384q20 0 31.5-11.5T896 469V85zM213 341h-42q-20 0-31.5 12T128 384v384q0 19 11.5 31t31.5 12h384q19 0 30.5-12t11.5-31v-43q0-19 12-30.5t31-11.5 31 11.5 12 30.5v43q0 54-37 91t-91 37H171q-55 0-91.5-37T43 768V384q0-54 36.5-91t91.5-37h42q20 0 31.5 11.5T256 299q0 19-11.5 30.5T213 341z"/><glyph glyph-name="uniE944" unicode="" d="M853 811q-19 0-30.5-12T811 768V469q0-54-37-91t-91-37H273l141 141q13 13 13 30t-13 30-30 13-30-13L141 329q-3-4-6-7t-3-6q-3-7-3-16t3-18q3-4 4.5-7t4.5-6L354 55q7-6 13.5-9t16.5-3 16.5 3 13.5 9q13 13 13 30t-13 30L273 256h410q44 0 83 17 39 16 68 45t45 68q17 39 17 83v299q0 19-11.5 31T853 811z"/><glyph glyph-name="uniE945" unicode="" d="M892 282q3 6 3 15t-3 19q-3 3-4.5 6t-4.5 7L670 542q-13 13-30 13t-30-13-13-30 13-30l141-141H341q-54 0-91 37t-37 91v299q0 19-11.5 31T171 811q-20 0-31.5-12T128 768V469q0-44 17-83 16-39 45-68t68-45q39-17 83-17h410L610 115q-13-13-13-30t13-30q7-6 15.5-9t14.5-3 14.5 3 15.5 9l213 214 6 6 3 7z"/><glyph glyph-name="uniE946" unicode="" d="M853 811H555q-45 0-84-17-39-16-68-45t-45-68q-17-39-17-84V188L201 329q-13 12-30 12t-30-12q-13-13-13-30t13-30L354 55q3-3 6.5-5.5T367 47q3-3 8.5-3.5t8.5-.5 8.5.5T401 47t6.5 4 6.5 4l213 214q13 13 13 30t-13 30q-13 12-30 12t-30-12L427 188v409q0 55 36.5 91.5T555 725h298q20 0 31.5 12t11.5 31-11.5 31-31.5 12z"/><glyph glyph-name="uniE947" unicode="" d="M853 128H555q-55 0-91.5 37T427 256v410l140-141q7-7 14-10t16-3q10 0 17 3t13 10q13 13 13 30t-13 30L414 798q-3 3-6.5 5.5T401 806q-10 4-17 4t-17-4q-3 0-6.5-2.5T354 798L141 585q-13-13-13-30t13-30 30-13 30 13l140 141V256q0-45 17-84 16-39 45-67.5T471 59q39-16 84-16h298q20 0 31.5 11.5T896 85q0 20-11.5 31.5T853 128z"/><glyph glyph-name="uniE948" unicode="" d="M883 329q-13 12-30 12t-30-12L683 188v409q0 45-17 84-16 39-45 68t-68 45q-39 17-84 17H171q-20 0-31.5-12T128 768t11.5-31 31.5-12h298q55 0 91.5-36.5T597 597V188L457 329q-13 12-30 12t-30-12q-13-13-13-30t13-30L610 55q3-3 6.5-5.5T623 47q3-3 8.5-3.5t8.5-.5 8.5.5T657 47t6.5 4 6.5 4l213 214q13 13 13 30t-13 30z"/><glyph glyph-name="uniE949" unicode="" d="M883 585L670 798q-3 3-6.5 5.5T657 806q-6 4-15 4t-19-4q-3-3-6.5-4t-6.5-4L397 585q-13-13-13-30t13-30 30-13 30 13l140 141V256q0-54-36.5-91T469 128H171q-20 0-31.5-11.5T128 85q0-19 11.5-30.5T171 43h298q45 0 84 16 39 17 68 45.5t45 67.5q17 39 17 84v410l140-141q7-7 14-10t16-3q10 0 17 3t13 10q13 13 13 30t-13 30z"/><glyph glyph-name="uniE94A" unicode="" d="M683 597H273l141 141q13 13 13 30t-13 30-30 13-30-13L141 585q-3-4-6-7t-3-6q-3-10-3-17.5t3-16.5q3-4 4.5-7t4.5-6l213-214q7-6 13.5-9t16.5-3 16.5 3 13.5 9q13 13 13 30t-13 30L273 512h410q54 0 91-37t37-91V85q0-19 11.5-30.5T853 43q20 0 31.5 11.5T896 85v299q0 45-17 84-16 39-45 67.5T766 581q-39 16-83 16z"/><glyph glyph-name="uniE94B" unicode="" d="M892 538q3 6 3 15t-3 19q-3 3-4.5 6t-4.5 7L670 798q-13 13-30 13t-30-13-13-30 13-30l141-141H341q-44 0-83-16-39-17-68-45.5T145 468q-17-39-17-84V85q0-19 11.5-30.5T171 43q19 0 30.5 11.5T213 85v299q0 54 37 91t91 37h410L610 371q-13-13-13-30t13-30q7-6 15.5-9t14.5-3 14.5 3 15.5 9l213 214 6 6 3 7z"/><glyph glyph-name="uniE94C" unicode="" d="M640 597H384q-19 0-31-11.5T341 555V299q0-20 12-31.5t31-11.5h256q19 0 31 11.5t12 31.5v256q0 19-12 30.5T640 597zm-43-256H427v171h170V341zm384 43h-85v128h85q20 0 31.5 11.5T1024 555q0 19-11.5 30.5T981 597h-85v86q0 54-37 91t-91 37h-85v85q0 19-12 31t-31 12-31-12-12-31v-85H427v85q0 19-12 31t-31 12-31-12-12-31v-85h-85q-54 0-91-37t-37-91v-86H43q-20 0-31.5-11.5T0 555q0-20 11.5-31.5T43 512h85V384H43q-20 0-31.5-11.5T0 341q0-19 11.5-30.5T43 299h85V171q0-55 37-91.5T256 43h85v-86q0-19 12-30.5T384-85t31 11.5T427-43v86h170v-86q0-19 12-30.5T640-85t31 11.5T683-43v86h85q54 0 91 36.5t37 91.5v128h85q20 0 31.5 11.5T1024 341q0 20-11.5 31.5T981 384zM811 171q0-20-12-31.5T768 128H256q-19 0-31 11.5T213 171v512q0 19 12 30.5t31 11.5h512q19 0 31-11.5t12-30.5V171z"/><glyph glyph-name="uniE94D" unicode="" d="M896 811H128q-54 0-91-37T0 683V171q0-55 37-91.5T128 43h768q54 0 91 36.5t37 91.5v512q0 54-37 91t-91 37zm-768-86h768q19 0 31-11.5t12-30.5V555H85v128q0 19 12 30.5t31 11.5zm768-597H128q-19 0-31 11.5T85 171v298h854V171q0-20-12-31.5T896 128z"/><glyph glyph-name="uniE94E" unicode="" d="M981 213H811v384q0 55-37 91.5T683 725l-380-4v175q0 19-12 31t-31 12q-16 0-29-12t-13-31V721H43q-20 0-31.5-13.5T0 678t13.5-29T43 636h175l-5-380q0-54 37-91t91-37h384V-43q0-19 12-30.5T768-85t31 11.5T811-43v171h170q20 0 31.5 11.5T1024 171q0 19-11.5 30.5T981 213zm-640 0q-19 0-30.5 12T299 256l4 380 380 4q19 0 30.5-11.5T725 597V213H341z"/><glyph glyph-name="uniE94F" unicode="" d="M512 896q-98 0-183-37-86-36-149.5-100T79 610q-36-86-36-183 0-98 36-183 37-86 100.5-149.5T329-6q85-37 183-37T695-6q86 37 149.5 100.5T945 244q36 85 36 183 0 97-36 183-37 85-100.5 149T695 859q-85 37-183 37zm43-849v124q0 19-12 30.5T512 213t-31-11.5-12-30.5V47q-67 8-126 37-58 29-103 74t-73 103q-28 57-35 123h124q19 0 31 11.5t12 31.5q0 19-12 30.5T256 469H132q7 68 35 126 28 59 73 103.5T343 772q59 28 126 34V683q0-20 12-31.5t31-11.5 31 11.5 12 31.5v123q67-8 126-37 58-29 103-73.5T857 593t35-124H768q-19 0-31-11.5T725 427q0-20 12-31.5t31-11.5h124q-7-67-35-126t-73-103.5T681 82q-59-29-126-35z"/><glyph glyph-name="uniE950" unicode="" d="M512 896q-77 0-153-10-76-11-137-32t-99-53-38-76V128q0-43 38-75T222-.5 359-32q76-11 153-11t153 11Q741-22 802-.5T901 53t38 75v597q0 44-38 76t-99 53-137 32q-76 10-153 10zm341-469q0-8-20-23-20-14-62-28t-107-24q-64-11-152-11t-152 11q-65 10-107 24t-62 28q-20 15-20 23v192q30-16 69-28t83.5-20 92.5-12 96-4 96 4 92.5 12 83.5 20 69 28V427zM512 811q83 0 147-11 64-10 107-24t65-28q22-15 22-23t-22-22-65-28-107-25q-64-10-147-10t-147 10q-64 11-107 25t-65 28-22 22 22 23q22 14 65 28t107 24q64 11 147 11zm0-768q-88 0-152 10-65 10-107 24t-62 29q-20 14-20 22v192q30-16 69-28t83.5-20 92.5-12 96-4 96 4 92.5 12 83.5 20 69 28V128q0-8-20-22-20-15-62-29T664 53q-64-10-152-10z"/><glyph glyph-name="uniE951" unicode="" d="M896 811H341q-9 0-18-3.5t-16-9.5L9 457q-10-13-10-28t10-28L307 60q7-10 16-13.5t18-3.5h555q54 0 91 36.5t37 91.5v512q0 54-37 91t-91 37zm43-640q0-20-12-31.5T896 128H363L102 427l261 298h533q19 0 31-11.5t12-30.5V171zM798 585q-13 12-30 12t-30-12l-98-99-98 99q-13 12-30 12t-30-12q-13-13-13-30t13-30l98-98-98-98q-13-13-13-30t13-30q7-7 15.5-10t14.5-3 14.5 3 15.5 10l98 98 98-98q7-7 15.5-10t14.5-3 14.5 3 15.5 10q13 13 13 30t-13 30l-98 98 98 98q13 13 13 30t-13 30z"/><glyph glyph-name="uniE952" unicode="" d="M512 896q-98 0-183-37-86-36-149.5-100T79 610q-36-86-36-183 0-98 36-183 37-86 100.5-149.5T329-6q85-37 183-37T695-6q86 37 149.5 100.5T945 244q36 85 36 183 0 97-36 183-37 85-100.5 149T695 859q-85 37-183 37zm0-853q-80 0-150 30t-122 82-82 122-30 150 30 150 82 122 122 82 150 30 150-30 122-82 82-122 30-150-30-150-82-122-122-82-150-30zm0 554q-70 0-120.5-50T341 427q0-71 50.5-121T512 256t120.5 50T683 427q0 70-50.5 120T512 597zm0-256q-35 0-60 25t-25 61q0 35 25 60t60 25 60-25 25-60q0-36-25-61t-60-25z"/><glyph glyph-name="uniE953" unicode="" d="M619 469h-64v214h170q20 0 31.5 11.5T768 725q0 20-11.5 31.5T725 768H555v128q0 19-12 31t-31 12-31-12-12-31V768h-64q-80 0-136-56t-56-136 56-136 136-56h64V171H256q-19 0-31-12t-12-31 12-31 31-12h213V-43q0-19 12-30.5T512-85t31 11.5T555-43V85h64q80 0 136 56t56 136-56 136-136 56zm-214 0q-44 0-75 31t-31 76 31 76 75 31h64V469h-64zm214-298h-64v213h64q44 0 75-31t31-76q0-44-31-75t-75-31z"/><glyph glyph-name="uniE954" unicode="" d="M896 341q-19 0-31-11.5T853 299V128q0-19-11.5-31T811 85H213q-19 0-30.5 12T171 128v171q0 19-12 30.5T128 341t-31-11.5T85 299V128q0-54 37-91t91-37h598q54 0 91 37t37 91v171q0 19-12 30.5T896 341zm-414-72q3-3 6.5-6t6.5-3q3-3 8.5-3.5t8.5-.5 8.5.5 8.5 3.5 6.5 4.5 6.5 4.5l213 213q13 13 13 30t-13 30-30 13-30-13L555 401v410q0 19-12 30.5T512 853t-31-11.5-12-30.5V401L329 542q-13 13-30 13t-30-13-13-30 13-30l213-213z"/><glyph glyph-name="uniE955" unicode="" d="M653 243l-98-98v282q0 19-12 30.5T512 469t-31-11.5-12-30.5V145l-98 98q-13 13-30 13t-30-13q-12-13-12-30t12-30L482 13q3-3 6.5-6t6.5-3q3-3 8.5-3.5T512 0t8.5.5T529 4t6.5 4.5T542 13l171 170q12 13 12 30t-12 30q-13 13-30 13t-30-13zm324 248q-35 48-90 77t-119 29h-21q-24 71-72 125-47 54-108.5 86.5T433 851q-71 9-143-10-77-20-137-64T51 666Q13 598 1 523.5T9 375q12-44 32.5-84.5T94 218q13-13 30-15t30 10q12 13 14.5 30T158 273q-23 26-40.5 57.5T94 397q-16 57-7 116t41 110 79 87.5T311 759q60 16 118 7 59-9 108.5-38t85.5-76q37-47 51-106 3-13 15-23.5t28-10.5h51q42 0 78.5-18.5T909 439q19-28 27.5-60t2.5-68q-7-35-25-63t-44-47q-16-10-18.5-27t10.5-33q6-10 15-13.5t19-3.5q6 0 12.5 2.5T922 132q41 29 69 72t37 95q10 51-6 99t-45 93z"/><glyph glyph-name="uniE956" unicode="" d="M785 614L542 853q-7 7-13.5 10t-16.5 3q-10 0-16.5-3T482 853L243 614q-57-54-86-125t-29-148q0-76 28.5-147T239 68q54-54 125-82.5T512-43q77 0 148 28.5T785 68q56 56 84 127t28 145-28 145q-28 72-84 129zm-60-486q-44-42-98-63.5T512 43q-61 0-114 21.5T303 128q-45 45-67.5 99T213 341q0 61 22 114.5t64 94.5l209 214 213-214q45-43 67-97 23-55 23.5-112T790 228q-21-55-65-100z"/><glyph glyph-name="uniE957" unicode="" d="M853 354q-19 0-30.5-11.5T811 311V85q0-19-12-30.5T768 43H171q-20 0-31.5 11.5T128 85v598q0 19 11.5 30.5T171 725h226q19 0 30.5 12t11.5 31-11.5 31-30.5 12H171q-55 0-91.5-37T43 683V85q0-54 36.5-91T171-43h597q54 0 91 37t37 91v226q0 20-11.5 31.5T853 354zm116 359L798 883q-13 13-30 13t-30-13L311 457q-6-7-9-14t-3-16V256q0-19 11.5-31t30.5-12h171q10 0 16.5 3.5T542 226l427 427q12 13 12 30t-12 30zM495 299H384v111l384 384 111-111z"/><glyph glyph-name="uniE958" unicode="" d="M926 627L713 841q-13 12-30 12t-30-12L98 286q-6-7-9.5-13.5T85 256V43q0-20 12-31.5T128 0h213q10 0 17 3t13 10l555 554q13 13 13 30t-13 30zM324 85H171v154l512 512 153-154L324 85z"/><glyph glyph-name="uniE959" unicode="" d="M128 171h171q9 0 16 3t14 9l469 470q13 13 13 30t-13 30L627 883q-13 13-30 13t-30-13L98 414q-6-7-9.5-13.5T85 384V213q0-19 12-30.5t31-11.5zm43 196l426 427 111-111-426-427H171v111zM896 43H128q-19 0-31-12T85 0t12-31 31-12h768q19 0 31 12t12 31-12 31-31 12z"/><glyph glyph-name="uniE95A" unicode="" d="M768 427q-19 0-31-12t-12-31V128q0-19-11.5-31T683 85H213q-19 0-30.5 12T171 128v469q0 20 11.5 31.5T213 640h256q20 0 31.5 11.5T512 683q0 19-11.5 30.5T469 725H213q-54 0-91-36.5T85 597V128q0-54 37-91t91-37h470q54 0 91 37t37 91v256q0 19-12 31t-31 12zm166 401q-3 6-9 12t-12 9q-3 3-8.5 3.5t-8.5.5H640q-19 0-31-11.5T597 811q0-20 12-31.5t31-11.5h154L397 371q-13-13-13-30t13-30q6-6 13-9t17-3q9 0 16 3t14 9l396 397V555q0-20 12-31.5t31-11.5 31 11.5 12 31.5v256q0 3-.5 8.5T934 828z"/><glyph glyph-name="uniE95B" unicode="" d="M1020 444q-3 6-38 64t-99.5 125.5T725 756t-213 55-213-55-157.5-122.5T42 508 4 444q-3-10-3-19.5T4 405q3-4 38-62 35-57 99.5-124T299 98q93-55 213-55t213 55 157.5 122T982 345t38 65q3 6 3 16.5t-3 17.5zM512 128q-86 0-157 37t-124.5 86.5T141 351q-35 50-51 76 14 25 49 75 36 50 90 99.5T354 688q72 37 158 37t157-37 124.5-86.5T883 502q35-50 51-75-16-26-51-76-36-50-89.5-99.5T669 165t-157-37zm0 469q-70 0-120.5-50T341 427q0-71 50.5-121T512 256t120.5 50T683 427q0 70-50.5 120T512 597zm0-256q-35 0-60 25t-25 61q0 35 25 60t60 25 60-25 25-60q0-36-25-61t-60-25z"/><glyph glyph-name="uniE95C" unicode="" d="M431 717q19 3 40.5 5.5T512 725q86 0 157-37t124.5-86.5T883 502q35-50 51-75-16-29-35-57t-41-50q-13-13-11-31.5t15-28.5q6-6 12.5-7t12.5-1q10 0 19 3.5t16 13.5q28 32 51.5 69t46.5 76q6 9 6 19t-6 19q-3 3-38 60-35 56-99.5 122.5T725 756t-213 55q-26 0-51-3.5t-47-9.5q-19-3-28-17.5t-6-33.5q6-16 20.5-24.5T431 717zm580-730L73 926q-13 13-30 13t-30-13-13-30 13-30l183-183q-57-52-105-110T4 448q-6-10-6-19.5T4 410q3-7 38-65t99.5-125T299 98t213-55q67 0 130 19t117 57L951-73q7-6 15.5-9t14.5-3q7 0 15.5 3t14.5 9q13 13 13 30t-13 30zM427 452l106-106q-6-4-12.5-4.5T508 341q-16 0-31.5 6T448 363q-13 12-19.5 27.5T422 422q0 7 2.5 14t2.5 16zm85-324q-86 0-157 37t-124.5 86.5T141 351q-35 50-51 76 32 57 73.5 105.5T256 623l107-111q-13-22-19.5-47.5T337 414q0-35 15-66t41-54q22-22 52.5-34.5T508 247h4q22 0 44 8t41 18l98-98q-41-22-88-34.5T512 128z"/><glyph glyph-name="uniE95D" unicode="" d="M768 640q19 0 31 11.5t12 31.5v170q0 20-12 31.5T768 896H640q-53 0-99-20-47-20-82-55t-55-82q-20-46-20-99v-85h-85q-20 0-31.5-12T256 512V341q0-19 11.5-30.5T299 299h85V0q0-19 11.5-31T427-43h170q20 0 31.5 12T640 0v299h85q16 0 28 9t15 25l43 170q3 10 .5 19.5T802 542q-6 9-15 11t-19 2H640v85h128zM597 469h116l-22-85h-94q-19 0-30.5-11.5T555 341V43h-86v298q0 20-11.5 31.5T427 384h-86v85h86q19 0 30.5 12t11.5 31v128q0 70 50.5 120.5T640 811h85v-86h-85q-35 0-60-25t-25-60V512q0-19 11.5-31t30.5-12z"/><glyph glyph-name="uniE95E" unicode="" d="M964 461L580 759q-9 7-21.5 9t-25.5-4q-9-7-15-16.5t-6-22.5V128q0-13 6.5-22.5T538 90q3-4 8-4.5t9-.5q6 0 12.5 3t12.5 6l384 299q7 6 12 15t5 19q0 9-3.5 18T964 461zM597 213v427l273-213-273-214zM111 759q-10 7-21.5 9T68 764q-13-7-19-16.5T43 725V128q0-13 6-22.5T68 90q3-4 8.5-4.5T85 85q7 0 13.5 3t12.5 6l384 299q6 6 11.5 15t5.5 19q0 9-3.5 18T495 461L111 759zm17-546v427l273-213-273-214z"/><glyph glyph-name="uniE95F" unicode="" d="M892 811q-43 43-99 64-55 22-112.5 22T568 875q-55-21-99-64L183 521q-6-7-9-14t-3-16V145L55 30Q43 17 43 0t12-30q7-6 14-9.5T85-43q10 0 17 3.5t13 9.5L230 85h346q10 0 16.5 3.5T606 98l286 290q45 43 67 98t22 112-22 112q-22 56-67 101zM559 171H316l85 85h243l-85-85zm273 277L730 341H486l227 226q12 13 12 30t-12 30q-13 13-30 13t-30-13L354 329l-98-99v244l277 277q32 32 72 48 39 16 80 16t80-16 71-48q31-32 46-72t14.5-81-16.5-80q-16-40-48-70z"/><glyph glyph-name="uniE960" unicode="" d="M892 572q-3 3-4.5 6t-4.5 7L585 883q-4 3-7 6t-6 3q-3 3-8.5 3.5t-8.5.5H256q-54 0-91-37t-37-91V85q0-54 37-91t91-37h512q54 0 91 37t37 91v470q0 3-.5 8.5T892 572zM597 751l154-154H597v154zM768 43H256q-19 0-31 11.5T213 85v683q0 19 12 31t31 12h256V555q0-20 11.5-31.5T555 512h256V85q0-19-12-30.5T768 43z"/><glyph glyph-name="uniE961" unicode="" d="M892 614q-3 4-4.5 7t-4.5 6L627 883l-6 6-7 3q-3 3-8 3.5t-9 .5H256q-54 0-91-37t-37-91V85q0-54 37-91t91-37h512q54 0 91 37t37 91v512q0 4-.5 9t-3.5 8zM640 751l111-111H640v111zM768 43H256q-19 0-31 11.5T213 85v683q0 19 12 31t31 12h299V597q0-19 11.5-30.5T597 555h214V85q0-19-12-30.5T768 43zM640 341H384q-19 0-31-11.5T341 299q0-20 12-31.5t31-11.5h256q19 0 31 11.5t12 31.5q0 19-12 30.5T640 341z"/><glyph glyph-name="uniE962" unicode="" d="M892 614q-3 4-4.5 7t-4.5 6L627 883l-6 6-7 3q-3 3-8 3.5t-9 .5H256q-54 0-91-37t-37-91V85q0-54 37-91t91-37h512q54 0 91 37t37 91v512q0 4-.5 9t-3.5 8zM640 751l111-111H640v111zM768 43H256q-19 0-31 11.5T213 85v683q0 19 12 31t31 12h299V597q0-19 11.5-30.5T597 555h214V85q0-19-12-30.5T768 43zM640 341h-85v86q0 19-12 30.5T512 469t-31-11.5-12-30.5v-86h-85q-19 0-31-11.5T341 299q0-20 12-31.5t31-11.5h85v-85q0-20 12-31.5t31-11.5 31 11.5 12 31.5v85h85q19 0 31 11.5t12 31.5q0 19-12 30.5T640 341z"/><glyph glyph-name="uniE963" unicode="" d="M892 614q-3 4-4.5 7t-4.5 6L627 883l-6 6-7 3q-3 3-8 3.5t-9 .5H256q-54 0-91-37t-37-91V85q0-54 37-91t91-37h512q54 0 91 37t37 91v512q0 4-.5 9t-3.5 8zM640 751l111-111H640v111zM768 43H256q-19 0-31 11.5T213 85v683q0 19 12 31t31 12h299V597q0-19 11.5-30.5T597 555h214V85q0-19-12-30.5T768 43zm-85 384H341q-19 0-30.5-12T299 384t11.5-31 30.5-12h342q19 0 30.5 12t11.5 31-11.5 31-30.5 12zm0-171H341q-19 0-30.5-11.5T299 213q0-19 11.5-30.5T341 171h342q19 0 30.5 11.5T725 213q0 20-11.5 31.5T683 256zM341 512h86q19 0 30.5 11.5T469 555q0 19-11.5 30.5T427 597h-86q-19 0-30.5-11.5T299 555q0-20 11.5-31.5T341 512z"/><glyph glyph-name="uniE964" unicode="" d="M845 896H179q-57 0-96.5-39.5T43 759V94q0-58 39.5-97.5T179-43h666q57 0 96.5 39.5T981 94v665q0 58-39.5 97.5T845 896zm-77-299h128V469H768v128zm-85-128H341v342h342V469zm-427 0H128v128h128V469zm-128-85h128V256H128v128zm213 0h342V43H341v341zm427 0h128V256H768v128zm128 375v-76H768v128h77q22 0 36.5-14.5T896 759zm-717 52h77V683H128v76q0 23 14.5 37.5T179 811zM128 94v77h128V43h-77q-22 0-36.5 14T128 94zm717-51h-77v128h128V94q0-23-14.5-37T845 43z"/><glyph glyph-name="uniE965" unicode="" d="M977 828q-6 13-16 19t-22 6H85q-12 0-22-6t-16-19q-6-10-4-21.5t8-21.5l333-392V128q0-13 6.5-22.5T410 90L580 4q3-3 7-3.5t10-.5q7 0 12.5.5T619 4q9 7 15 16.5t6 22.5v350l333 392q6 10 8 21.5t-4 21.5zM563 435q-3-6-5.5-13t-2.5-17V111l-86 43v251q0 7-2.5 15t-5.5 11L179 768h670L563 435z"/><glyph glyph-name="uniE966" unicode="" d="M870 849q-12 6-24.5 3.5T823 841l-32-15-108-15q-42 0-79 12.5T529 849q-42 19-87.5 33T341 896q-102 0-148-24.5T141 841q-7-7-10-14t-3-16V0q0-19 11.5-31T171-43q19 0 30.5 12T213 0v277q13 7 45 14.5t83 7.5q42 0 79-13t75-26q42-16 87.5-31.5T683 213q102 0 148 24.5t52 31.5q7 6 10 13t3 17v512q0 12-6.5 22T870 849zm-59-529q-13-6-45-13.5t-83-7.5q-42 0-79 12.5T529 337q-42 19-87.5 33T341 384q-41 0-73-5.5T213 367v422q13 7 45 14.5t83 7.5q42 0 79-13t75-26q42-19 87.5-33T683 725q41 0 73 5.5t55 11.5V320z"/><glyph glyph-name="uniE967" unicode="" d="M853 725H491l-73 111q-6 7-15 12t-19 5H171q-55 0-91.5-36.5T43 725V128q0-54 36.5-91T171 0h682q55 0 91.5 37t36.5 91v469q0 55-36.5 91.5T853 725zm43-597q0-19-11.5-31T853 85H171q-20 0-31.5 12T128 128v597q0 20 11.5 31.5T171 768h192l72-111q7-6 16-11.5t18-5.5h384q20 0 31.5-11.5T896 597V128z"/><glyph glyph-name="uniE968" unicode="" d="M853 725H491l-73 111q-6 7-15 12t-19 5H171q-55 0-91.5-36.5T43 725V128q0-54 36.5-91T171 0h682q55 0 91.5 37t36.5 91v469q0 55-36.5 91.5T853 725zm43-597q0-19-11.5-31T853 85H171q-20 0-31.5 12T128 128v597q0 20 11.5 31.5T171 768h192l72-111q7-6 16-11.5t18-5.5h384q20 0 31.5-11.5T896 597V128zM640 384H384q-19 0-31-11.5T341 341q0-19 12-30.5t31-11.5h256q19 0 31 11.5t12 30.5q0 20-12 31.5T640 384z"/><glyph glyph-name="uniE969" unicode="" d="M853 725H491l-73 111q-6 7-15 12t-19 5H171q-55 0-91.5-36.5T43 725V128q0-54 36.5-91T171 0h682q55 0 91.5 37t36.5 91v469q0 55-36.5 91.5T853 725zm43-597q0-19-11.5-31T853 85H171q-20 0-31.5 12T128 128v597q0 20 11.5 31.5T171 768h192l72-111q7-6 16-11.5t18-5.5h384q20 0 31.5-11.5T896 597V128zM640 384h-85v85q0 20-12 31.5T512 512t-31-11.5-12-31.5v-85h-85q-19 0-31-11.5T341 341q0-19 12-30.5t31-11.5h85v-86q0-19 12-30.5t31-11.5 31 11.5 12 30.5v86h85q19 0 31 11.5t12 30.5q0 20-12 31.5T640 384z"/><glyph glyph-name="uniE96A" unicode="" d="M939 683q0 70-50.5 120T768 853t-120.5-50T597 683q0-58 37-104t91-58q-6-60-32-112t-66.5-92.5T534 250t-112-32q-12 44-44.5 76.5T303 337v474q0 19-12 30.5T260 853t-33-11.5-14-30.5V337q-54-13-91-59.5T85 171q0-71 50.5-121T256 0q61 0 105.5 37t60.5 91q77 6 145 39t120 85 85 120q32 67 39 144 54 16 91 61t37 106zM256 85q-35 0-60 25t-25 61q0 35 25 60t60 25 60-25 25-60q0-36-25-61t-60-25zm512 512q-35 0-60 25t-25 61q0 35 25 60t60 25 60-25 25-60q0-36-25-61t-60-25z"/><glyph glyph-name="uniE96B" unicode="" d="M981 469H721q-16 74-74 122.5T512 640t-135-48.5T303 469H43q-20 0-31.5-11.5T0 427q0-20 11.5-31.5T43 384h260q16-74 74-122.5T512 213t135 48.5T721 384h260q20 0 31.5 11.5T1024 427q0 19-13.5 30.5T981 469zM512 299q-54 0-91 36.5T384 427q0 54 37 91t91 37 91-37 37-91q0-55-37-91.5T512 299z"/><glyph glyph-name="uniE96C" unicode="" d="M768 341q-58 0-103.5-36.5T606 213q-59 7-112 33-52 26-92.5 66T335 405q-26 52-32 111 54 16 91 60.5T431 678q0 71-50 121t-121 50q-70 0-122.5-48T85 683q0-61 37-106t91-61V43q0-20 12-31.5T256 0t31 11.5T299 43v256q27-36 60-65 34-29 72-51t81-36 90-19q12-54 58.5-93T768-4q70 0 120.5 50T939 166q0 71-50.5 123T768 341zM171 683q0 35 25 60t60 25 60-25 25-60q0-36-25-61t-60-25-60 25-25 61zM768 85q-35 0-60 25t-25 61q0 35 25 60t60 25 60-25 25-60q0-36-25-61t-60-25z"/><glyph glyph-name="uniE96D" unicode="" d="M811 337v260q0 55-37 91.5T683 725H555q-20 0-31.5-11.5T512 683q0-20 11.5-31.5T555 640h128q19 0 30.5-11.5T725 597V337q-54-13-91-59.5T597 171q0-71 50.5-121T768 0t120.5 50T939 171q0 60-37 105t-91 61zM768 85q-35 0-60 25t-25 61q0 35 25 60t60 25 60-25 25-60q0-36-25-61t-60-25zM256 853q-70 0-120.5-50T85 683q0-61 37-106t91-61V43q0-20 12-31.5T256 0t31 11.5T299 43v473q54 13 91 59.5T427 683q0 70-50.5 120T256 853zm0-256q-35 0-60 25t-25 61q0 35 25 60t60 25 60-25 25-60q0-36-25-61t-60-25z"/><glyph glyph-name="uniE96E" unicode="" d="M960 576q0 48-15.5 90T900 747q10 41 6.5 84.5T887 913q-3 10-9.5 16T862 939q-13 3-57-1.5T674 879q-70 16-142 16t-139-16q-87 54-131 58.5t-57 1.5q-10-4-16.5-10t-9.5-16q-19-42-22-83.5t9-82.5q-28-39-43.5-82.5T107 576q0-86 22-145 21-58 56.5-96t79.5-58 89-30q-6-22-9.5-41.5T341 166v-4q-67-13-97.5 8T188 226q-16 23-37.5 44.5T94 299q-16 3-32-5.5T43 269q-4-16 5-32t25-19q9-4 21.5-15.5T119 175q29-38 77.5-76.5T341 73V0q0-19 12-31t31-12 31 12 12 31v166q0 23 7 42t23 35q9 10 11.5 21.5T465 286q-3 13-12 20t-22 10q-46 6-90 19-43 12-76 40t-53 75-20 122q0 38 13 70.5t38 61.5q10 10 11 21.5t-2 21.5q-10 28-10.5 54.5T247 853q16-3 44.5-14.5T358 798q10-7 19.5-7.5T397 794q67 19 138.5 19T674 794q10-4 19-1.5t15 5.5q42 29 70 40.5t41 14.5q7-25 6.5-50.5T815 751q-3-13-2-24.5t10-18.5q26-25 39-59.5t13-72.5q0-75-20-123-20-47-53.5-75T725 337q-43-12-89-17-13 0-22-8.5T602 290q-4-13-1-24.5t9-18.5q16-16 23-37t7-44V0q0-19 11.5-31T683-43q19 0 30.5 12T725 0v162q4 23 .5 42.5T713 243q38 8 81 27 44 19 80.5 56.5T936 424q24 61 24 152z"/><glyph glyph-name="uniE96F" unicode="" d="M1020 380L862 858q-3 6-7 12.5T845 883q-16 16-40.5 16T764 883q-7-3-10.5-9.5T747 858l-94-291H371l-94 291q-3 6-6.5 12.5T260 883q-16 16-40.5 16T179 883q-6-3-10-9.5t-7-15.5L4 380q-9-26-.5-50T34 290L486-38q7-4 13.5-6.5T512-47t12.5 2.5T538-38l452 328q22 13 30.5 38.5t-.5 51.5zM512 47L85 354l133 405 81-247q3-13 14.5-21.5T341 482h342q12 0 24 8.5t18 21.5l81 247 81-247 52-154L512 47z"/><glyph glyph-name="uniE970" unicode="" d="M512 896q-98 0-183-37-86-36-149.5-100T79 610q-36-86-36-183 0-98 36-183 37-86 100.5-149.5T329-6q85-37 183-37T695-6q86 37 149.5 100.5T945 244q36 85 36 183 0 97-36 183-37 85-100.5 149T695 859q-85 37-183 37zm380-427H721q-3 45-12 88t-23.5 84.5T651 722t-45 76q57-15 107-45 49-31 87-74.5t61-96.5q24-53 31-113zm-504-85h252q-5-43-15-85t-26-82-36-78q-21-37-47-71-29 34-51 71-22 38-38 78t-26 82-13 85zm0 85q5 44 15 86 11 42 26.5 82t36.5 77q20 37 46 71 27-35 49-73 21-38 36.5-78t25.5-82q10-41 13-83H388zm26 329q-24-37-43-76t-33-80.5-23-84.5-12-88H132q7 60 30 113 24 53 61.5 96.5T309 753q49 30 105 45zM132 384h171q3-45 12-88t23.5-84 34.5-81q20-39 45-76-57 15-107 46-49 31-87 74t-61 96q-24 54-31 113zM610 55q24 37 43 76 20 40 34 81t24 84 14 88h171q-8-59-33-113-24-53-62-96t-86-74q-49-31-105-46z"/><glyph glyph-name="uniE971" unicode="" d="M427 853H128q-19 0-31-11.5T85 811V512q0-19 12-31t31-12h299q19 0 30.5 12t11.5 31v299q0 19-11.5 30.5T427 853zm-43-298H171v213h213V555zm512 298H597q-19 0-30.5-11.5T555 811V512q0-19 11.5-31t30.5-12h299q19 0 31 12t12 31v299q0 19-12 30.5T896 853zm-43-298H640v213h213V555zm43-171H597q-19 0-30.5-11.5T555 341V43q0-20 11.5-31.5T597 0h299q19 0 31 11.5T939 43v298q0 20-12 31.5T896 384zM853 85H640v214h213V85zM427 384H128q-19 0-31-11.5T85 341V43q0-20 12-31.5T128 0h299q19 0 30.5 11.5T469 43v298q0 20-11.5 31.5T427 384zM384 85H171v214h213V85z"/><glyph glyph-name="uniE972" unicode="" d="M977 444L828 738q-16 32-46.5 52.5T713 811H307q-35 0-65-19t-46-54L51 444q-6-3-7-7t-1-10V171q0-55 36.5-91.5T171 43h682q55 0 91.5 36.5T981 171v256q0 6-.5 10t-3.5 7zM269 700q6 13 17.5 19t20.5 6h406q12 0 22-6t16-19l115-231H154zm584-572H171q-20 0-31.5 11.5T128 171v213h768V171q0-20-11.5-31.5T853 128zM226 286q-6-7-9.5-13.5T213 256t3.5-16.5T226 226q7-6 13.5-9.5T256 213t16.5 3.5T286 226q6 7 9.5 13.5T299 256t-3.5 16.5T286 286q-13 13-30 13t-30-13zm171 0q-7-7-10-13.5t-3-16.5 3-16.5 10-13.5q6-6 13-9.5t17-3.5q9 0 16 3.5t14 9.5q6 7 9 15.5t3 14.5-3 14.5-9 15.5q-13 13-30 13t-30-13z"/><glyph glyph-name="uniE973" unicode="" d="M853 341H674l17 171h162q20 0 31.5 11.5T896 555q0 19-11.5 30.5T853 597H704l21 209q4 16-7.5 30T687 853q-16 4-30-7.5T640 815l-26-218H444l25 209q4 16-7.5 30T431 853q-16 4-30-7.5T384 815l-26-218H171q-20 0-31.5-11.5T128 555q0-20 11.5-31.5T171 512h179l-17-171H171q-20 0-31.5-11.5T128 299q0-20 11.5-31.5T171 256h149L299 47q-4-16 7.5-30T337 0h4q16 0 28 11t15 27l26 218h170L555 47q-4-16 7.5-30T593 0h4q16 0 28 11t15 27l26 218h187q20 0 31.5 11.5T896 299q0 19-11.5 30.5T853 341zm-435 0l17 171h171l-17-171H418z"/><glyph glyph-name="uniE974" unicode="" d="M512 853q-88 0-166-33-77-34-135-92t-92-136q-34-77-34-165V128q0-54 37-91t91-37h43q54 0 91 37t37 91v128q0 54-37 91t-91 37h-85v43q0 70 27 132t73 108.5T379 741q63 27 133 27t133-27q62-27 108-73.5T826 559t27-132v-43h-85q-54 0-91-37t-37-91V128q0-54 37-91t91-37h43q54 0 91 37t37 91v299q0 88-34 165-34 78-92 136t-135 92q-78 33-166 33zM256 299q19 0 31-12t12-31V128q0-19-12-31t-31-12h-43q-19 0-30.5 12T171 128v171h85zm597-171q0-19-11.5-31T811 85h-43q-19 0-31 12t-12 31v128q0 19 12 31t31 12h85V128z"/><glyph glyph-name="uniE975" unicode="" d="M917 772q-38 39-87.5 60T725 853q-54 0-106-21t-90-60l-17-17-17 17q-38 39-88.5 60T299 853q-55 0-104.5-21T107 772q-39-38-62.5-90T21 576t21.5-106 59.5-90L478 4q6-6 13-9.5T508-9q9 0 16 3.5T538 4l375 376q43 40 65 91t22 105-20 105q-21 51-63 91zm-59-333L512 94 166 439q-57 58-57 137t57 137q26 28 61.5 41.5T299 768q38 0 72.5-13.5T435 713l47-47q13-13 30-13t30 13l43 47q28 25 63.5 40t76.5 15q39 0 73.5-15t63.5-40q25-29 40-64t15-73-15.5-73-43.5-64z"/><glyph glyph-name="uniE976" unicode="" d="M563 674q-67 23-131-7.5T346 572q-4-19 3-36t26-20q16-6 33 2t23 24q13 32 44.5 48t66.5 3q25-10 40-31t15-50q0-32-39.5-56T499 422q-16-6-24-21t-1-34q3-13 14-21.5t24-8.5q3 0 6.5.5t6.5 3.5q6 2 32 13 25 10 53 30.5t50 51.5q23 30 23 72-4 57-36.5 102T563 674zm-51 222q-98 0-183-37-86-36-149.5-100T79 610q-36-86-36-183 0-98 36-183 37-86 100.5-149.5T329-6q85-37 183-37T695-6q86 37 149.5 100.5T945 244q36 85 36 183 0 97-36 183-37 85-100.5 149T695 859q-85 37-183 37zm0-853q-80 0-150 30t-122 82-82 122-30 150 30 150 82 122 122 82 150 30 150-30 122-82 82-122 30-150-30-150-82-122-122-82-150-30zm-30 200q-6-6-9.5-13t-3.5-17q0-9 3.5-16t9.5-14q7-6 13.5-9t16.5-3 16.5 3 13.5 9q6 7 9.5 15.5T555 213q0 7-3.5 15.5T542 243q-13 13-30 13t-30-13z"/><glyph glyph-name="uniE977" unicode="" d="M922 589L538 887q-13 10-27.5 10T486 887L102 589q-9-7-13-16t-4-18V85q0-54 37-91t91-37h598q54 0 91 37t37 91v470q0 9-4 18t-13 16zM597 43H427v341h170V43zm256 42q0-19-11.5-30.5T811 43H683v384q0 19-12 30.5T640 469H384q-19 0-31-11.5T341 427V43H213q-19 0-30.5 11.5T171 85v448l341 265 341-265V85z"/><glyph glyph-name="uniE978" unicode="" d="M811 853H213q-54 0-91-36.5T85 725V128q0-54 37-91t91-37h598q54 0 91 37t37 91v597q0 55-37 91.5T811 853zM171 725q0 20 11.5 31.5T213 768h598q19 0 30.5-11.5T853 725V401L713 542q-13 13-30 13t-30-13L201 90q-13 3-21.5 14t-8.5 24v597zM811 85H316l367 367 170-170V128q0-19-11.5-31T811 85zM363 469q44 0 75 31t31 76-31 76-75 31q-45 0-76-31t-31-76 31-76 76-31zm0 128q9 0 15-5.5t6-15.5-6-15.5-15-5.5q-10 0-16 5.5t-6 15.5 6 15.5 16 5.5z"/><glyph glyph-name="uniE979" unicode="" d="M977 444L828 738q-16 32-46.5 52.5T713 811H307q-35 0-65-19t-46-54L51 444q-6-3-7-7t-1-10V171q0-55 36.5-91.5T171 43h682q55 0 91.5 36.5T981 171v256q0 6-.5 10t-3.5 7zM269 700q6 13 17.5 19t20.5 6h406q12 0 22-6t16-19l115-231H683q-10 0-19-5t-15-12l-73-111H452l-72 111q-10 7-19.5 12t-19.5 5H154l115 231zm584-572H171q-20 0-31.5 11.5T128 171v213h192l73-111q6-6 15-11.5t19-5.5h170q10 0 19 5.5t15 11.5l73 111h192V171q0-20-11.5-31.5T853 128z"/><glyph glyph-name="uniE97A" unicode="" d="M512 896q-98 0-183-37-86-36-149.5-100T79 610q-36-86-36-183 0-98 36-183 37-86 100.5-149.5T329-6q85-37 183-37T695-6q86 37 149.5 100.5T945 244q36 85 36 183 0 97-36 183-37 85-100.5 149T695 859q-85 37-183 37zm0-853q-80 0-150 30t-122 82-82 122-30 150 30 150 82 122 122 82 150 30 150-30 122-82 82-122 30-150-30-150-82-122-122-82-150-30zm0 426q-19 0-31-11.5T469 427V256q0-19 12-31t31-12 31 12 12 31v171q0 19-12 30.5T512 469zm-30 158q-6-6-9.5-13t-3.5-17q0-9 3.5-16t9.5-14q7-6 13.5-9t16.5-3 16.5 3 13.5 9q6 7 9.5 14t3.5 16q0 10-3.5 17t-9.5 13q-13 13-30 13t-30-13z"/><glyph glyph-name="uniE97B" unicode="" d="M725 896H299q-53 0-100-20-46-20-81-55t-55-82q-20-46-20-99V213q0-52 20-99t55-81.5T199-22q47-21 100-21h426q53 0 100 21 46 20 81 54.5t55 81.5 20 99v427q0 53-20 99-20 47-55 82t-81 55q-47 20-100 20zm171-683q0-70-50-120T725 43H299q-71 0-121 50t-50 120v427q0 70 50 120.5T299 811h426q71 0 121-50.5T896 640V213zM546 640q-16 3-32 3t-32-3q-43-6-79-29t-60-56-35-74-5-84q6-42 28-78.5t57-62.5q29-19 61-31t67-12q7 0 15.5.5T546 218q42 6 78.5 28t62.5 57 35.5 75.5T725 461q-9 70-58.5 119.5T546 640zm73-286q-16-19-38-33.5T533 303q-51-6-94.5 24.5T388 410q-9 51 23.5 94.5T495 555h34q42-7 71-36t36-71q6-26 .5-50.5T619 354zm98 337q-7-6-10-13t-3-17q0-9 3-16t10-14q6-6 14.5-9t15.5-3q9 0 16 3t14 9q6 7 9 15.5t3 14.5q0 10-3 17t-9 13q-13 13-30 13t-30-13z"/><glyph glyph-name="uniE97C" unicode="" d="M811 811H427q-20 0-31.5-12T384 768t11.5-31 31.5-12h153L354 128H213q-19 0-30.5-11.5T171 85q0-19 11.5-30.5T213 43h384q20 0 31.5 11.5T640 85q0 20-11.5 31.5T597 128H444l222 597h145q19 0 30.5 12t11.5 31-11.5 31-30.5 12z"/><glyph glyph-name="uniE97D" unicode="" d="M68 602l427-214q3-3 7-3.5t10-.5 10 .5 7 3.5l427 214q13 6 19 15.5t6 22.5-6 22.5-19 15.5L529 892q-10 3-19.5 3t-18.5-3L64 678q-10-6-15.5-15.5T43 640t6-22.5T68 602zm444 204l333-166-333-166-333 166 333 166zm410-554L512 47 102 252q-16 6-32.5.5T47 235q-6-13-1-31t18-25L491-34q6-7 10.5-8t10.5-1 10 .5 7 4.5l427 213q16 6 21 22.5t-4 32.5q-7 16-23 22t-28 0zm0 213L512 260 102 465q-16 6-32.5 1T47 448q-6-16-1-32.5T64 393l427-214q6-6 10.5-7t10.5-1 10 .5 7 3.5l427 213q16 7 21 23.5t-4 32.5q-7 16-23 21.5t-28-.5z"/><glyph glyph-name="uniE97E" unicode="" d="M811 853H213q-54 0-91-36.5T85 725V128q0-54 37-91t91-37h598q54 0 91 37t37 91v597q0 55-37 91.5T811 853zm-598-85h598q19 0 30.5-11.5T853 725V597H171v128q0 20 11.5 31.5T213 768zm-42-640v384h170V85H213q-19 0-30.5 12T171 128zm640-43H427v427h426V128q0-19-11.5-31T811 85z"/><glyph glyph-name="uniE97F" unicode="" d="M845 94q32 32 57 69 25 38 43 80t27 88 9 96q0 48-9 94t-27 88-43 80-57 70q-32 32-70 58-38 25-80.5 42.5T606 887q-46 9-94 9t-94-9q-46-10-88.5-27.5T249 817q-38-26-70-58t-57-70-43-80-27-88-9-94 9-94 27-88.5 43-80.5 57-70q32-32 70-57 37-26 79-43.5T416-33q46-10 96-10 48 0 94 10 46 9 88.5 26.5T775 37q38 25 70 57zm-34 94L687 311q19 23 28.5 53.5T725 427t-9 63-25 56l120 120q38-48 61.5-110T896 427q0-68-22-129.5T811 188zM384 427q0 54 37 91t91 37 91-37 37-91q0-55-37-91.5T512 299t-91 36.5-37 91.5zm367 298L627 602q-22 19-52.5 28.5T512 640t-63-9-56-25L273 725q48 42 110 64t129 22 129-22 110-64zm-538-59l124-124q-19-23-28.5-53t-9.5-62 9-63 25-57L213 188q-38 48-61.5 109.5T128 427q0 67 22 129t63 110zm60-538l124 124q22-19 52.5-29t62.5-10 63 9 56 25l124-123q-48-39-110-62.5T516 38q-70 4-132.5 26T273 128z"/><glyph glyph-name="uniE980" unicode="" d="M900 819q-37 37-83 55-46 19-94 19t-94-19q-46-18-83-55l-77-72q-12-13-12-30t12-30q13-13 30-13t30 13l73 72q51 48 119 48t120-48q51-48 51.5-119T845 521L717 393q-3-4-8.5-9t-8.5-9q-58-41-128-32t-111 67q-10 12-28.5 15t-31.5-7q-13-9-15.5-28t7.5-32q38-51 92.5-76.5T597 256q39 0 79 13t75 38q6 7 13 13t17 13l128 128q37 37 54 84 18 47 17 96.5T959 737q-20 47-59 82zM491 166l-73-72q-51-48-119.5-48T179 94t-51.5 119.5T175 333l128 128 8.5 8.5 8.5 8.5q29 19 61 28t67 6q35-6 63.5-22.5T559 444q10-13 28.5-15.5T619 435q12 10 15 28.5t-7 31.5q-32 42-75 67t-91 31q-48 10-97-2.5T273 546l-12.5-12.5L247 521 119 393q-36-39-54-87-18-47-17-96.5T68 114q19-47 56-84 38-35 84.5-54T303-43t94.5 19T482 30l73 72q12 13 12 30t-12 30q-13 13-32.5 15T491 166z"/><glyph glyph-name="uniE981" unicode="" d="M384 256H256q-70 0-120.5 50T85 427q0 70 50.5 120T256 597h128q19 0 31 12t12 31-12 31-31 12H256q-53 0-99-21-47-20-82-54.5T20 526 0 427q0-53 20-100 20-46 55-81t82-55q46-20 99-20h128q19 0 31 11.5t12 30.5q0 20-12 31.5T384 256zm384 427H640q-19 0-31-12t-12-31 12-31 31-12h128q70 0 120.5-50T939 427q0-71-50.5-121T768 256H640q-19 0-31-11.5T597 213q0-19 12-30.5t31-11.5h128q53 0 99 20 47 20 82 55t55 81q20 47 20 100 0 52-20 99t-55 81.5-82 54.5q-46 21-99 21zM299 427q0-20 11.5-31.5T341 384h342q19 0 30.5 11.5T725 427q0 19-11.5 30.5T683 469H341q-19 0-30.5-11.5T299 427z"/><glyph glyph-name="uniE982" unicode="" d="M683 640q-63 0-117-23-55-24-95-64t-64-95q-23-54-23-117V43q0-20 11.5-31.5T427 0h170q20 0 31.5 11.5T640 43v298q0 20 11.5 31.5T683 384q19 0 30.5-11.5T725 341V43q0-20 12-31.5T768 0h171q19 0 30.5 11.5T981 43v298q0 63-23 117-23 55-63.5 95T800 617q-55 23-117 23zM896 85h-85v256q0 55-37 91.5T683 469q-55 0-91.5-36.5T555 341V85h-86v256q0 45 17 84 16 39 45 68t68 45q39 17 84 17 44 0 83-17 39-16 68-45t45-68q17-39 17-84V85zM256 597H85q-19 0-30.5-11.5T43 555V43q0-20 11.5-31.5T85 0h171q19 0 31 11.5T299 43v512q0 19-12 30.5T256 597zM213 85h-85v427h85V85zm-42 811q-55 0-91.5-37T43 768t36.5-91 91.5-37q54 0 91 37t37 91-37 91-91 37zm0-171q-20 0-31.5 12T128 768t11.5 31 31.5 12q19 0 30.5-12t11.5-31-11.5-31-30.5-12z"/><glyph glyph-name="uniE983" unicode="" d="M341 640h555q19 0 31 11.5t12 31.5q0 19-12 30.5T896 725H341q-19 0-30.5-11.5T299 683q0-20 11.5-31.5T341 640zm555-171H341q-19 0-30.5-11.5T299 427q0-20 11.5-31.5T341 384h555q19 0 31 11.5t12 31.5q0 19-12 30.5T896 469zm0-256H341q-19 0-30.5-11.5T299 171q0-20 11.5-31.5T341 128h555q19 0 31 11.5t12 31.5q0 19-12 30.5T896 213zM98 713q-6-7-9.5-14T85 683q0-10 3.5-17t9.5-13q7-7 13.5-10t16.5-3 16.5 3 13.5 10q6 6 9.5 13t3.5 17q0 9-3.5 16t-9.5 14q-13 12-30 12t-30-12zm0-256q-6-7-9.5-14T85 427q0-10 3.5-17t9.5-13q7-7 13.5-10t16.5-3 16.5 3 13.5 10q6 6 9.5 13t3.5 17q0 9-3.5 16t-9.5 14q-13 12-30 12t-30-12zm0-256q-6-7-9.5-14T85 171q0-10 3.5-17t9.5-13q7-7 13.5-10t16.5-3 16.5 3 13.5 10q6 6 9.5 13t3.5 17q0 9-3.5 16t-9.5 14q-13 12-30 12t-30-12z"/><glyph glyph-name="uniE984" unicode="" d="M512 896q-19 0-31-11.5T469 853V683q0-20 12-31.5t31-11.5 31 11.5 12 31.5v170q0 20-12 31.5T512 896zm0-683q-19 0-31-11.5T469 171V0q0-19 12-31t31-12 31 12 12 31v171q0 19-12 30.5T512 213zM239 759q-13 13-30 13t-30-13q-13-12-13-29t13-30l120-120q6-6 14.5-9.5T329 567q6 0 14.5 3.5T358 580q13 13 13 30t-13 30L239 759zm482-482q-13 13-30 13t-30-13q-12-12-12-29.5t12-29.5L781 98q6-6 14.5-9.5T811 85q6 0 14.5 3.5T841 98q12 13 12 30t-12 30L721 277zM299 427q0 19-12 30.5T256 469H85q-19 0-30.5-11.5T43 427q0-20 11.5-31.5T85 384h171q19 0 31 11.5t12 31.5zm640 42H768q-19 0-31-11.5T725 427q0-20 12-31.5t31-11.5h171q19 0 30.5 11.5T981 427q0 19-11.5 30.5T939 469zM303 277L183 158q-12-13-12-30t12-30q7-6 15.5-9.5T213 85q7 0 15.5 3.5T243 98l120 120q12 12 12 29.5T363 277q-13 13-31.5 13T303 277zm388 286q10 0 17 3.5t13 9.5l120 119q12 13 12 30t-12 30q-13 13-30 13t-30-13L661 636q-12-13-12-30t12-30q7-6 15.5-9.5T691 563z"/><glyph glyph-name="uniE985" unicode="" d="M811 512h-43v128q0 53-20 99-20 47-55 82t-82 55q-46 20-99 20t-99-20q-47-20-82-55t-55-82q-20-46-20-99V512h-43q-54 0-91-37t-37-91V85q0-54 37-91t91-37h598q54 0 91 37t37 91v299q0 54-37 91t-91 37zM341 640q0 70 50.5 120.5T512 811t120.5-50.5T683 640V512H341v128zM853 85q0-19-11.5-30.5T811 43H213q-19 0-30.5 11.5T171 85v299q0 19 11.5 31t30.5 12h598q19 0 30.5-12t11.5-31V85z"/><glyph glyph-name="uniE986" unicode="" d="M811 853H640q-19 0-31-11.5T597 811q0-20 12-31.5t31-11.5h171q19 0 30.5-11.5T853 725V128q0-19-11.5-31T811 85H640q-19 0-31-11.5T597 43q0-20 12-31.5T640 0h171q54 0 91 37t37 91v597q0 55-37 91.5T811 853zM678 410q4 6 4 15t-4 19q-3 3-4 6t-4 7L457 670q-13 13-30 13t-30-13-13-30 13-30l141-141H128q-19 0-31-11.5T85 427q0-20 12-31.5t31-11.5h410L397 243q-13-13-13-30t13-30q6-6 13-9t17-3q9 0 16 3t14 9l213 214q3 3 5.5 6t2.5 7z"/><glyph glyph-name="uniE987" unicode="" d="M384 85H213q-19 0-30.5 12T171 128v597q0 20 11.5 31.5T213 768h171q19 0 31 11.5t12 31.5q0 19-12 30.5T384 853H213q-54 0-91-36.5T85 725V128q0-54 37-91t91-37h171q19 0 31 11.5T427 43q0 19-12 30.5T384 85zm550 325q4 6 4 15t-4 19q-3 3-4 6t-4 7L713 670q-13 13-30 13t-30-13-13-30 13-30l141-141H384q-19 0-31-11.5T341 427q0-20 12-31.5t31-11.5h410L653 243q-13-13-13-30t13-30q6-6 14.5-9t15.5-3q6 0 14.5 3t15.5 9l213 214q3 3 5.5 6t2.5 7z"/><glyph glyph-name="uniE988" unicode="" d="M853 811H171q-55 0-91.5-37T43 683V171q0-55 36.5-91.5T171 43h682q55 0 91.5 36.5T981 171v512q0 54-36.5 91T853 811zm-682-86h682q13 0 22.5-6t16.5-19L512 435 132 700q7 13 16.5 19t22.5 6zm682-597H171q-20 0-31.5 11.5T128 171v431l358-252q7-3 13.5-6t12.5-3 12.5 3 13.5 6l358 252V171q0-20-11.5-31.5T853 128z"/><glyph glyph-name="uniE989" unicode="" d="M1003 892q-10 6-21.5 6t-21.5-6L683 730 358 892h-4q-3 3-6 3.5t-7 .5q-3 0-6.5-.5T324 892h-8L17 721q-6-6-11.5-16T0 683V0q0-13 6-22.5T21-38q10-7 21.5-7T64-38l277 162L661-38q7-4 11-4.5t11-.5q3 0 6 .5t6 4.5h9l299 170q9 7 15 16.5t6 22.5v682q0 13-6 22.5t-15 16.5zM384 785l256-128V68L384 196v589zM85 657l214 124V196L85 73v584zm854-461L725 73v584l214 124V196z"/><glyph glyph-name="uniE98A" unicode="" d="M512 939q-88 0-166-34-77-34-135-92t-92-135q-34-78-34-166 0-118 61-224t135-186T418-26l68-51q7-3 13.5-5.5T512-85t12.5 2.5T538-77l68 51q63 48 137 128t135 186 61 224q0 88-34 166-34 77-92 135t-135 92q-78 34-166 34zm0-930q-30 22-88 71-57 49-113 116t-98 149q-42 81-42 167 0 70 27 133 27 62 73 108t108 73q63 27 133 27t133-27q62-27 108-73t73-108q27-63 27-133 0-86-42-167-42-82-98-149T600 80q-58-49-88-71zm0 674q-70 0-120.5-50.5T341 512t50.5-120.5T512 341t120.5 50.5T683 512t-50.5 120.5T512 683zm0-256q-35 0-60 25t-25 60 25 60 60 25 60-25 25-60-25-60-60-25z"/><glyph glyph-name="uniE98B" unicode="" d="M341 853H213q-54 0-91-36.5T85 725V597q0-19 12-30.5t31-11.5 31 11.5 12 30.5v128q0 20 11.5 31.5T213 768h128q20 0 31.5 11.5T384 811q0 19-11.5 30.5T341 853zm0-768H213q-19 0-30.5 12T171 128v128q0 19-12 31t-31 12-31-12-12-31V128q0-54 37-91t91-37h128q20 0 31.5 11.5T384 43q0 19-11.5 30.5T341 85zm555 214q-19 0-31-12t-12-31V128q0-19-11.5-31T811 85H683q-20 0-31.5-11.5T640 43q0-20 11.5-31.5T683 0h128q54 0 91 37t37 91v128q0 19-12 31t-31 12zm-85 554H683q-20 0-31.5-11.5T640 811q0-20 11.5-31.5T683 768h128q19 0 30.5-11.5T853 725V597q0-19 12-30.5t31-11.5 31 11.5 12 30.5v128q0 55-37 91.5T811 853z"/><glyph glyph-name="uniE98C" unicode="" d="M934 828q-3 6-9 12t-12 9q-3 3-8.5 3.5t-8.5.5H640q-19 0-31-11.5T597 811q0-20 12-31.5t31-11.5h154L567 542q-12-13-12-30t12-30q7-6 15.5-9.5T597 469q7 0 15.5 3.5T627 482l226 226V555q0-20 12-31.5t31-11.5 31 11.5 12 31.5v256q0 3-.5 8.5T934 828zM397 371L171 145v154q0 19-12 30.5T128 341t-31-11.5T85 299V43q0-4 .5-9t4.5-8q3-7 9-13t12-9q3-3 8.5-3.5T128 0h256q19 0 31 11.5T427 43q0 19-12 30.5T384 85H230l227 226q12 13 12 30t-12 30q-13 13-30 13t-30-13z"/><glyph glyph-name="uniE98D" unicode="" d="M896 469H128q-19 0-31-11.5T85 427q0-20 12-31.5t31-11.5h768q19 0 31 11.5t12 31.5q0 19-12 30.5T896 469zM128 640h768q19 0 31 11.5t12 31.5q0 19-12 30.5T896 725H128q-19 0-31-11.5T85 683q0-20 12-31.5t31-11.5zm768-427H128q-19 0-31-11.5T85 171q0-20 12-31.5t31-11.5h768q19 0 31 11.5t12 31.5q0 19-12 30.5T896 213z"/><glyph glyph-name="uniE98E" unicode="" d="M939 474q-5 76-36 144-32 68-83 119t-119 82-146 34h-22q-48 0-92.5-10T354 811q-53-26-95-64t-71-85.5T144 560q-16-54-16-112 0-42 9-85t25-81L85 55q-3-12-.5-24T94 13q9-7 16.5-10T128 0q3 0 6.5.5T141 4l226 77q38-16 80-25t86-9q58 0 112 15 54 16 101.5 44.5T832 177q38 41 64 92 22 41 32.5 88t10.5 95v22zm-86-26q0-38-9-74t-25-71q-21-42-50-74-30-33-67-55.5T622 140q-42-12-89-12-38 0-73 9t-67 25q-7 3-16 3.5t-19 .5l-162-55 56 162q3 10 2.5 17.5T247 307q-16 32-25 69t-9 72q0 46 13 89 12 43 35.5 79.5T318 683t75 51q32 16 68.5 25t71.5 9h17q61-3 114-27 53-25 93.5-65t65.5-93q26-53 30-114v-21z"/><glyph glyph-name="uniE98F" unicode="" d="M811 853H213q-54 0-91-36.5T85 725V43q0-13 6.5-24.5T111 4q3-3 8.5-3.5T128 0q10 0 16.5 3T158 13l158 158h495q54 0 91 36.5t37 91.5v426q0 55-37 91.5T811 853zm42-554q0-20-11.5-31.5T811 256H299q-10 0-17-3t-13-10l-98-98v580q0 20 11.5 31.5T213 768h598q19 0 30.5-11.5T853 725V299z"/><glyph glyph-name="uniE990" unicode="" d="M512 256q70 0 120.5 50T683 427v341q0 70-50.5 120.5T512 939t-120.5-50.5T341 768V427q0-71 50.5-121T512 256zm-85 512q0 35 25 60t60 25 60-25 25-60V427q0-36-25-61t-60-25-60 25-25 61v341zm384-213q-20 0-31.5-12T768 512v-85q0-53-20-100-20-46-55-81t-82-55q-46-20-99-20t-99 20q-47 20-82 55t-55 81q-20 47-20 100v85q0 19-11.5 31T213 555q-19 0-30.5-12T171 512v-85q0-66 23-124t63.5-102.5T352 127q55-29 117-37V0H341q-19 0-30.5-11.5T299-43q0-19 11.5-30.5T341-85h342q19 0 30.5 11.5T725-43q0 20-11.5 31.5T683 0H555v90q62 8 117 37 54 30 94.5 75T830 305t23 122v85q0 19-11.5 31T811 555z"/><glyph glyph-name="uniE991" unicode="" d="M1011-13L759 239q0 3-2 4t-2 4l-2 2.5-2 2.5-337 333L73 926q-13 13-30 13t-30-13-13-30 13-30l328-328V427q0-36 13-66.5t39-53.5q22-25 53-38t66-13q22 0 44 6.5t41 19.5l64-64q-32-23-67-35t-73-12h-18q-48 0-91.5 18.5T333 243q-39 35-58 83.5T256 427v85q0 19-11.5 31T213 555q-19 0-30.5-12T171 512v-85q0-71 27-135.5T273 179q42-41 92-64t104-30V0H341q-19 0-30.5-11.5T299-43q0-19 11.5-30.5T341-85h342q19 0 30.5 11.5T725-43q0 20-11.5 31.5T683 0H555v85q44 7 87.5 23.5T721 154L951-77q7-6 15.5-9.5T981-90q7 0 15.5 3.5T1011-77q13 16 13 33.5T1011-13zM512 341q-16 0-31.5 6.5T452 367t-19 28.5-6 31.5v25l106-106q-6-4-10.5-4.5T512 341zM380 751q16-3 29.5 7.5T427 785q6 29 29.5 48.5T512 853q16 0 31.5-6t28.5-19 19-28.5 6-31.5V542q0-19 12-31t31-12 31 12 12 31v226q0 35-13 66t-39 53q-22 26-53 39t-66 13q-61 0-107.5-38T346 802q-4-16 5.5-32t28.5-19zm418-418h8q16 0 28 9t15 25 3.5 30 .5 30v85q0 19-11.5 31T811 555q-20 0-31.5-12T768 512v-85q0-13-.5-23.5T764 380q-3-16 7.5-30t26.5-17z"/><glyph glyph-name="uniE992" unicode="" d="M256 299H128q-19 0-31-12t-12-31 12-31 31-12h128q19 0 31-11.5t12-30.5V43q0-20 11.5-31.5T341 0q20 0 31.5 11.5T384 43v128q0 54-37 91t-91 37zm512 256h128q19 0 31 11.5t12 30.5q0 20-12 31.5T896 640H768q-19 0-31 11.5T725 683v128q0 19-11.5 30.5T683 853q-20 0-31.5-11.5T640 811V683q0-55 37-91.5t91-36.5zm128-256H768q-54 0-91-37t-37-91V43q0-20 11.5-31.5T683 0q19 0 30.5 11.5T725 43v128q0 19 12 30.5t31 11.5h128q19 0 31 12t12 31-12 31-31 12zM341 853q-19 0-30.5-11.5T299 811V683q0-20-12-31.5T256 640H128q-19 0-31-11.5T85 597q0-19 12-30.5t31-11.5h128q54 0 91 36.5t37 91.5v128q0 19-11.5 30.5T341 853z"/><glyph glyph-name="uniE993" unicode="" d="M444 380q-3 3-8.5 3.5t-8.5.5H171q-20 0-31.5-11.5T128 341q0-19 11.5-30.5T171 299h153L98 73Q85 60 85 43t13-30q7-7 13.5-10T128 0t16.5 3T158 13l226 226V85q0-19 11.5-30.5T427 43q19 0 30.5 11.5T469 85v256q0 4-.5 9t-3.5 8q-3 7-9 13t-12 9zm482 461q-13 12-30 12t-30-12L640 614v154q0 19-11.5 31T597 811q-19 0-30.5-12T555 768V512q0-3 .5-8.5t3.5-8.5q3-6 9-12t12-9q3-4 8.5-4.5t8.5-.5h256q20 0 31.5 12t11.5 31-11.5 31-31.5 12H700l226 226q13 13 13 30t-13 30z"/><glyph glyph-name="uniE994" unicode="" d="M811 469H213q-19 0-30.5-11.5T171 427q0-20 11.5-31.5T213 384h598q19 0 30.5 11.5T853 427q0 19-11.5 30.5T811 469z"/><glyph glyph-name="uniE995" unicode="" d="M512 896q-98 0-183-37-86-36-149.5-100T79 610q-36-86-36-183 0-98 36-183 37-86 100.5-149.5T329-6q85-37 183-37T695-6q86 37 149.5 100.5T945 244q36 85 36 183 0 97-36 183-37 85-100.5 149T695 859q-85 37-183 37zm0-853q-80 0-150 30t-122 82-82 122-30 150 30 150 82 122 122 82 150 30 150-30 122-82 82-122 30-150-30-150-82-122-122-82-150-30zm171 426H341q-19 0-30.5-11.5T299 427q0-20 11.5-31.5T341 384h342q19 0 30.5 11.5T725 427q0 19-11.5 30.5T683 469z"/><glyph glyph-name="uniE996" unicode="" d="M811 853H213q-54 0-91-36.5T85 725V128q0-54 37-91t91-37h598q54 0 91 37t37 91v597q0 55-37 91.5T811 853zm42-725q0-19-11.5-31T811 85H213q-19 0-30.5 12T171 128v597q0 20 11.5 31.5T213 768h598q19 0 30.5-11.5T853 725V128zM683 469H341q-19 0-30.5-11.5T299 427q0-20 11.5-31.5T341 384h342q19 0 30.5 11.5T725 427q0 19-11.5 30.5T683 469z"/><glyph glyph-name="uniE997" unicode="" d="M853 853H171q-55 0-91.5-36.5T43 725V299q0-55 36.5-91.5T171 171h298V85H341q-19 0-30.5-11.5T299 43q0-20 11.5-31.5T341 0h342q19 0 30.5 11.5T725 43q0 19-11.5 30.5T683 85H555v86h298q55 0 91.5 36.5T981 299v426q0 55-36.5 91.5T853 853zm43-554q0-20-11.5-31.5T853 256H171q-20 0-31.5 11.5T128 299v426q0 20 11.5 31.5T171 768h682q20 0 31.5-11.5T896 725V299z"/><glyph glyph-name="uniE998" unicode="" d="M917 431q-9 6-23 5.5t-24-9.5q-33-26-72-39t-79-13-79 13-73 39q-43 32-69 75-26 44-33.5 92.5T468 692q12 50 44 93 6 10 8.5 22t-4.5 25q-6 10-18 15.5t-24 5.5q-77-6-144-38-68-32-119-83t-83-119q-32-67-38-144-8-88 18-168 26-81 78-144T312 53 474 4h38q74 0 144.5 25T785 102q34 28 60 60 26 33 45.5 69.5T922 309q12 40 17 84 0 9-6 20.5T917 431zM734 166q-51-44-115.5-63.5T486 90q-70 6-129 38-59 33-101 83.5T194 326q-21 64-15 135 5 49 23 95 19 45 48 83t68 67q38 29 83 45-19-51-20-106-1-54 14.5-106t46.5-99q32-46 79-82 35-25 74-41 40-16 81-22t83-2 82 18q-20-41-46-78.5T734 166z"/><glyph glyph-name="uniE999" unicode="" d="M597 427q0-36-25-61t-60-25-60 25-25 61q0 35 25 60t60 25 60-25 25-60zm299 0q0-36-25-61t-60-25q-36 0-61 25t-25 61q0 35 25 60t61 25q35 0 60-25t25-60zm-597 0q0-36-25-61t-61-25q-35 0-60 25t-25 61q0 35 25 60t60 25q36 0 61-25t25-60z"/><glyph glyph-name="uniE99A" unicode="" d="M597 427q0-36-25-61t-60-25-60 25-25 61q0 35 25 60t60 25 60-25 25-60zm0 298q0-35-25-60t-60-25-60 25-25 60q0 36 25 61t60 25 60-25 25-61zm0-597q0-35-25-60t-60-25-60 25-25 60 25 60 60 25 60-25 25-60z"/><glyph glyph-name="uniE99B" unicode="" d="M977 410q3 6 3 15t-3 19q-3 3-4 6t-4 7L841 585q-13 12-30 12t-30-12q-13-13-13-30t13-30l55-56H555v282l55-56q7-6 13.5-9t16.5-3 16.5 3 13.5 9q13 13 13 30t-13 30L542 883q-3 3-6.5 6t-6.5 3q-6 3-15 3t-19-3q-3-3-6.5-4.5T482 883L354 755q-13-13-13-30t13-30q13-12 30-12t30 12l55 56V469H188l55 56q13 13 13 30t-13 30q-13 12-30 12t-30-12L55 457q-3-4-5.5-7t-2.5-6q-3-7-3-16t3-18q3-4 4-7t4-6l128-128q7-7 14-10t16-3q10 0 17 3t13 10q13 13 13 30t-13 30l-55 55h281V102l-55 56q-13 13-30 13t-30-13-13-30 13-30L482-30q3-3 6.5-5.5T495-38q3-4 8.5-4.5t8.5-.5 8.5.5T529-38q3 3 6.5 4t6.5 4L670 98q13 13 13 30t-13 30-30 13-30-13l-55-56v282h281l-55-55q-13-13-13-30t13-30q6-7 14.5-10t15.5-3q6 0 14.5 3t15.5 10l128 128q3 3 5.5 6t2.5 7z"/><glyph glyph-name="uniE99C" unicode="" d="M922 845q-7 6-16 7t-19 1l-512-85q-12-3-23-15t-11-28V256H213q-54 0-91-37t-37-91 37-91 91-37h86q54 0 91 37t37 91v563l426 73V341H725q-54 0-91-36.5T597 213q0-54 37-91t91-37h86q54 0 91 37t37 91v598q0 9-4 18t-13 16zM341 128q0-19-11.5-31T299 85h-86q-19 0-30.5 12T171 128t11.5 31 30.5 12h128v-43zm512 85q0-19-11.5-30.5T811 171h-86q-19 0-30.5 11.5T683 213q0 20 11.5 31.5T725 256h128v-43z"/><glyph glyph-name="uniE99D" unicode="" d="M969 883q-10 10-22.5 12.5T922 892L111 508q-13-7-19.5-18.5T85 465t9-24 25-14l316-81 81-316q3-13 14.5-22T555-4h4q13 0 22.5 6.5T597 21l384 811q4 16 .5 29T969 883zM567 171l-55 222q-3 12-11.5 19T482 422l-226 60 593 282z"/><glyph glyph-name="uniE99E" unicode="" d="M849 55L550 866q-3 13-14 21.5t-24 8.5-24-8.5-14-21.5L175 55q-3-12 0-24.5T188 9q9-10 23-10.5T235 4l277 158L789 4q7-3 11-3.5t11-.5q6 0 14 2.5T836 9q13 9 16 23t-3 23zM533 252q-6 3-10.5 3.5t-10.5.5-10.5-.5T491 252L294 141l218 589 218-593-197 115z"/><glyph glyph-name="uniE99F" unicode="" d="M969 631L717 883q-3 7-11.5 10t-18.5 3H337q-10 0-18.5-3T307 883L55 631q-6-3-9-11.5T43 602V247q0-9 3-16t9-13L307-34q3-3 11.5-6t18.5-3h354q10 0 17 3.5t13 9.5l252 252q6 6 9.5 13t3.5 17v350q-4 9-7.5 17.5T969 631zm-73-362L670 43H354L128 269v316l226 226h320l222-226V269z"/><glyph glyph-name="uniE9A0" unicode="" d="M909 742L567 913q-25 13-55.5 13T452 913L111 742q-32-16-50-45.5T43 631V226q0-35 18.5-67t53.5-48L457-60q12-6 27-9.5t28-3.5q16 0 29.5 3.5T567-60l342 171q32 16 52 46.5t20 68.5v405q0 36-18.5 65.5T909 742zm-414 99q3 3 8.5 3.5t8.5.5q6 0 10-.5t7-3.5l316-158-120-60-332 166zm17-325L179 683l120 59 332-166zM149 183q-9 7-15 18t-6 21v392l341-170V26L149 183zm721 0L555 26v418l341 170V222q0-13-6.5-22.5T870 183z"/><glyph glyph-name="uniE9A1" unicode="" d="M943 499q-13 13-30 13t-30-13L491 107q-32-32-72-48-39-16-80-16t-80 16-71 48-48 71-16 80 16 80q16 40 48 72l392 392q35 35 89.5 35t89.5-35q39-38 39-91t-39-88L367 230q-13-12-30-12t-30 12q-3 4-5.5 10t-2.5 16 3 16.5 9 13.5l363 363q13 12 13 29t-13 30-30 13-30-13L252 346q-19-16-29-40t-10-50 10-50 29-40q38-38 91-38t88 38l392 393q32 32 48 71 16 40 16 80.5T871 791q-16 39-48 71-28 29-67.5 46.5T674 926q-41 0-80.5-16T525 862L132 469q-43-43-65-98-21-55-21-112.5T67 145q22-55 65-98 45-45 100.5-65T346-38q57 0 112.5 21.5T559 47l392 392q7 10 6 28.5T943 499z"/><glyph glyph-name="uniE9A2" unicode="" d="M427 811H256q-19 0-31-12t-12-31V85q0-19 12-30.5T256 43h171q19 0 30.5 11.5T469 85v683q0 19-11.5 31T427 811zm-43-683h-85v597h85V128zm384 683H597q-19 0-30.5-12T555 768V85q0-19 11.5-30.5T597 43h171q19 0 31 11.5T811 85v683q0 19-12 31t-31 12zm-43-683h-85v597h85V128z"/><glyph glyph-name="uniE9A3" unicode="" d="M512 896q-98 0-183-37-86-36-149.5-100T79 610q-36-86-36-183 0-98 36-183 37-86 100.5-149.5T329-6q85-37 183-37T695-6q86 37 149.5 100.5T945 244q36 85 36 183 0 97-36 183-37 85-100.5 149T695 859q-85 37-183 37zm0-853q-80 0-150 30t-122 82-82 122-30 150 30 150 82 122 122 82 150 30 150-30 122-82 82-122 30-150-30-150-82-122-122-82-150-30zm-85 554q-20 0-31.5-11.5T384 555V299q0-20 11.5-31.5T427 256q19 0 30.5 11.5T469 299v256q0 19-11.5 30.5T427 597zm170 0q-19 0-30.5-11.5T555 555V299q0-20 11.5-31.5T597 256q20 0 31.5 11.5T640 299v256q0 19-11.5 30.5T597 597z"/><glyph glyph-name="uniE9A4" unicode="" d="M841 755q-13 13-30 13t-30-13L183 158q-12-13-12-30t12-30q7-6 14-9.5t16-3.5q10 0 17 3.5t13 9.5l598 597q12 13 12 30t-12 30zM277 512q61 0 105.5 44.5T427 661q0 61-44.5 105.5T277 811q-60 0-104.5-44.5T128 661q0-60 44.5-104.5T277 512zm0 213q26 0 45-19t19-45q0-25-19-44.5T277 597q-25 0-44.5 19.5T213 661q0 26 19.5 45t44.5 19zm470-384q-61 0-105.5-44T597 192t44.5-105T747 43q60 0 104.5 44T896 192t-44.5 105T747 341zm0-213q-26 0-45 19t-19 45 19 45 45 19q25 0 44.5-19t19.5-45-19.5-45-44.5-19z"/><glyph glyph-name="uniE9A5" unicode="" d="M870 346q-28 3-56.5 9.5T759 371q-35 13-71 4.5T623 341l-30-30q-58 39-108 87.5T397 508l30 30q25 25 33.5 63t-3.5 73q-10 26-16.5 54t-9.5 57q-6 48-43 79.5T303 896H162q-25-3-47-15.5T77 849t-23-43.5-7-50.5q5-51 16-102 12-51 29.5-100t40.5-96 50-90q26-40 56-77 30-38 64-72t72-64q37-30 77-56 43-29 90-52t96.5-40T738-22q51-12 103-16h12q26 0 50 9.5T943 0t27 41.5T981 90v128q0 48-31.5 84.5T870 346zm26-128V90q0-10-3-17t-10-13q-6-7-13.5-10T849 47q-46 5-92 15-45 10-89 26t-87 36q-42 21-82 47-37 22-70 49-34 27-64.5 58T307 343t-51 71q-26 40-46 82-21 42-36.5 86T147 672q-10 45-15 92 0 9 3 16l6 14q6 6 15 11.5t19 5.5h128q16 0 27.5-11.5T346 772q3-32 12-65.5t22-62.5q3-13 .5-25t-9.5-22l-55-51q-10-9-12.5-23.5T307 495q24-43 54-82 29-39 63.5-73.5T498 275q39-29 82-53 13-7 27.5-5.5T631 230l56 56q10 9 22 12t25-4q32-12 64-19.5t64-14.5q13-3 23.5-14.5T896 218z"/><glyph glyph-name="uniE9A6" unicode="" d="M870 346q-28 3-56.5 9.5T759 371q-35 13-71 4.5T623 341l-30-30q-58 39-108 87.5T397 508l30 30q25 25 33.5 63t-3.5 73q-10 26-16.5 54t-9.5 57q-6 48-43 79.5T303 896H162q-25-3-47-15.5T77 849t-23-43.5-7-50.5q5-51 16-102 12-51 29.5-100t40.5-96 50-90q26-40 56-77 30-38 64-72t72-64q37-30 77-56 43-29 90-52t96.5-40T738-22q51-12 103-16h12q26 0 50 9.5T943 0t27 41.5T981 90v128q0 48-31.5 84.5T870 346zm26-128V90q0-10-3-17t-10-13q-6-7-13.5-10T849 47q-46 5-92 15-45 10-89 26t-87 36q-42 21-82 47-37 22-70 49-34 27-64.5 58T307 343t-51 71q-26 40-46 82-21 42-36.5 86T147 672q-10 45-15 92 0 9 3 16l6 14q6 6 15 11.5t19 5.5h128q16 0 27.5-11.5T346 772q3-32 12-65.5t22-62.5q3-13 .5-25t-9.5-22l-55-51q-10-9-12.5-23.5T307 495q24-43 54-82 29-39 63.5-73.5T498 275q39-29 82-53 13-7 27.5-5.5T631 230l56 56q10 9 22 12t25-4q32-12 64-19.5t64-14.5q13-3 23.5-14.5T896 218zM649 939q-16 3-30-8.5T602 900q-4-16 7.5-29.5T640 853q59-6 111-31 52-26 92-66t66-92q26-53 34-114 3-16 15-27t28-11h4q16 3 27 17t11 30q-9 75-42 141t-83.5 116T787 899q-65 32-138 40zm119-389q3-16 15-25t28-9h8q16 3 27 17.5t7 33.5q-16 77-69.5 132.5T653 768q-16 3-32-6t-19-28q-4-19 5.5-33.5T636 683q51-10 86.5-45.5T768 550z"/><glyph glyph-name="uniE9A7" unicode="" d="M1020 708q3 7 3 16t-3 18q-3 4-4.5 7t-4.5 6L841 926q-13 13-30 13t-30-13-13-30 13-30l98-98H640q-19 0-31-11.5T597 725q0-19 12-30.5t31-11.5h239l-98-98q-13-13-13-30t13-30q6-7 13-10t17-3q9 0 16 3t14 10l170 170q3 4 6 7t3 6zM870 346q-28 3-56.5 9.5T759 371q-35 13-71 4.5T623 341l-30-30q-58 39-108 87.5T397 508l30 30q25 25 33.5 63t-3.5 73q-10 26-16.5 54t-9.5 57q-6 48-43 79.5T303 896H162q-25-3-47-15.5T77 849t-23-43.5-7-50.5q5-51 16-102 12-51 29.5-100t40.5-96 50-90q26-40 56-77 30-38 64-72t72-64q37-30 77-56 43-29 90-52t96.5-40T738-22q51-12 103-16h12q26 0 50 9.5T943 0t27 41.5T981 90v128q0 48-31.5 84.5T870 346zm26-128V90q0-10-3-17t-10-13q-6-7-13.5-10T849 47q-46 5-92 15-45 10-89 26t-87 36q-42 21-82 47-37 22-70 49-34 27-64.5 58T307 343t-51 71q-26 40-46 82-21 42-36.5 86T147 672q-10 45-15 92 0 9 3 16l6 14q6 6 15 11.5t19 5.5h128q16 0 27.5-11.5T346 772q3-32 12-65.5t22-62.5q3-13 .5-25t-9.5-22l-55-51q-10-9-12.5-23.5T307 495q24-43 54-82 29-39 63.5-73.5T498 275q39-29 82-53 13-7 27.5-5.5T631 230l56 56q10 9 22 12t25-4q32-12 64-19.5t64-14.5q13-3 23.5-14.5T896 218z"/><glyph glyph-name="uniE9A8" unicode="" d="M1011 926q-13 13-30 13t-30-13L725 700v153q0 20-11.5 31.5T683 896q-20 0-31.5-11.5T640 853V597q0-3 .5-8.5t3.5-8.5q3-6 9-12t13-9q3-3 8-3.5t9-.5h256q19 0 30.5 11.5T981 597q0 20-11.5 31.5T939 640H785l226 226q13 13 13 30t-13 30zM870 346q-28 3-56.5 9.5T759 371q-35 13-71 4.5T623 341l-30-30q-58 39-108 87.5T397 508l30 30q25 25 33.5 63t-3.5 73q-10 26-16.5 54t-9.5 57q-6 48-43 79.5T303 896H162q-25-3-47-15.5T77 849t-23-43.5-7-50.5q5-51 16-102 12-51 29.5-100t40.5-96 50-90q26-40 56-77 30-38 64-72t72-64q37-30 77-56 43-29 90-52t96.5-40T738-22q51-12 103-16h12q26 0 50 9.5T943 0t27 41.5T981 90v128q0 48-31.5 84.5T870 346zm26-128V90q0-10-3-17t-10-13q-6-7-13.5-10T849 47q-46 5-92 15-45 10-89 26t-87 36q-42 21-82 47-37 22-70 49-34 27-64.5 58T307 343t-51 71q-26 40-46 82-21 42-36.5 86T147 672q-10 45-15 92 0 9 3 16l6 14q6 6 15 11.5t19 5.5h128q16 0 27.5-11.5T346 772q3-32 12-65.5t22-62.5q3-13 .5-25t-9.5-22l-55-51q-10-9-12.5-23.5T307 495q24-43 54-82 29-39 63.5-73.5T498 275q39-29 82-53 13-7 27.5-5.5T631 230l56 56q10 9 22 12t25-4q32-12 64-19.5t64-14.5q13-3 23.5-14.5T896 218z"/><glyph glyph-name="uniE9A9" unicode="" d="M913 768l98 98q13 13 13 30t-13 30-30 13-30-13l-98-98-98 98q-13 13-30 13t-30-13q-12-13-12-30t12-30l99-98-99-98q-12-13-12-30t12-30q7-6 14-9.5t16-3.5q10 0 17 3.5t13 9.5l98 98 98-98q7-6 14-9.5t16-3.5q10 0 17 3.5t13 9.5q13 13 13 30t-13 30l-98 98zm-43-422q-28 3-56.5 9.5T759 371q-35 13-71 4.5T623 341l-30-30q-58 39-108 87.5T397 508l30 30q25 25 33.5 63t-3.5 73q-10 26-16.5 54t-9.5 57q-6 48-43 79.5T303 896H162q-25-3-47-15.5T77 849t-23-43.5-7-50.5q5-51 16-102 12-51 29.5-100t40.5-96 50-90q26-40 56-77 30-38 64-72t72-64q37-30 77-56 43-29 90-52t96.5-40T738-22q51-12 103-16h12q26 0 50 9.5T943 0t27 41.5T981 90v128q0 48-31.5 84.5T870 346zm26-128V90q0-10-3-17t-10-13q-6-7-13.5-10T849 47q-46 5-92 15-45 10-89 26t-87 36q-42 21-82 47-37 22-70 49-34 27-64.5 58T307 343t-51 71q-26 40-46 82-21 42-36.5 86T147 672q-10 45-15 92 0 9 3 16l6 14q6 6 15 11.5t19 5.5h128q16 0 27.5-11.5T346 772q3-32 12-65.5t22-62.5q3-13 .5-25t-9.5-22l-55-51q-10-9-12.5-23.5T307 495q24-43 54-82 29-39 63.5-73.5T498 275q39-29 82-53 13-7 27.5-5.5T631 230l56 56q10 9 22 12t25-4q32-12 64-19.5t64-14.5q13-3 23.5-14.5T896 218z"/><glyph glyph-name="uniE9AA" unicode="" d="M222 350q6 0 12 2.5t9 5.5q16 10 19.5 27t-6.5 33q-26 39-46 80-21 41-36.5 85T147 672q-10 45-15 92 0 9 3 16l6 14q6 6 15 11.5t19 5.5h128q16 0 27.5-11.5T346 772q3-32 12-65.5t22-62.5q3-13 .5-25t-9.5-22l-55-51q-13-13-13-30t13-30q13-12 30-12t29 12l56 56q26 25 34.5 63t-4.5 73q-10 26-16.5 54.5T435 789q-9 45-46.5 76T303 896H162q-25-3-47-15.5T77 849t-23-43.5-7-50.5q5-51 16-102 12-51 29.5-100t40.5-96 50-90q7-6 18-11.5t21-5.5zm789 576q-13 13-30 13t-30-13L427 401 13-13Q0-26 0-43t13-30q6-6 13-9t17-3q9 0 16 3t14 9l264 265q29-26 58.5-48t61.5-42q43-28 90-52 46-23 95.5-40T743-18t102-16h13q25 0 49 9.5T947 4t27.5 41.5T986 94v128q0 48-31.5 84.5T875 350q-29 3-57.5 9.5T764 375q-35 13-71.5 4.5T627 346l-30-30q-19 13-38 28t-38 31l490 491q13 13 13 30t-13 30zM580 222q13-7 27.5-5.5T631 230l56 56q10 9 22 12t25-4q32-12 64-19.5t64-14.5q16-3 27-14.5t11-27.5V90q0-10-3-17t-10-13q-6-7-13.5-10T853 47q-46 5-92 15-45 10-89 26t-86 36q-43 21-83 47-28 16-54 37t-48 44l60 59q25-25 56-47.5t63-41.5z"/><glyph glyph-name="uniE9AB" unicode="" d="M1020 913q-3 6-9 12t-13 9q-3 4-8 4.5t-9 .5H725q-19 0-30.5-12T683 896t11.5-31 30.5-12h154L653 627q-13-13-13-30t13-30q6-6 13-9t17-3q9 0 16 3t14 9l226 227V640q0-19 11.5-31t30.5-12q20 0 31.5 12t11.5 31v256q0 3-.5 8.5t-3.5 8.5zM870 346q-28 3-56.5 9.5T759 371q-35 13-71 4.5T623 341l-30-30q-58 39-108 87.5T397 508l30 30q25 25 33.5 63t-3.5 73q-10 26-16.5 54t-9.5 57q-6 48-43 79.5T303 896H162q-25-3-47-15.5T77 849t-23-43.5-7-50.5q5-51 16-102 12-51 29.5-100t40.5-96 50-90q26-40 56-77 30-38 64-72t72-64q37-30 77-56 43-29 90-52t96.5-40T738-22q51-12 103-16h12q26 0 50 9.5T943 0t27 41.5T981 90v128q0 48-31.5 84.5T870 346zm26-128V90q0-10-3-17t-10-13q-6-7-13.5-10T849 47q-46 5-92 15-45 10-89 26t-87 36q-42 21-82 47-37 22-70 49-34 27-64.5 58T307 343t-51 71q-26 40-46 82-21 42-36.5 86T147 672q-10 45-15 92 0 9 3 16l6 14q6 6 15 11.5t19 5.5h128q16 0 27.5-11.5T346 772q3-32 12-65.5t22-62.5q3-13 .5-25t-9.5-22l-55-51q-10-9-12.5-23.5T307 495q24-43 54-82 29-39 63.5-73.5T498 275q39-29 82-53 13-7 27.5-5.5T631 230l56 56q10 9 22 12t25-4q32-12 64-19.5t64-14.5q13-3 23.5-14.5T896 218z"/><glyph glyph-name="uniE9AC" unicode="" d="M922 299q-16 6-32.5 0T866 277q-30-73-85-126-55-52-123.5-80T513 43q-77-1-150 30-74 30-127 85-52 55-79.5 123T128 426q-1 76 30 150 29 67 81 119.5T358 777q16 6 22 22.5t0 32.5q-7 16-23.5 24t-32.5 2q-41-18-78-43-37-26-67.5-57.5T123 689q-24-37-42-79-38-89-37-183 0-93 34-176.5T176 100Q241 33 329-4q44-19 91-29t92-10q69 0 135 20 65 19 122 56t102 90 72 120q6 16 .5 32.5T922 299zM512 896q-19 0-31-11.5T469 853V427q0-20 12-31.5t31-11.5h427q19 0 30.5 11.5T981 427q0 97-36 183-37 85-100.5 149T695 859q-85 37-183 37zm43-427v337q67-8 126-37 58-29 103-73.5T857 593t35-124H555z"/><glyph glyph-name="uniE9AD" unicode="" d="M832 461L235 845q-10 6-21.5 6t-21.5-6q-10-3-15.5-12.5T171 811V43q0-13 5.5-22.5T192 4q6-3 10.5-3.5T213 0q7 0 12.5 2.5T235 9l597 384q10 6 15.5 15t5.5 19q0 9-5.5 20T832 461zM256 119v615l478-307-478-308z"/><glyph glyph-name="uniE9AE" unicode="" d="M512 896q-98 0-183-37-86-36-149.5-100T79 610q-36-86-36-183 0-98 36-183 37-86 100.5-149.5T329-6q85-37 183-37T695-6q86 37 149.5 100.5T945 244q36 85 36 183 0 97-36 183-37 85-100.5 149T695 859q-85 37-183 37zm0-853q-80 0-150 30t-122 82-82 122-30 150 30 150 82 122 122 82 150 30 150-30 122-82 82-122 30-150-30-150-82-122-122-82-150-30zm196 418L452 631q-9 7-21 7t-21-7q-13-3-19.5-12t-6.5-22V256q0-13 6-22.5t15-15.5q7-4 11-4.5t11-.5q6 0 12.5 3t12.5 6l256 171q10 6 13.5 15t3.5 19q0 9-5 18t-12 16zM469 337v179l137-89-137-90z"/><glyph glyph-name="uniE9AF" unicode="" d="M811 469H555v256q0 20-12 31.5T512 768t-31-11.5-12-31.5V469H213q-19 0-30.5-11.5T171 427q0-20 11.5-31.5T213 384h256V128q0-19 12-31t31-12 31 12 12 31v256h256q19 0 30.5 11.5T853 427q0 19-11.5 30.5T811 469z"/><glyph glyph-name="uniE9B0" unicode="" d="M512 896q-98 0-183-37-86-36-149.5-100T79 610q-36-86-36-183 0-98 36-183 37-86 100.5-149.5T329-6q85-37 183-37T695-6q86 37 149.5 100.5T945 244q36 85 36 183 0 97-36 183-37 85-100.5 149T695 859q-85 37-183 37zm0-853q-80 0-150 30t-122 82-82 122-30 150 30 150 82 122 122 82 150 30 150-30 122-82 82-122 30-150-30-150-82-122-122-82-150-30zm171 426H555v128q0 20-12 31.5T512 640t-31-11.5-12-31.5V469H341q-19 0-30.5-11.5T299 427q0-20 11.5-31.5T341 384h128V256q0-19 12-31t31-12 31 12 12 31v128h128q19 0 30.5 11.5T725 427q0 19-11.5 30.5T683 469z"/><glyph glyph-name="uniE9B1" unicode="" d="M811 853H213q-54 0-91-36.5T85 725V128q0-54 37-91t91-37h598q54 0 91 37t37 91v597q0 55-37 91.5T811 853zm42-725q0-19-11.5-31T811 85H213q-19 0-30.5 12T171 128v597q0 20 11.5 31.5T213 768h598q19 0 30.5-11.5T853 725V128zM683 469H555v128q0 20-12 31.5T512 640t-31-11.5-12-31.5V469H341q-19 0-30.5-11.5T299 427q0-20 11.5-31.5T341 384h128V256q0-19 12-31t31-12 31 12 12 31v128h128q19 0 30.5 11.5T725 427q0 19-11.5 30.5T683 469z"/><glyph glyph-name="uniE9B2" unicode="" d="M853 853H171q-55 0-91.5-36.5T43 725V469q0-97 36-183 37-85 100.5-149T329 37Q414 0 512 0t183 37q86 36 149.5 100T945 286q36 86 36 183v256q0 55-36.5 91.5T853 853zm43-384q0-80-30-150t-82-122-122-82-150-30-150 30-122 82-82 122-30 150v256q0 20 11.5 31.5T171 768h682q20 0 31.5-11.5T896 725V469zm-243 73L512 401 371 542q-13 13-30 13t-30-13q-12-13-12-30t12-30l171-171q7-6 15.5-9t14.5-3 14.5 3 15.5 9l171 171q12 13 12 30t-12 30q-13 13-30 13t-30-13z"/><glyph glyph-name="uniE9B3" unicode="" d="M815 687q-13 13-30 13t-30-13-13-30 13-30q50-49 75-112 24-63 24-128.5T830 258q-25-63-75-113-49-50-112-74-63-25-128.5-25T386 71q-63 24-113 74t-74 113q-25 63-25 128.5T199 515q24 63 74 112 13 13 13 30t-13 30-30 13-30-13q-64-62-96-142-32-79-32.5-161T116 223q31-80 93-142 32-30 68-53 36-24 74-39.5T430-35q40-8 82-8t82 8q41 8 79 23.5T747 28q36 23 68 53 62 62 94 142 31 79 31 161t-31 161q-32 80-94 142zM512 384q19 0 31 11.5t12 31.5v426q0 20-12 31.5T512 896t-31-11.5-12-31.5V427q0-20 12-31.5t31-11.5z"/><glyph glyph-name="uniE9B4" unicode="" d="M853 597h-42v256q0 20-12 31.5T768 896H256q-19 0-31-11.5T213 853V597h-42q-55 0-91.5-36.5T43 469V256q0-54 36.5-91t91.5-37h42V0q0-19 12-31t31-12h512q19 0 31 12t12 31v128h42q55 0 91.5 37t36.5 91v213q0 55-36.5 91.5T853 597zM299 811h426V597H299v214zM725 43H299v256h426V43zm171 213q0-19-11.5-31T853 213h-42v128q0 20-12 31.5T768 384H256q-19 0-31-11.5T213 341V213h-42q-20 0-31.5 12T128 256v213q0 20 11.5 31.5T171 512h682q20 0 31.5-11.5T896 469V256z"/><glyph glyph-name="uniE9B5" unicode="" d="M512 555q-54 0-91-37t-37-91q0-55 37-91.5t91-36.5 91 36.5 37 91.5q0 54-37 91t-91 37zm0-171q-19 0-31 11.5T469 427q0 19 12 30.5t31 11.5 31-11.5 12-30.5q0-20-12-31.5T512 384zm209 252q-13 13-30 13t-30-13q-12-13-12-30t12-30q32-30 48-69 16-40 16.5-80.5T711 347t-45-70q-4-3-7-6l-6-6q-7-16-1.5-33t18.5-23q3-3 8.5-3.5t8.5-.5q10 0 16.5 3t13.5 10q46 43 69 97 24 55 24.5 111.5T788 538q-22 55-67 98zM299 427q0 41 16 80.5t48 68.5q12 13 10.5 30T363 636q-13 13-30 13t-30-13q-43-43-65-99-21-55-21-112.5T238 312q22-55 65-99 6-6 14.5-9t15.5-3q6 0 14.5 3t15.5 9q12 13 12 30t-12 30q-32 32-48 72t-16 82zm-60 273q13 13 13 30t-13 29q-13 13-30 13t-30-13q-69-68-103-155T42 426.5 76 249q34-86 103-155 7-7 15.5-10t14.5-3 15 3 15 10q13 13 13 30t-13 30q-56 56-84 127t-28 145.5T155 572q28 72 84 128zm606 59q-13 13-30 13t-30-13q-13-12-13-29t13-30q56-56 84-127t28-144.5T869 285q-28-71-84-127-13-13-13-30t13-30q6-6 15-9.5t15-3.5 14.5 3.5T845 98q69 67 103 153t34 176-34 177-103 155z"/><glyph glyph-name="uniE9B6" unicode="" d="M43 469h256q19 0 30.5 12t11.5 31-11.5 31-30.5 12H149l120 115q25 25 59 46.5t69 34.5q64 22 131.5 19T657 738t107-79 68-117q6-16 22.5-24t32.5-2q16 7 24 23.5t2 32.5q-14 40-36 76-21 35-48.5 66T767 770q-33 26-72 45-38 19-78 30-41 10-82 12t-83-4q-41-7-81-21-45-19-85.5-44.5T213 730L85 610v158q0 19-11.5 31T43 811q-20 0-31.5-12T0 768V499q0-3 2-4t2-4l.5-2.5L9 486q3-3 6-5.5t6-2.5q7-7 12.5-8t9.5-1zm981-119v8q0 4-2 5t-2 4l-.5 2-4.5 2q-3 3-4 3.5t-4 .5l-2 2.5-2 2.5h-5l-4.5.5-7.5 3.5H730q-20 0-31.5-11.5T687 341q0-19 11.5-30.5T730 299h149L759 183q-49-49-112-74T518.5 84 390 109t-113 74q-25 26-46.5 59.5T196 311q-6 16-22.5 24t-32.5 2-24-22.5-2-32.5q16-45 41.5-85.5T218 124q32-32 67-56 36-23 74.5-38T438 7q41-7 83-7 41 0 82 8 40 8 78 23.5T754 70t65 54l128 119V85q0-19 12-30.5T990 43t31 11.5 12 30.5v256q-7 4-8 5t-1 4z"/><glyph glyph-name="uniE9B7" unicode="" d="M887 337q-16 6-32.5-2T832 311q-13-35-32.5-68.5T751 183q-45-48-108.5-73T512 85q-67 0-129.5 26T269 188L149 299h150q19 0 30.5 11.5T341 341q0 20-11.5 31.5T299 384H43q-4 0-6.5-.5T34 380h-4l-2-.5-2-4.5q-4 0-6.5-2.5T17 367l-.5-2-3.5-2q0-4-2-5t-2-4V85q0-19 11.5-30.5T51 43t31 11.5T94 85v158l124-119q27-31 60-54t70.5-38.5T428 8q41-8 84-8t85 8q41 8 79.5 23.5T750 70t65 54q32 32 59 72.5t43 85.5q4 19-5 35.5T887 337zm137 171v260q0 19-11.5 31T981 811q-19 0-30.5-12T939 768V610L815 730q-32 32-72.5 59T657 832q-42 13-84 18-42 6-83.5 3.5T407 840q-40-10-78-29-39-18-72-43-34-24-61.5-55T147 646q-22-37-36-79-6-16 2-32t24-19q16-6 32.5 2t22.5 24q22 64 68 114t107 82q61 29 128.5 32T627 751q35-13 69-32.5t59-48.5l120-115H725q-19 0-30.5-12T683 512t11.5-31 30.5-12h256q4 0 9 .5t8 4.5q4 3 7 4t6 4l.5 2 3.5 2q0 4 2.5 5t2.5 4q3 3 3.5 6.5t.5 6.5z"/><glyph glyph-name="uniE9B8" unicode="" d="M128 427q19 0 31 11.5t12 30.5v86q0 54 36.5 91t91.5 37h495l-99-98q-12-13-12-30t12-30q7-7 14-10t16-3q10 0 17 3t13 10l171 170q3 4 5.5 7t2.5 6q4 7 4 16t-4 18q-3 4-4 7t-4 6L755 926q-13 13-30 13t-30-13q-12-13-12-30t12-30l99-98H299q-45 0-84-17-39-16-68-45t-45-68q-17-39-17-83v-86q0-19 12-30.5t31-11.5zm768 0q-19 0-31-12t-12-31v-85q0-55-36.5-91.5T725 171H230l99 98q12 13 12 30t-12 30q-13 12-30 12t-30-12L98 158q-3-3-5.5-6.5T90 145q-4-6-4-15t4-19q3-3 4-6.5t4-6.5L269-73q6-6 13-9t17-3q9 0 16 3t14 9q12 13 12 30t-12 30l-99 98h495q45 0 84 17 39 16 68 45t45 68q17 39 17 84v85q0 19-12 31t-31 12z"/><glyph glyph-name="uniE9B9" unicode="" d="M486 764q-9 6-23 4t-24-9L55 461q-6-7-9-16t-3-18q0-10 3.5-19T60 393L444 94q6-3 12.5-6t12.5-3q4 0 9 .5t8 4.5q10 6 18 15.5t8 22.5v597q0 13-6.5 22.5T486 764zm-59-551L154 427l273 213V213zm529 551q-10 6-24 4t-23-9L525 461q-7-7-10-16t-3-18q0-10 3.5-19t13.5-15L913 94q6-3 12.5-6t13.5-3q3 0 8.5.5T956 90q9 6 17 15.5t8 22.5v597q0 13-6 22.5T956 764zm-60-551L623 427l273 213V213z"/><glyph glyph-name="uniE9BA" unicode="" d="M913 567q-14 40-36 76-21 36-48.5 67T767 766q-33 25-72 45-38 19-78 29-41 11-82 13t-83-5q-41-6-81-20-45-16-85.5-41T213 730L85 610v158q0 19-11.5 31T43 811q-20 0-31.5-12T0 768V499q0-3 2-4t2-4l.5-2.5L9 486q3-3 4-3.5t4-.5l2-2 2-2h269q19 0 31 11.5t12 31.5q0 19-7.5 26.5T299 555H149l120 115q25 25 59 46.5t69 34.5q64 22 131.5 19T657 738t107-79 68-117q22-64 19-132t-32-128q-29-61-79-107t-117-68q-67-24-135-20-67 5-126 33t-104 78q-46 51-70 118-7 16-23.5 24t-32.5 1q-16-6-24-22.5t-1-32.5q24-66 65-119 42-52 95.5-89.5T384 20Q446 0 512 0q35 0 70.5 6.5T653 26q83 28 145 85 63 58 98.5 131.5T938 400q5 84-25 167z"/><glyph glyph-name="uniE9BB" unicode="" d="M1024 508v260q0 19-11.5 31T981 811q-19 0-30.5-12T939 768V610L815 730q-32 32-72.5 59T657 832q-85 29-170 22-85-6-159-42t-131-99q-57-62-86-146-29-83-23-167t41-158 97-132 145-89q35-9 70.5-15T512 0q66 0 128 20 63 20 116 57.5t94 89.5q41 53 63 119 6 16-2 32.5T887 341q-16 7-32.5-1T832 316q-24-67-70-117-46-49-104.5-77T531 89q-67-5-134 18-67 24-117 69-49 46-77 105t-33 126q-5 68 18 135 24 65 70 115 47 49 106.5 77T492 766q68 5 135-19 35-13 69-33t59-48l120-111H725q-19 0-30.5-12T683 512t11.5-31 30.5-12h256q4 0 6.5.5t2.5 4.5h4l2 2 2 2q4 0 6.5 2.5t2.5 5.5l.5 2.5 3.5 2.5q0 3 2 4t2 4q7 0 8 3t1 6z"/><glyph glyph-name="uniE9BC" unicode="" d="M171 512q-20 0-31.5-11.5T128 469q0-19 11.5-30.5T171 427q70 0 132-27t108.5-73.5T485 218t27-133q0-19 11.5-30.5T555 43q19 0 30.5 11.5T597 85q0 88-33 166-34 78-92 136t-136 91q-77 34-165 34zm0 299q-20 0-31.5-12T128 768t11.5-31 31.5-12q132 0 249-50t203.5-137T760 335q51-117 51-250 0-19 11.5-30.5T853 43q20 0 31.5 11.5T896 85q0 151-57 283T683.5 598.5 453 754t-282 57zm128-683q0-35-25-60t-61-25q-35 0-60 25t-25 60 25 60 60 25q36 0 61-25t25-60z"/><glyph glyph-name="uniE9BD" unicode="" d="M926 627L713 841q-7 6-14 9t-16 3H213q-54 0-91-36.5T85 725V128q0-54 37-91t91-37h598q54 0 91 37t37 91v469q0 10-3.5 17t-9.5 13zM683 85H341v256h342V85zm170 43q0-19-11.5-31T811 85h-43v299q0 19-11.5 31T725 427H299q-20 0-31.5-12T256 384V85h-43q-19 0-30.5 12T171 128v597q0 20 11.5 31.5T213 768h43V597q0-19 11.5-30.5T299 555h341q19 0 31 11.5t12 30.5q0 20-12 31.5T640 640H341v128h325l187-188V128z"/></font>
</defs>
</svg>
